<svg width="246" height="243" viewBox="0 0 246 243" fill="none" xmlns="http://www.w3.org/2000/svg">
<path opacity="0.35" d="M8.7002 27.5148C14.0002 27.5148 19.4002 28.9148 24.7002 29.6148C22.1002 31.9148 19.6002 34.1148 17.0002 36.1148C16.3002 36.6148 15.1002 36.5148 14.2002 36.5148C15.4597 36.5148 50.1597 36.5148 15.4597 36.5148C15.4597 36.5148 32.8002 36.5148 14.6002 36.5148L14.2002 39.8148C67.2002 39.8148 14.6002 39.8148 14.6002 39.8148C14.2002 40.8148 13.8002 41.7148 13.6002 42.6148C12.9002 45.0148 13.9002 46.3148 16.3002 45.6148C21.1002 44.2148 25.8002 42.5148 30.4002 40.7148C32.3002 40.0148 34.0002 38.7148 35.5002 37.3148C41.9002 31.7148 49.8002 28.7148 57.3002 25.0148C58.3002 24.5148 59.9002 25.1148 61.7002 25.2148C58.1002 28.8148 56.2002 32.7148 55.5002 37.2148C55.3002 38.3148 55.9002 39.5148 56.1002 40.6148C57.2002 40.3148 58.4002 40.1148 59.4002 39.6148C62.0002 38.1148 64.4002 36.1148 67.0002 34.7148C70.9002 32.7148 74.5002 30.6148 77.2002 26.9148C81.3002 21.4148 82.2002 21.1148 91.3002 20.3148C108.2 18.8148 125.1 19.9148 141.8 23.1148C142.1 23.2148 142.5 23.3148 143.4 23.6148C141 24.0148 139.2 24.4148 137.3 24.7148C135.5 25.0148 133.6 25.3148 131.8 25.6148C125.3 26.8148 118.9 28.0148 112.4 29.1148C105.4 30.3148 98.3002 31.2148 91.3002 32.5148C87.0002 33.2148 83.6002 35.7148 81.1002 39.2148C79.2002 41.8148 79.9002 43.7148 83.0002 44.1148C92.2002 45.1148 100.5 43.1148 107.6 36.9148C110.5 34.4148 113.1 31.2148 117.4 30.9148C117.9 30.9148 118.4 30.8148 118.5 30.8148C116.6 34.5148 114.5 38.3148 112.7 42.2148C112.1 43.5148 111.8 45.1148 111.8 46.6148C111.8 47.7148 112.5 48.8148 112.8 49.9148C113.8 49.5148 115 49.4148 115.9 48.7148C120.9 45.0148 124.3 40.2148 125.7 34.2148C126.7 29.8148 129.3 28.0148 133.5 27.6148C139.3 27.0148 145 26.3148 150.7 25.5148C153 25.2148 155.3 24.7148 157.5 24.3148C157.5 26.4148 156.9 28.5148 157.7 29.8148C158.4 31.1148 160.5 31.7148 162 32.6148C161.4 33.5148 160.4 34.6148 159.9 36.0148C158.3 39.6148 159.6 42.2148 163.4 43.1148C165 43.5148 166.7 43.5148 168.4 43.3148C171.3 43.0148 174.2 42.5148 176.8 42.2148C178.4 44.6148 178.1 45.7148 176.4 47.2148C173.5 49.8148 170.9 52.8148 168.5 55.8148C167.8 56.6148 168.2 58.3148 168 59.6148C169.1 59.1148 170.5 58.9148 171.3 58.1148C174 55.3148 176.4 52.2148 179.2 49.4148C178.9 53.2148 176.6 57.5148 182.4 59.3148C180.9 61.4148 179.5 63.4148 178.1 65.4148C177.5 66.2148 176.9 67.1148 176.7 68.0148C176.5 69.1148 176.8 70.2148 176.9 71.4148C177.9 70.9148 179.2 70.6148 179.8 69.8148C181.2 68.0148 182.3 65.9148 183.6 64.0148C184.2 63.1148 184.9 62.4148 185.8 61.4148C187.8 64.1148 190.1 65.9148 194.1 65.1148C192.8 66.8148 191.9 68.2148 190.9 69.5148C190.1 70.5148 189 71.4148 188.3 72.5148C187.8 73.3148 187.9 74.4148 187.8 75.4148C188.8 75.3148 190.2 75.5148 190.6 74.9148C193.1 72.1148 195.3 69.1148 197.5 66.2148C198 65.6148 198.2 64.8148 198.5 64.3148C200.7 65.4148 202.8 66.5148 205.1 67.7148C204.9 70.2148 204.6 72.9148 204.6 75.7148C204.6 80.3148 206.6 82.5148 211.1 83.5148C211.2 85.4148 210.9 87.4148 211.5 89.3148C211.9 90.8148 213.1 93.1148 214.2 93.3148C215.8 93.5148 217.6 92.2148 219.3 91.4148C219.7 91.2148 219.9 90.8148 220.7 89.8148C220.7 93.5148 220.9 96.5148 220.6 99.4148C220.5 100.415 219 101.415 217.9 102.015C215.6 103.215 213.2 104.015 210.8 105.115C203.8 108.415 198.8 113.315 196.9 121.015C196.8 121.515 196.5 122.115 196.6 122.615C196.8 123.715 196.9 125.015 197.6 125.615C198.1 126.015 199.6 125.715 200.5 125.315C203.9 123.615 207.5 122.115 210.7 120.015C213.7 117.915 216.3 115.215 219.5 112.515C218.2 117.315 216.9 121.715 215.6 126.215C215.2 127.715 214.8 129.315 214.7 130.915C214.4 136.715 214.4 142.415 213.9 148.215C213.8 149.615 212.5 151.115 211.4 152.215C201.6 161.415 197.8 173.115 197.8 186.215C197.8 188.215 197.2 191.015 199.6 191.915C202.1 192.815 202.8 189.915 204 188.415C205.9 186.015 207.7 183.615 209.2 181.015C213.7 173.615 212.9 165.515 209.9 158.115C211.4 157.015 213 155.715 214.9 154.215C215.8 159.215 217.3 164.415 217.5 169.615C217.8 175.815 217.1 182.015 216.6 188.315C216.5 189.415 215.9 190.715 215.1 191.415C206.6 199.215 204.1 209.215 204.5 220.315C204.6 224.015 205.4 224.515 208.5 224.515L212.4 222.689C212.4 182.989 212.4 222.715 212.4 222.715C212.4 220.715 212.2 218.615 214.8 217.015C214.8 218.815 214.8 220.215 214.8 221.715C214.8 227.115 214.7 232.615 214.8 238.015C214.8 239.415 215.8 240.815 216.3 242.115C217.5 241.315 218.7 240.615 219.9 239.715C220.4 239.415 220.6 238.715 221.3 237.915C221.3 239.715 221.3 205.115 221.3 239.715L224.7 233.196C224.7 196.996 224.7 233.215 224.7 233.215C224.7 231.615 224.5 229.915 224.8 228.415C226.5 220.215 226.2 212.015 225.2 203.715C225 202.215 225.7 200.315 226.6 199.115C230 194.615 232.8 189.815 234.2 184.215C234.3 183.915 234.5 183.715 234.7 183.415C234.4 188.015 234 192.415 234 196.815C234 201.715 234.9 206.415 237.9 210.415C238.5 211.115 239.6 211.715 240.5 211.815C241 211.815 242 210.815 242.2 210.115C243.4 206.315 244.7 202.515 245.5 198.515C247.1 190.415 244.1 183.615 238.9 177.715C238 176.715 236.4 176.315 235.6 175.315C234.3 173.615 233.3 171.715 232.3 169.815C230.1 165.215 226.6 161.915 222.2 159.515C220.9 158.815 219.2 157.715 218.8 156.515C217.1 150.915 217.1 145.015 217.5 139.715C220.9 143.115 224.4 146.615 227.8 150.115C229.4 151.715 230.8 151.515 231.7 149.415C232.1 148.515 232.3 147.515 232.4 146.615C232.9 136.715 230.9 127.715 223.6 120.415C222.7 119.515 221.6 118.115 221.8 117.115C222.2 113.615 223.2 110.215 224.1 106.315C225.1 107.415 225.7 108.215 226.4 108.915C229.3 111.515 232.2 114.115 235.3 116.615C235.9 117.115 237.4 117.515 237.9 117.215C238.6 116.715 239.2 115.515 239.1 114.615C238.9 106.215 236.5 98.7148 230.3 92.7148C228.4 90.8148 226.9 88.4148 225.4 86.1148C225.1 85.6148 225.3 83.9148 225.7 83.7148C228.7 82.3148 229.8 79.6148 230.1 76.8148C231.3 65.0148 229.4 53.9148 221.8 44.3148C219.7 41.6148 217.9 38.6148 216.4 35.5148C214.3 31.0148 211.2 27.8148 206.7 26.1148C202.5 24.5148 198.1 23.4148 193.8 21.9148C186.6 19.3148 179.5 16.5148 172.3 14.1148C168.1 12.7148 163.9 12.9148 159.8 15.0148C156.5 16.7148 155.8 18.5148 157.6 22.1148C154.3 22.1148 151.1 22.4148 147.9 22.1148C135.2 20.8148 122.4 19.4148 109.7 17.7148C105.5 17.1148 101.3 15.7148 97.2002 14.3148C93.6002 13.1148 90.1002 11.5148 86.6002 9.91481C84.0002 8.71481 81.3002 7.71479 79.2002 6.01479C70.9002 -0.985214 61.9002 -1.5852 52.2002 2.7148C51.3002 3.1148 50.4002 4.01477 50.2002 4.81477C50.1002 5.21477 51.2002 6.4148 52.0002 6.7148C57.0002 9.0148 62.1002 11.1148 67.2002 13.3148C65.3002 13.5148 63.2002 13.9148 61.2002 14.0148C55.0002 14.4148 49.1002 15.5148 44.3002 19.6148C42.6002 21.0148 41.3002 20.7148 39.5002 20.1148C35.3002 18.8148 31.0002 17.3148 26.7002 16.8148C18.9002 16.0148 11.3002 17.5148 5.30021 23.0148C3.60021 24.5148 2.10022 25.1148 0.000217335 25.1148L8.7002 27.4151L8.7002 27.5148ZM84.3002 40.7148C86.9002 36.1148 96.9002 32.7148 107.1 32.8148C100.4 39.3148 93.1002 41.8148 84.3002 40.7148ZM114.7 45.9148C116.2 40.5148 118 36.0148 122.7 32.4148C121.5 38.0148 119.6 42.5148 114.7 45.9148ZM200.2 121.415C202.4 110.715 211.1 107.615 219.3 103.915C219.7 110.015 209.3 119.515 200.2 121.415ZM201.5 186.115C202 176.915 202.8 168.415 208.3 161.015C211.5 170.115 209.5 178.115 201.5 186.115ZM238.2 182.615C243.2 186.915 243.8 197.115 239.3 206.415C236 198.215 236.9 190.415 238.2 182.615ZM208.6 218.215C206.7 210.815 211.4 197.815 217.4 193.815C218.3 203.115 215.6 210.615 208.6 218.215ZM230.6 172.915C227.2 176.715 223.8 180.415 221 183.515C221 180.515 221 176.715 221 172.815C221 169.115 220.9 165.415 220.9 161.815C225.9 163.615 228.5 168.215 230.6 172.915ZM231.3 177.315C232 184.215 228.2 192.615 220.9 200.615C218.5 195.215 223.8 183.215 231.3 177.315ZM220.6 205.015C221.1 205.115 221.5 205.115 222 205.215C223.8 215.315 223.2 225.215 218.4 234.615C218.5 224.615 216.1 214.515 220.6 205.015ZM160 28.4148C161.6 25.4148 163.7 23.8148 166.5 23.8148C172 23.6148 177.5 23.7148 183 24.0148C176 28.8148 168.7 31.1148 160 28.4148ZM169 39.7148C166.7 40.5148 163.9 41.0148 162.7 38.9148C161.5 36.6148 163.9 34.9148 165.8 33.7148C167.3 32.8148 169 32.2148 170.8 31.4148C170.1 34.4148 169.7 36.7148 169 39.7148C169.2 39.6148 169.4 39.4148 169 39.7148ZM181.4 37.5148C186.1 32.1148 191.9 29.1148 199.3 29.4148C194 31.6148 190.7 36.0148 187.2 40.1148C186.7 40.6148 186.3 41.2148 185.8 41.7148C184.5 42.8148 183.4 44.7148 181.3 43.5148C180 42.7148 180.2 38.8148 181.4 37.5148ZM210.4 80.1148C207.9 78.9148 207.5 76.5148 207.8 74.6148C208.3 71.0148 206.9 66.4148 212.4 64.3148C211.8 69.7148 213.6 75.0148 210.4 80.1148ZM229 145.915C224 143.315 221.4 138.815 219 133.915C216.7 129.215 219.3 125.315 220.3 120.915C227 126.615 230.9 138.015 229 145.915ZM235.5 111.815C227.1 106.515 222.8 99.4148 224 89.4148C230.2 95.6148 236 101.915 235.5 111.815ZM220.1 57.3148C220.7 54.6148 221.4 51.9148 222 49.1148C222.2 49.0148 222.3 48.9148 222.5 48.8148C223.8 52.8148 225.7 56.7148 226.3 60.8148C227 65.7148 226.9 70.9148 226.7 75.9148C226.7 77.4148 225.3 78.8148 224.5 80.3148C224.1 80.2148 223.8 80.1148 223.4 80.0148C223.1 78.6148 222.8 77.2148 222.6 75.7148C221.8 70.2148 221 64.6148 220.2 59.1148C220.1 58.5148 219.9 57.8148 220.1 57.3148ZM218.1 87.6148C217.4 88.7148 216.4 89.5148 215.6 90.5148C215.3 90.4148 215 90.2148 214.7 90.1148C214.7 87.2148 214.6 84.2148 214.7 81.3148C214.9 76.0148 215.3 70.6148 215.3 65.3148C215.3 63.3148 215.6 62.3148 217.8 61.9148C218.4 65.2148 219.3 68.5148 219.5 71.8148C219.9 77.0148 221.4 82.6148 218.1 87.6148ZM213 35.1148C214.7 38.6148 216.5 42.0148 218 45.6148C219.4 49.1148 218.9 52.7148 217.2 56.2148C215.5 59.7148 215.6 59.7148 211.8 58.4148C214.7 50.8148 212.5 43.0148 213 35.1148ZM211 51.0148C210.8 54.7148 208.4 58.1148 209.3 62.1148C206.5 64.4148 203.4 64.2148 201.6 61.3148C201.1 60.5148 200.8 59.0148 201.2 58.2148C204.2 52.0148 207.5 45.9148 211 38.9148C211 43.4148 211.2 47.2148 211 51.0148ZM196.9 59.0148C196 60.2148 194.5 61.1148 193.1 61.8148C191.5 62.6148 190.2 62.0148 189.2 60.5148C188.2 59.0148 188.7 58.0148 189.9 56.9148C196.6 50.9148 201.5 43.5148 206.5 36.1148C207.5 34.6148 208.1 33.0148 208.9 31.4148C206.9 41.5148 203.1 50.8148 196.9 59.0148ZM206.7 30.7148C205.5 32.7148 204.8 34.3148 203.8 35.6148C199.4 41.4148 195 47.2148 190.3 52.8148C188.9 54.5148 186.7 55.5148 184.7 56.6148C183.9 57.0148 182.6 56.8148 181.7 56.4148C181.3 56.2148 181.2 54.8148 181.3 54.0148C181.9 50.4148 183.4 47.5148 186.5 45.1148C189.2 43.0148 191.3 40.1148 193.6 37.5148C196.9 33.8148 201 31.6148 206.7 30.7148ZM199.5 26.4148C190.2 27.3148 182.5 30.8148 177.7 39.6148C177.3 39.6148 176.6 39.8148 176.1 39.6148C174.8 38.9148 173.2 38.3148 172.6 37.2148C172.2 36.5148 173.1 34.5148 174 33.8148C177.3 31.1148 180.3 28.0148 184.7 26.7148C189.6 25.3148 194.4 25.2148 199.5 26.4148ZM159.6 17.8148C162.1 15.6148 165.2 14.7148 168.4 15.3148C172.1 16.0148 175.8 16.9148 179.5 17.9148C181.9 18.5148 184.2 19.4148 186.6 20.2148C187.4 20.5148 188.1 20.9148 188.7 21.7148C186.1 21.6148 183.5 21.4148 180.9 21.3148C176.7 21.1148 172.5 21.2148 168.4 20.8148C165.4 20.5148 162.5 19.5148 159.5 18.9148C159.5 18.5148 159.6 18.2148 159.6 17.8148ZM27.2002 38.7148C24.1002 40.1148 20.8002 41.2148 17.5002 42.1148C20.5002 34.7148 26.9002 32.3148 33.6002 30.3148C34.3002 35.5148 30.6002 37.1148 27.2002 38.7148ZM59.2002 35.9148C59.5002 29.2148 64.2002 25.8148 74.4002 24.7148C71.0002 31.2148 63.8002 31.5148 59.2002 35.9148ZM55.8002 3.91481C62.5002 0.214809 72.7002 2.3148 78.4002 8.7148C71.9002 9.9148 59.9002 7.31481 55.8002 3.91481ZM73.3002 13.7148C81.2002 11.5148 89.3002 10.1148 96.6002 16.5148C93.6002 16.9148 90.6002 17.1148 87.8002 17.6148C83.8002 18.4148 79.8002 19.2148 75.9002 20.4148C71.0002 21.9148 66.0002 22.2148 60.7002 22.0148C63.1002 16.1148 68.5002 15.1148 73.3002 13.7148ZM61.4002 15.9148C58.9002 18.4148 57.1002 21.0148 54.6002 22.5148C49.2002 25.6148 43.4002 28.1148 37.9002 30.8148C41.2002 22.7148 51.7002 15.7148 61.4002 15.9148ZM39.1002 22.8148C38.4002 24.5148 37.1002 24.9148 35.3002 25.4148C26.3002 27.9148 17.7002 25.3148 9.00022 23.5148C15.9002 17.8148 29.6002 17.3148 39.1002 22.8148Z" fill="#9EB98D"/>
</svg>
