<svg width="185" height="382" viewBox="0 0 185 382" fill="none" xmlns="http://www.w3.org/2000/svg">
<g opacity="0.5">
<path d="M76.2272 381.611C82.9272 374.611 88.4273 365.811 92.1273 356.711C92.2273 356.811 92.4273 356.811 92.5273 356.611C92.8273 355.911 93.4273 355.411 94.0273 354.911C94.4273 354.611 95.5273 353.511 96.1273 353.911C96.5273 354.111 96.1273 354.811 96.0273 355.111C95.7273 355.511 95.2272 355.811 94.7272 356.111C94.0272 356.511 93.0272 356.711 92.3272 357.211C92.2272 357.311 92.2272 357.411 92.2272 357.511C92.2272 357.511 92.2272 357.511 92.2272 357.611C92.2272 357.711 92.3272 357.811 92.4272 357.811C92.9272 357.911 93.5273 357.611 93.9272 357.411C94.6273 357.111 95.2272 356.711 95.8272 356.311C96.6272 355.711 97.3273 354.611 96.6273 353.711C96.0273 353.011 94.8272 353.711 94.3272 354.111C93.7272 354.511 93.0273 355.111 92.5273 355.811C92.8273 355.111 93.1272 354.311 93.3272 353.611C94.3272 350.811 95.4272 347.911 96.3272 344.911C97.2272 344.311 97.8273 343.411 98.5273 342.611C99.0273 342.011 99.5272 341.411 100.227 341.011C100.627 340.711 101.527 340.811 101.327 341.511C101.027 342.611 99.4273 343.411 98.5273 343.911C97.9273 344.311 96.7272 344.611 96.3272 345.211C96.3272 345.311 96.3272 345.411 96.4272 345.411C96.8272 345.611 97.3273 345.211 97.6273 345.111C98.3273 344.711 99.0273 344.311 99.6273 343.911C100.527 343.311 102.027 342.311 101.927 341.111C101.827 339.711 100.027 340.211 99.3272 340.711C98.6272 341.311 98.0273 342.011 97.5273 342.711C97.2273 343.111 96.9273 343.611 96.5273 344.111C97.4273 341.311 98.3273 338.411 99.1273 335.411C99.4273 334.911 99.7273 334.411 100.027 333.911C101.827 332.311 104.627 332.611 106.927 333.111C108.427 333.411 110.927 334.111 111.227 335.811C111.227 335.911 111.427 336.111 111.527 336.011C113.327 334.911 108.527 332.911 108.027 332.811C105.827 332.111 102.827 331.711 100.827 332.911C100.927 332.811 101.027 332.711 101.027 332.611C101.027 332.611 101.027 332.611 101.127 332.611C103.727 330.111 107.527 328.611 111.127 328.711C111.627 328.711 117.527 329.311 117.427 329.611C117.327 329.811 117.527 329.911 117.627 329.911C117.427 330.411 117.427 330.911 117.727 331.411C118.327 332.411 119.827 332.911 120.627 331.911C121.227 331.211 121.127 330.011 120.727 329.311C120.127 328.311 118.827 328.311 118.227 329.211C118.127 329.211 118.127 329.311 118.127 329.311C117.627 327.911 112.827 328.111 111.827 328.011C108.427 327.811 104.827 328.911 102.227 331.111C105.527 327.211 109.527 324.411 114.527 322.411C114.527 322.811 114.627 323.211 114.927 323.511C115.527 324.411 116.727 324.811 117.627 324.111C118.327 323.511 118.527 322.511 118.227 321.711C117.927 320.711 116.627 320.211 115.827 321.011C115.727 321.111 115.727 321.211 115.727 321.311C115.427 321.311 115.127 321.511 114.927 321.611C114.727 321.711 114.627 321.911 114.527 322.111C113.827 322.211 113.227 322.411 112.527 322.611C112.827 322.211 112.827 321.511 112.627 321.011C112.627 320.911 112.527 320.811 112.427 320.711C112.527 320.611 112.527 320.311 112.227 320.211C112.127 320.211 111.927 320.211 111.827 320.211C111.527 320.011 110.927 319.911 110.727 320.311C110.727 320.411 110.727 320.411 110.727 320.511C110.727 320.511 110.727 320.511 110.827 320.611C110.527 320.811 110.327 321.111 110.327 321.511C110.227 322.311 110.927 322.911 111.727 322.911C106.627 324.811 102.427 329.211 99.6273 333.811C99.9273 332.611 100.227 331.411 100.527 330.211C100.527 330.311 100.727 330.311 100.727 330.311C102.927 328.011 104.827 325.411 106.327 322.611C107.227 320.911 108.827 317.911 107.627 315.911C107.527 315.711 107.227 315.811 107.327 316.011C108.227 320.711 103.527 326.611 100.527 330.011C101.427 325.911 102.227 321.711 102.527 317.711C102.527 317.511 102.327 317.511 102.327 317.711C100.327 328.111 97.6273 338.311 94.4272 348.311C94.7272 346.411 94.3272 343.211 92.4272 343.211C91.4272 343.211 91.4272 344.611 91.4272 345.311C91.5273 345.911 91.7273 346.511 92.0273 347.011C92.5273 347.711 93.2272 348.611 93.8272 349.211C93.8272 349.311 93.9273 349.411 94.0273 349.411C93.8273 350.111 93.5272 350.911 93.3272 351.611C91.1272 358.111 87.9272 364.011 84.3272 369.611C84.8272 368.211 84.9273 366.411 84.0273 365.211C83.9273 365.011 83.6273 365.111 83.5273 365.211C82.9273 366.011 82.8272 367.011 82.8272 368.011C82.8272 368.811 82.8272 370.011 83.3272 370.711C83.4272 370.911 83.7272 370.811 83.7272 370.611C83.7272 370.511 83.7272 370.511 83.7272 370.411L83.8272 370.511C81.3272 374.311 78.6273 377.911 76.0273 381.611C75.9273 381.611 76.1272 381.711 76.2272 381.611ZM119.627 329.511C119.727 329.611 119.827 329.611 119.927 329.811C120.227 330.211 120.227 330.711 120.027 331.211C119.927 331.411 119.827 331.511 119.827 331.511C119.527 331.611 119.227 331.411 119.027 331.311C118.727 331.111 118.527 330.711 118.627 330.311C118.727 329.811 119.227 329.611 119.627 329.511ZM116.827 321.911C116.927 321.911 116.927 321.911 116.927 321.811C117.027 321.911 117.127 321.911 117.127 322.011C117.327 322.311 117.227 322.811 117.027 323.111C116.927 323.311 116.827 323.411 116.727 323.411C116.627 323.511 116.427 323.411 116.227 323.311C115.927 323.211 115.427 322.711 115.527 322.411C115.727 322.011 116.427 321.911 116.827 321.911ZM111.327 321.611C111.227 321.411 111.427 321.211 111.627 321.011C111.727 321.011 111.727 321.111 111.827 321.211C112.027 321.411 112.027 321.711 111.927 322.011C111.927 322.111 111.427 321.811 111.327 321.611ZM92.8272 346.811C92.2272 346.111 91.9272 345.011 92.2272 344.111C92.5272 343.311 93.3272 344.511 93.4272 344.811C93.6273 345.311 93.7272 345.811 93.7272 346.311C93.8272 346.911 93.8272 347.411 93.8272 348.011C93.5272 347.611 93.1272 347.211 92.8272 346.811ZM83.5273 368.511C83.4273 367.711 83.5272 366.811 83.8272 366.111C84.3272 367.211 83.9272 368.711 83.7272 369.911C83.6272 369.411 83.5273 369.011 83.5273 368.511Z" fill="#35611A"/>
<path d="M89.5272 359.611C89.6272 359.611 89.7272 359.511 89.7272 359.411C90.1272 357.811 90.2272 355.411 88.7272 354.311C88.6272 354.211 88.4272 354.211 88.3272 354.311C87.5272 355.111 87.4272 355.911 87.6272 357.011C87.8272 357.911 88.4272 359.311 89.3272 359.711C89.3272 359.811 89.4272 359.711 89.5272 359.611ZM88.7272 357.811C88.2272 356.911 87.9272 355.911 88.5272 355.111C89.4272 356.011 89.3272 357.411 89.2272 358.611C89.0272 358.311 88.8272 358.111 88.7272 357.811Z" fill="#35611A"/>
<path d="M88.9272 363.611C88.7272 363.911 89.2272 364.211 89.4272 363.911C89.7272 363.411 92.7272 361.711 92.9272 362.711C93.1272 363.811 91.8272 364.011 91.0272 364.011C90.3272 364.111 89.5272 363.811 88.9272 364.211C88.7272 364.311 88.8272 364.611 88.9272 364.611C89.3272 364.911 89.9272 364.811 90.4272 364.811C91.0272 364.811 91.6272 364.811 92.1272 364.611C93.0272 364.311 93.9272 363.411 93.5272 362.411C92.8272 360.811 89.5272 362.611 88.9272 363.611Z" fill="#35611A"/>
<path d="M99.2271 327.411C99.5271 325.011 98.7271 323.011 97.5271 321.011C97.6271 321.011 97.6272 320.911 97.6272 320.811C96.9272 319.411 97.2271 317.811 97.4271 316.311C97.5271 315.511 97.6271 314.811 97.7271 314.011C97.7271 314.011 98.6271 310.711 98.9271 311.111C98.9271 311.211 98.9271 311.311 99.0271 311.411C99.3271 312.111 100.227 312.411 100.827 312.411C101.427 312.411 101.927 312.211 102.227 311.811C102.827 311.111 102.827 309.811 102.327 309.011C101.827 308.011 100.427 307.711 99.8271 308.811C99.8271 308.911 99.8271 308.911 99.8271 309.011C99.6271 309.211 99.5271 309.411 99.4271 309.511C99.2271 309.811 99.0271 310.111 98.9271 310.411C98.8271 310.411 98.8271 310.411 98.7271 310.411C97.3271 311.011 97.0271 313.911 96.9271 315.111C96.7271 316.611 96.4271 318.311 96.8271 319.811C96.0271 318.511 95.1271 317.211 94.4271 315.911C94.3271 315.711 93.9271 315.811 94.0271 316.011C94.3271 317.511 95.4271 318.911 96.3271 320.111C97.9271 322.311 99.3271 324.511 98.9271 327.211C98.8271 327.611 99.2271 327.611 99.2271 327.411ZM99.9271 310.911C99.9271 310.211 100.527 309.811 100.827 309.211C101.127 309.211 101.327 309.311 101.527 309.611C101.727 310.011 101.827 310.711 101.527 311.111C101.127 311.611 99.9271 311.511 99.9271 310.911Z" fill="#35611A"/>
<path d="M94.6273 321.811C95.6273 322.711 96.4273 323.911 97.3273 324.911C97.4273 325.011 97.6273 324.911 97.5273 324.711C95.9273 322.311 93.9273 319.911 91.1273 319.011C91.0273 319.011 90.9273 319.011 90.8273 319.111C90.7273 318.611 90.4273 318.211 90.1273 317.911C89.4273 317.411 88.5273 317.911 88.6273 318.711C88.3273 319.011 88.1273 319.511 88.3273 319.811C88.7273 320.611 90.2273 320.411 90.6273 319.811C90.7273 319.611 90.8273 319.411 90.8273 319.211C90.8273 319.211 90.8273 319.311 90.9273 319.311C92.3273 320.111 93.5273 320.711 94.6273 321.811ZM90.0273 319.511C89.9273 319.811 88.9273 319.911 88.9273 319.611C88.9273 319.211 89.3273 318.811 89.6273 318.511C89.6273 318.511 89.6273 318.511 89.7273 318.511C89.9273 318.811 90.1273 319.211 90.0273 319.511Z" fill="#35611A"/>
<path d="M86.4274 332.411C87.8274 328.811 95.2273 329.311 97.8273 331.411C98.0273 331.511 98.2274 331.311 98.1274 331.111C96.9274 328.911 92.6274 329.111 90.6274 329.311C89.6274 329.411 84.5274 330.411 86.1274 332.411C86.2274 332.611 86.4274 332.611 86.4274 332.411Z" fill="#35611A"/>
<path d="M103.927 307.711C103.827 307.511 103.427 307.511 103.427 307.811C103.427 307.911 103.427 307.911 103.427 308.011C103.427 308.211 103.627 308.311 103.827 308.111C103.427 308.611 104.627 312.111 104.827 313.111C105.327 316.511 104.027 319.111 102.727 322.111C102.627 322.411 103.027 322.511 103.127 322.311C105.327 317.811 106.527 312.411 103.927 307.711Z" fill="#35611A"/>
<path d="M111.027 308.311C111.327 308.111 111.027 307.711 110.727 307.811C108.127 308.611 106.227 311.511 105.727 314.111C105.727 314.211 105.927 314.311 106.027 314.211C106.627 313.211 107.027 312.211 107.727 311.211C108.627 309.911 109.627 309.111 110.927 308.411C110.927 308.311 111.027 308.311 111.027 308.311Z" fill="#35611A"/>
<path d="M92.9273 328.611C91.3273 328.711 90.0273 328.211 88.7273 327.311C87.6273 326.511 87.2273 325.311 86.3273 324.411C86.2273 324.311 86.0273 324.411 86.0273 324.511C86.3273 325.911 87.6273 327.111 88.8273 327.911C90.0273 328.811 91.5273 329.111 93.0273 328.911C93.2273 328.911 93.1273 328.511 92.9273 328.611Z" fill="#35611A"/>
<path d="M85.3273 324.611C85.8273 324.111 85.9273 323.211 85.7273 322.511C85.8273 322.411 85.8273 322.111 85.6273 322.211C85.2273 321.511 84.0273 321.211 83.4273 321.811C83.3273 321.911 83.3273 322.111 83.5273 322.111C83.9273 322.211 84.4273 322.211 84.7273 322.411C83.8273 322.811 82.9273 323.411 83.5273 324.411C83.8273 325.211 84.7273 325.311 85.3273 324.611ZM84.3273 324.111C83.8273 323.711 84.3273 323.211 84.9273 322.911C84.9273 323.211 84.9273 323.511 84.7273 323.811C84.6273 324.011 84.5273 324.111 84.4273 324.211C84.3273 324.211 84.4273 324.211 84.3273 324.111Z" fill="#35611A"/>
<path d="M87.9272 319.711C88.1272 319.311 87.8272 318.811 87.5272 318.511C87.3272 318.311 87.1272 318.111 86.9272 318.011C86.9272 317.911 86.8272 317.811 86.6272 317.911C86.6272 317.911 86.6272 317.911 86.5272 317.911C86.4272 317.911 86.3272 317.911 86.2272 317.911C85.9272 318.011 86.0272 318.111 86.1272 318.211C85.9272 318.411 85.7272 318.711 85.7272 319.011C85.6272 319.611 86.3272 319.911 86.7272 320.011C87.2272 320.111 87.6272 320.111 87.9272 319.711ZM86.3272 319.011C86.2272 318.811 86.3272 318.611 86.5272 318.511C86.5272 318.511 86.6272 318.511 86.6272 318.611C86.8272 318.711 87.0272 318.911 87.2272 319.111C87.3272 319.211 87.3272 319.311 87.3272 319.411C86.9272 319.411 86.4272 319.311 86.3272 319.011Z" fill="#35611A"/>
<path d="M88.4272 315.011C89.1272 314.311 88.9272 313.011 88.4272 312.311C88.1272 311.911 87.7272 311.711 87.2272 311.711C86.6272 311.711 86.1272 312.111 85.8272 312.711C85.7272 312.811 85.8272 313.011 86.0272 312.911C86.5272 312.711 87.1272 312.411 87.6272 312.811C88.0272 313.211 88.0272 313.811 87.8272 314.311C87.7272 314.511 87.5272 314.711 87.2272 314.811C87.0272 314.911 86.4272 314.911 86.2272 314.711C85.9272 314.211 86.7272 313.311 87.1272 313.011C87.3272 312.911 87.1272 312.711 86.9272 312.711C86.1272 313.111 85.0272 314.011 85.4272 315.011C85.6272 315.611 86.4272 315.711 87.0272 315.711C87.5272 315.711 88.0272 315.411 88.4272 315.011Z" fill="#35611A"/>
<path d="M91.4273 322.211C90.9273 322.511 90.5273 322.911 90.5273 323.511C90.5273 324.311 91.3273 324.711 92.0273 324.511C93.4273 324.311 92.7273 321.811 91.5273 321.911C91.4273 322.011 91.3273 322.111 91.4273 322.211ZM91.9273 323.811C91.6273 324.011 91.2273 323.611 91.3273 323.311C91.4273 323.011 91.5273 322.811 91.7273 322.611C91.9273 323.011 92.1273 323.611 91.9273 323.811Z" fill="#35611A"/>
<path d="M92.6272 316.811C93.0272 316.211 92.7272 315.411 92.2272 315.011C92.1272 314.911 92.0272 314.811 91.8272 314.811C91.9272 314.711 92.0272 314.611 92.1272 314.511C92.3272 314.311 92.1272 314.011 91.9272 314.111C91.7272 314.211 91.4272 314.411 91.2272 314.611C90.7272 314.611 90.3272 314.811 90.1272 315.311C90.1272 315.411 90.1272 315.511 90.2272 315.511C90.3272 315.511 90.4272 315.511 90.5272 315.511C90.4272 315.711 90.4272 316.011 90.5272 316.211C90.8272 316.911 92.1272 317.511 92.6272 316.811ZM91.3272 315.911C91.3272 315.811 91.3272 315.611 91.4272 315.411H91.5272C91.8272 315.611 92.0272 315.911 91.9272 316.211C92.0272 316.311 91.4272 316.111 91.3272 315.911Z" fill="#35611A"/>
<path d="M92.1272 311.311C91.9272 311.911 91.8272 312.511 92.1272 313.111C92.5272 314.011 93.6272 313.911 94.4272 313.511C94.4272 313.611 94.5272 313.611 94.5272 313.611C94.6272 313.611 94.8272 313.711 95.1272 313.711C94.6272 313.811 94.1272 314.211 94.1272 314.711C94.1272 315.611 95.3272 315.511 95.9272 315.211C96.5272 314.911 96.7272 314.011 96.3272 313.411C96.1272 313.111 95.6272 312.911 95.2272 312.911C95.3272 312.811 95.3272 312.811 95.4272 312.711C96.0272 311.611 95.2272 310.311 94.3272 309.711C93.5272 309.211 92.4272 309.411 92.1272 310.211C91.7272 310.111 91.4272 310.111 91.1272 310.311L91.0272 310.411C91.1272 310.211 90.8272 310.011 90.7272 310.211C90.5272 310.611 90.0272 311.211 90.5272 311.611C90.8272 311.911 91.4272 311.711 91.7272 311.611C91.8272 311.611 91.9272 311.511 92.1272 311.311ZM95.5272 314.411C95.4272 314.511 95.3272 314.611 95.2272 314.611C95.1272 314.611 95.0272 314.611 94.8272 314.611C94.9272 314.411 95.2272 314.111 95.4272 314.011C95.4272 314.011 95.5272 314.011 95.5272 313.911C95.6272 314.111 95.6272 314.211 95.5272 314.411ZM93.6272 310.311C93.7272 310.311 93.8272 310.411 93.8272 310.411C94.3272 310.711 94.8272 311.511 94.6272 312.111C94.4272 312.711 93.1272 313.411 92.6272 312.611C92.2272 311.911 92.8272 310.811 93.6272 310.311ZM90.9272 310.511C90.9272 310.511 90.9272 310.611 91.0272 310.611C91.2272 310.711 91.4272 310.811 91.6272 310.911H91.7272C91.6272 311.011 91.5272 311.011 91.4272 311.111C91.2272 311.211 90.9272 311.311 90.7272 311.311C90.5272 311.211 90.8272 310.611 90.9272 310.511Z" fill="#35611A"/>
<path d="M99.1273 314.311C98.9273 314.411 98.8273 314.611 98.6273 314.711C98.5273 314.811 98.4273 314.911 98.5273 315.011C98.7273 315.611 99.7273 315.411 100.127 315.211C100.427 315.111 100.627 314.811 100.527 314.511C100.427 314.011 99.9273 313.811 99.4273 313.711C99.3273 313.711 99.2272 313.811 99.2272 313.911C99.3272 314.011 99.4273 314.111 99.4273 314.211C99.4273 314.311 99.3273 314.211 99.1273 314.311Z" fill="#35611A"/>
<path d="M97.4271 310.111C97.9271 309.711 97.9272 308.811 97.6272 308.311C97.3272 307.711 96.4272 307.611 96.0272 308.111C95.5272 308.411 95.2271 308.811 95.4271 309.411C95.7271 310.111 96.8271 310.611 97.4271 310.111ZM96.4271 309.211C96.1271 309.011 96.3272 308.711 96.6272 308.511C96.7272 308.511 96.9271 308.511 96.9271 308.611C97.1271 308.811 97.0272 309.111 97.0272 309.311C96.8272 309.511 96.6271 309.411 96.4271 309.211Z" fill="#35611A"/>
<path d="M100.327 317.211C99.9273 316.311 98.8273 316.311 98.3273 316.911C98.2273 317.011 98.3273 317.111 98.4273 317.211C98.5273 317.211 98.6273 317.211 98.7273 317.211C98.3273 317.311 98.0273 317.811 98.0273 318.411C98.1273 319.311 99.2273 319.811 99.9273 319.311C100.527 318.811 100.627 317.811 100.327 317.211ZM98.9273 318.611C98.5273 318.211 98.9273 317.311 99.5273 317.711C99.6273 317.811 99.7273 317.711 99.8273 317.611C99.9273 317.911 99.9273 318.211 99.8273 318.511C99.5273 318.811 99.2273 318.911 98.9273 318.611Z" fill="#35611A"/>
<path d="M104.627 319.311C104.627 319.911 105.227 320.111 105.727 320.011C106.227 319.911 106.727 319.511 106.827 319.011C106.927 318.611 106.727 318.311 106.427 318.211C106.527 318.111 106.427 317.911 106.227 317.911C105.427 318.011 104.627 318.411 104.627 319.311ZM105.727 318.511C105.927 318.611 106.127 318.811 106.127 318.911C106.127 319.011 105.827 319.211 105.727 319.211C105.627 319.211 105.527 319.311 105.427 319.311H105.327C105.227 319.211 105.427 318.811 105.527 318.711C105.627 318.611 105.627 318.611 105.727 318.511Z" fill="#35611A"/>
<path d="M110.327 316.011C110.227 316.111 110.327 316.311 110.427 316.411C109.927 316.911 109.527 317.511 109.527 318.211C109.527 319.411 111.127 319.911 112.027 319.411C112.927 319.011 113.027 317.711 112.727 316.811C112.327 315.911 111.127 315.011 110.327 316.011ZM111.827 317.111C112.027 317.511 112.027 318.311 111.627 318.611C111.027 319.011 110.227 318.511 110.227 317.811C110.327 317.311 110.627 316.811 110.927 316.411C111.327 316.611 111.627 316.711 111.827 317.111Z" fill="#35611A"/>
<path d="M110.027 312.811C109.927 312.811 109.827 312.911 109.927 313.011C110.127 313.311 110.327 313.511 110.627 313.711C110.727 313.811 110.827 313.911 110.927 313.911C110.827 313.911 110.627 314.011 110.527 314.011C110.227 314.011 109.827 314.011 109.527 313.811C109.427 313.711 109.427 313.711 109.427 313.711C109.427 313.511 109.727 313.411 109.827 313.311C110.027 313.211 109.827 312.911 109.627 313.011C109.127 313.211 108.527 313.711 108.927 314.211C109.227 314.611 109.927 314.711 110.427 314.711C110.927 314.711 111.627 314.611 111.627 314.011C111.727 313.311 110.527 312.611 110.027 312.811Z" fill="#35611A"/>
<path d="M113.027 306.311C112.927 306.411 112.927 306.511 113.027 306.611C113.327 306.911 113.827 306.811 114.027 307.111C114.227 307.311 114.227 307.611 114.127 307.811C114.027 308.111 113.627 308.111 113.327 308.011C113.127 307.911 112.727 307.811 112.827 307.611C112.827 307.411 113.327 307.311 113.427 307.211C113.627 307.211 113.627 306.911 113.427 306.911C113.027 306.811 112.627 306.811 112.327 307.111C112.027 307.411 112.027 307.811 112.227 308.211C112.727 308.911 113.827 309.111 114.527 308.611C115.127 308.211 115.227 307.411 114.927 306.811C114.627 306.211 113.527 305.711 113.027 306.311Z" fill="#35611A"/>
<path d="M108.227 305.411C107.627 305.411 107.127 305.611 106.827 306.111C106.727 306.311 106.827 306.411 106.927 306.511C107.427 306.911 108.127 307.211 108.727 306.811C109.227 306.511 109.127 305.611 108.627 305.311C108.527 305.211 108.427 305.311 108.327 305.411C108.327 305.411 108.327 305.411 108.227 305.411ZM108.227 306.311C108.127 306.411 107.827 306.311 107.627 306.211C107.727 306.011 108.027 305.911 108.227 305.911C108.327 306.011 108.327 306.211 108.227 306.311Z" fill="#35611A"/>
<path d="M100.527 306.611C100.927 307.211 101.827 307.411 102.527 307.411C103.127 307.411 103.627 307.211 104.027 306.711C104.627 305.811 104.427 304.511 103.827 303.811C103.027 302.711 101.627 303.211 101.227 304.311C101.227 304.411 101.227 304.611 101.427 304.611C100.627 305.111 100.027 305.811 100.527 306.611ZM102.627 304.311C102.727 304.211 102.827 304.311 102.827 304.311C103.227 304.711 103.327 305.411 103.227 305.911C103.027 306.711 101.827 306.411 101.327 306.111C100.827 305.711 102.327 304.411 102.627 304.311Z" fill="#35611A"/>
<path d="M99.8271 306.411C99.7271 305.811 98.9272 305.811 98.5272 305.911C98.4272 305.911 98.4272 306.111 98.5272 306.111C98.5272 306.111 98.5272 306.111 98.6272 306.111C98.2272 306.311 98.0271 306.711 98.2271 307.111C98.4271 307.411 98.9271 307.311 99.2271 307.211C99.5271 307.111 99.8271 306.811 99.8271 306.411ZM98.8271 306.311C98.9271 306.411 99.0272 306.411 99.0272 306.511C99.0272 306.511 99.0272 306.511 98.9272 306.611C98.8272 306.611 98.8271 306.711 98.7271 306.711C98.7271 306.611 98.8271 306.411 98.8271 306.311Z" fill="#35611A"/>
<path d="M96.7273 307.411C97.2273 306.811 97.4273 305.611 97.0273 304.911C96.5273 303.811 94.9273 304.011 94.3273 304.911C94.3273 305.011 94.3273 305.111 94.3273 305.211C93.8273 305.711 93.8273 306.511 94.2273 307.111C94.9273 307.911 95.9273 308.311 96.7273 307.411ZM95.5273 306.911C95.2273 306.711 94.9273 306.311 94.9273 305.911C94.9273 305.511 95.4273 305.111 95.8273 305.211L95.9273 305.311C96.0273 305.411 96.0273 305.611 96.0273 305.711C96.0273 306.011 96.0273 306.211 95.9273 306.411C95.8273 306.611 95.7273 306.711 95.6273 306.811C95.7273 306.911 95.6273 306.911 95.5273 306.911Z" fill="#35611A"/>
<path d="M94.7273 308.711C94.8273 308.211 94.7273 307.611 94.3273 307.411C94.4273 307.311 94.4273 307.211 94.3273 307.211C93.9273 307.111 93.5273 307.311 93.3273 307.811C93.1273 308.411 93.7273 308.911 94.3273 309.011C94.4273 309.011 94.6273 309.011 94.7273 308.711Z" fill="#35611A"/>
<path d="M114.227 317.311C114.127 317.511 114.427 317.611 114.527 317.511C114.627 317.311 114.827 317.211 114.927 317.211C114.527 317.711 114.527 318.511 114.827 319.111C114.927 319.211 115.027 319.311 115.227 319.311C116.327 319.111 116.927 318.111 116.227 317.111C115.627 316.311 114.527 316.411 114.227 317.311ZM115.627 317.411C116.027 317.911 115.727 318.211 115.327 318.411C115.227 318.011 115.327 317.711 115.427 317.311C115.527 317.311 115.627 317.411 115.627 317.411Z" fill="#35611A"/>
<path d="M114.327 325.011C114.027 324.711 113.627 324.811 113.327 324.911C113.227 324.911 113.227 325.011 113.227 325.111C113.027 325.211 112.827 325.311 112.627 325.511C112.427 325.711 112.427 326.011 112.627 326.111C113.227 326.611 114.227 326.811 114.527 325.911C114.727 325.611 114.627 325.311 114.327 325.011ZM113.627 325.711C113.727 325.711 113.727 325.611 113.827 325.611C113.827 325.711 113.927 325.711 113.927 325.711C113.827 325.811 113.727 325.811 113.627 325.711Z" fill="#35611A"/>
<path d="M115.127 332.311C114.027 332.511 112.927 333.411 113.327 334.611C113.827 335.911 115.627 336.411 116.727 335.711C117.627 335.111 117.827 333.911 117.527 332.911C117.327 332.411 116.927 332.011 116.527 331.911C116.127 331.811 115.327 331.811 115.127 332.311ZM116.527 333.211C116.727 333.711 116.627 334.311 116.327 334.711C115.827 335.311 114.927 335.011 114.527 334.511C114.327 334.311 114.427 333.911 114.527 333.711C114.827 333.211 115.327 333.011 115.827 333.011H115.927C116.127 332.811 116.327 332.911 116.527 333.211Z" fill="#35611A"/>
<path d="M112.227 330.411C112.027 330.811 112.527 331.111 112.727 331.211C113.027 331.311 113.427 331.411 113.627 331.211C113.927 330.911 113.827 330.211 113.427 330.011C113.327 330.011 113.227 330.011 113.227 330.111C113.227 330.211 113.227 330.211 113.227 330.311C112.827 330.211 112.427 330.011 112.227 330.411ZM113.127 330.711H113.027C113.027 330.711 113.027 330.711 112.927 330.711C113.027 330.711 113.027 330.711 113.127 330.711C113.127 330.611 113.127 330.611 113.127 330.711Z" fill="#35611A"/>
<path d="M108.427 330.911C108.227 331.711 109.227 332.611 110.027 332.211C110.627 331.911 110.627 331.011 110.427 330.511C110.327 330.211 110.027 330.011 109.727 330.011C109.027 329.611 108.527 330.411 108.427 330.911ZM109.627 330.711C109.827 330.911 109.727 331.211 109.627 331.411C109.527 331.711 109.127 331.211 109.027 331.111C109.027 330.911 109.027 330.811 109.127 330.611C109.327 330.611 109.527 330.611 109.627 330.711Z" fill="#35611A"/>
<path d="M110.627 336.511C110.427 335.611 109.627 335.211 109.027 335.511C108.027 335.311 107.327 336.511 107.327 337.411C107.227 338.711 108.227 340.111 109.627 339.611C110.627 339.211 110.927 337.511 110.627 336.511ZM108.227 337.611C108.227 337.211 108.227 336.711 108.527 336.411C109.027 336.211 109.427 336.111 109.627 336.711C109.827 337.211 109.727 338.011 109.327 338.511C108.627 339.111 108.227 338.111 108.227 337.611Z" fill="#35611A"/>
<path d="M112.327 335.411C112.227 335.411 112.227 335.611 112.327 335.611L112.427 335.711C112.027 335.811 111.627 336.111 111.527 336.611C111.427 337.511 112.527 338.111 113.327 337.911C114.927 337.611 113.827 334.911 112.327 335.411ZM113.127 336.411C113.227 336.611 113.427 337.011 113.227 337.111C113.027 337.311 112.427 337.011 112.327 336.711C112.127 336.411 112.527 336.211 112.927 336.111C113.027 336.211 113.027 336.311 113.127 336.411Z" fill="#35611A"/>
<path d="M91.7273 332.611C91.9273 332.411 91.7273 332.211 91.5273 332.211C91.1273 332.411 90.3273 332.811 90.6273 333.311C90.8273 333.711 91.4273 333.811 91.8273 333.811C92.2273 333.811 92.8273 333.711 93.0273 333.311C93.2273 332.811 92.7273 332.011 92.1273 332.111C92.0273 332.111 92.0273 332.211 92.0273 332.311C92.0273 332.511 92.1273 332.711 92.2273 332.811C92.3273 332.911 92.4273 333.011 92.4273 333.011C92.4273 333.011 92.4273 333.011 92.3273 333.111C92.2273 333.111 92.1273 333.211 91.9273 333.211C91.7273 333.211 91.4273 333.211 91.2273 333.111C91.2273 333.111 91.2273 333.111 91.2273 333.011C91.3273 332.911 91.5273 332.711 91.7273 332.611Z" fill="#35611A"/>
<path d="M89.3273 333.511C89.3273 333.011 88.8273 332.211 88.2273 332.111C88.2273 331.911 87.9273 331.711 87.6273 331.911C86.7273 332.611 85.9273 335.311 87.7273 335.211C88.8273 335.111 89.4273 334.511 89.3273 333.511ZM87.7273 334.411C87.1273 334.311 87.6273 333.311 87.9273 332.711C88.2273 332.911 88.5273 333.111 88.6273 333.511C88.7273 334.111 88.2273 334.511 87.7273 334.411Z" fill="#35611A"/>
<path d="M85.4273 330.911C85.5273 330.511 85.2273 330.211 84.9273 330.011H84.8273C84.9273 329.811 84.5273 329.511 84.3273 329.811C83.8273 330.411 83.8273 331.211 84.7273 331.311C84.9273 331.311 85.3273 331.211 85.4273 330.911ZM84.5273 330.411C84.6273 330.511 84.7273 330.611 84.8273 330.711C84.8273 330.711 84.8273 330.711 84.7273 330.711C84.5273 330.711 84.5273 330.611 84.5273 330.411Z" fill="#35611A"/>
<path d="M95.9272 325.611C95.7272 325.311 95.4272 325.011 95.0272 324.911C94.6272 324.811 94.1272 324.911 93.9272 325.311C93.9272 325.411 93.9272 325.511 94.0272 325.511C94.1272 325.611 94.3272 325.611 94.4272 325.611C93.8272 326.011 93.3272 326.711 93.5272 327.411C93.8272 328.311 95.1272 328.311 95.7272 327.711C96.3272 327.211 96.3272 326.311 95.9272 325.611ZM95.3272 327.111C95.1272 327.411 94.4272 327.611 94.2272 327.211C94.1272 326.711 94.4272 326.211 94.8272 325.911V325.811C94.9272 325.811 95.0272 325.911 95.1272 326.011C95.5272 326.311 95.5272 326.811 95.3272 327.111Z" fill="#35611A"/>
<path d="M112.927 310.511C112.827 310.511 112.627 310.611 112.627 310.711C112.427 310.911 112.627 311.311 112.727 311.511C113.027 311.911 113.427 312.411 113.927 312.111C114.327 311.911 114.527 311.411 114.427 310.911C114.227 310.211 113.427 310.211 112.927 310.411V310.511ZM113.727 311.411C113.627 311.511 113.627 311.511 113.527 311.411C113.427 311.311 113.227 311.111 113.127 311.011C113.127 310.911 113.227 310.911 113.327 310.811C113.627 310.911 113.927 311.111 113.727 311.411Z" fill="#35611A"/>
<path d="M107.127 302.011C106.927 302.011 106.827 302.111 106.727 302.211C106.627 302.211 106.627 302.311 106.527 302.411C106.427 302.511 106.427 302.411 106.527 302.511C106.227 302.411 105.927 302.811 106.227 303.011C106.727 303.411 107.527 303.711 108.027 303.211C108.627 302.511 107.627 301.911 107.127 302.011ZM107.027 302.611C107.127 302.611 107.127 302.611 107.027 302.611C107.127 302.511 107.127 302.411 107.227 302.411C107.327 302.611 107.527 302.711 107.527 302.711C107.527 302.811 107.327 302.711 107.027 302.611Z" fill="#35611A"/>
<path d="M117.627 312.611C117.627 312.611 117.527 312.611 117.527 312.711C117.127 313.011 117.027 313.711 117.327 314.111C117.827 314.811 118.727 315.211 119.427 314.711C120.027 314.311 120.127 313.511 119.827 312.911C119.427 312.111 118.427 312.011 117.627 312.311C117.527 312.411 117.527 312.511 117.627 312.611ZM118.927 313.211C119.027 313.411 119.027 313.711 118.927 313.811C118.827 314.011 118.627 314.111 118.427 313.911C118.127 313.811 117.827 313.511 118.127 313.211C118.227 313.111 118.427 312.911 118.527 312.811C118.727 313.011 118.827 313.011 118.927 313.211Z" fill="#35611A"/>
<path d="M120.727 321.811C120.827 322.311 120.927 322.611 121.427 322.911C121.627 323.011 121.827 323.011 121.927 322.811C122.027 322.411 121.827 322.211 121.627 322.011C121.727 321.911 121.727 321.711 121.627 321.511C121.527 321.411 121.427 321.311 121.327 321.311C121.227 321.311 121.127 321.411 120.927 321.411C120.827 321.411 120.727 321.611 120.727 321.811Z" fill="#35611A"/>
<path d="M119.127 325.011C119.227 325.011 119.327 325.011 119.427 325.011C119.127 325.211 119.027 325.511 119.027 326.011C119.127 326.711 119.827 327.311 120.527 327.211C121.427 327.111 121.927 326.211 121.427 325.411C121.027 324.711 119.827 324.111 119.027 324.811C119.027 324.811 119.027 325.011 119.127 325.011ZM120.727 325.511C121.127 325.911 121.127 326.411 120.527 326.511C120.227 326.511 119.927 326.211 119.727 325.911C119.527 325.511 120.027 325.311 120.427 325.311C120.427 325.311 120.627 325.411 120.727 325.511Z" fill="#35611A"/>
<path d="M118.727 317.611C119.027 317.911 120.027 318.711 119.727 319.211C119.727 319.311 119.427 319.211 119.327 319.211C119.227 319.211 119.027 319.111 118.927 319.111H118.827C118.927 318.911 119.227 318.711 119.327 318.711C119.527 318.711 119.527 318.411 119.327 318.411C118.927 318.411 118.227 318.511 118.127 319.011C117.927 319.811 119.327 320.011 119.827 320.011C120.527 319.911 120.627 319.211 120.427 318.711C120.227 318.111 119.627 317.511 118.927 317.511C118.727 317.411 118.627 317.511 118.727 317.611Z" fill="#35611A"/>
</g>
<g opacity="0.5">
<path d="M120.999 105.295C116.474 107.337 111.472 110.92 109.894 115.82C109.816 116.029 110.094 116.18 110.24 116.043C113.189 112.463 115.633 109.219 119.597 107.017C116.2 111.29 110.028 113.914 110.39 120.01C110.381 120.293 110.805 120.307 110.815 120.025C110.822 113.445 119.027 111.384 121.473 105.947C121.696 105.601 121.359 105.095 120.999 105.295Z" fill="#35611A"/>
<path d="M95.9219 72.3371C96.0491 72.7659 96.2493 73.1263 96.3082 73.482C96.2399 73.409 96.1033 73.2629 96.108 73.1216C95.1305 70.6127 94.2213 68.1769 93.1025 65.6632C93.1755 65.5949 93.2486 65.5266 93.2533 65.3853C90.0876 58.4876 94.0103 49.0673 95.377 42.0379C96.5693 35.9932 97.7028 29.5928 95.3521 23.7128C95.2249 23.284 94.6595 23.2652 94.504 23.6845C90.9534 34.6737 88.3402 47.2507 90.5752 58.7161C90.6341 59.0718 91.1311 59.0177 91.2819 58.7397C91.2441 59.8704 91.2794 60.9329 91.5291 61.9317C91.1334 61.0695 90.806 60.2803 90.4103 59.4181C90.4833 59.3498 90.488 59.2084 90.4927 59.0671C89.7743 57.2744 88.8368 55.6866 87.7533 54.2354C87.4895 53.6606 87.0843 53.0811 86.8205 52.5062C84.4395 41.1775 88.2258 27.3661 78.8882 18.8474C78.615 18.5553 78.0402 18.8191 78.0991 19.1748C79.4648 29.1254 81.5279 39.3823 85.4614 48.7111C85.4567 48.8525 85.6664 48.9302 85.7347 49.0032C85.8524 49.7147 85.9702 50.4261 86.088 51.1375C85.7558 50.4897 85.4237 49.8418 85.0186 49.2623C84.8867 48.9749 84.6864 48.6145 84.4132 48.3224C82.4303 35.6627 66.66 14.2649 52.3322 19.588C52.0448 19.7199 52.1037 20.0757 52.3864 20.0851C53.8775 19.9226 55.364 19.9015 56.7727 20.09C56.841 20.1631 56.841 20.1631 56.9093 20.2361C67.3802 26.5994 76.2182 37.3655 82.8726 47.8464C76.4229 41.8296 68.6776 36.477 66.0703 27.6877C66.0115 27.332 65.5097 27.5275 65.5002 27.8102C67.1629 37.3462 77.0919 42.9839 83.6098 49.0738C83.7417 49.3612 83.9467 49.5803 84.0786 49.8677C77.8528 43.5046 69.0073 39.318 61.2054 35.6615C60.8591 35.4377 60.4892 35.9206 60.7624 36.2128C69.0471 44.4841 78.6273 52.0912 88.7519 58.2307C90.4078 61.6113 91.9906 65.0601 93.5005 68.5773C89.7222 63.0741 83.8802 60.0491 77.5364 57.2195C77.1171 57.064 76.7472 57.5469 77.0888 57.9121C82.0566 63.8087 89.5312 66.676 94.7229 72.2263C94.8595 72.3724 94.9231 72.5868 95.0597 72.7328C97.0736 78.1063 98.873 83.5434 100.458 89.0441C100.322 88.898 100.185 88.752 100.048 88.6059C96.2233 76.0262 77.8559 73.0782 67.5876 69.1272C66.8903 68.8209 66.2613 68.5876 65.6371 68.213C63.7102 66.5922 61.7103 65.0397 59.4913 63.6921C59.2133 63.5413 58.9165 63.9559 59.1214 64.175C60.351 65.4895 61.7997 66.5992 63.2531 67.5675C63.1071 67.7041 63.0293 67.9137 63.239 67.9915C65.7029 70.4792 68.4637 72.5524 71.4436 74.4206C73.0195 75.959 74.5271 77.4243 76.1077 78.8214C79.1323 81.4693 82.4537 83.7027 86.1403 85.5946C90.3098 87.8563 95.768 87.5433 99.7137 90.1512C99.782 90.2243 99.9186 90.3703 99.9917 90.302C100.338 90.5258 100.753 90.8227 101.094 91.1878C101.535 92.8298 102.043 94.5448 102.484 96.1867C103.614 100.469 104.603 104.748 105.593 109.026C105.588 109.167 105.583 109.308 105.578 109.45C105.574 109.591 105.71 109.737 105.779 109.81C105.906 110.239 105.965 110.594 106.092 111.023C102.429 104.18 96.4577 98.674 89.4213 95.3969C84.1941 93.0291 74.901 89.5351 70.1398 94.3994C69.9208 94.6043 70.0479 95.0331 70.3259 95.1839C71.6474 95.8647 72.6132 96.6045 73.36 97.5491C73.3552 97.6905 73.4235 97.7635 73.5649 97.7682C75.2632 99.8767 76.0947 102.522 77.8519 104.986C79.3406 107.017 82.4029 108.534 84.6456 109.175C87.8681 110.132 90.8269 110.514 94.2285 110.344C96.9235 110.151 99.6915 109.89 102.075 110.535C95.5784 110.177 86.6969 117.663 80.6475 116.612C80.1552 116.525 79.9902 117.227 80.4779 117.455C80.6875 117.533 80.8289 117.538 81.0385 117.616C81.0385 117.616 81.1068 117.689 81.1799 117.62C85.7428 118.692 90.3766 117.644 94.9278 116.947C98.8407 116.3 101.896 115.906 105.135 114.246C105.814 115.117 106.492 115.989 106.956 116.924C107.024 116.997 107.093 117.07 107.234 117.075C107.142 117.709 107.05 118.342 107.027 119.049C107.013 119.473 107.437 119.487 107.724 119.355C108.979 126.26 110.02 133.228 110.778 140.187C107.695 132.938 102.312 126.745 96.7603 121.395C96.4871 121.103 95.8393 121.435 96.0395 121.795C97.7401 125.956 99.6645 129.77 102.305 133.325C104.472 136.227 107.004 138.788 109.03 141.685C103.933 137.553 93.5982 135.581 90.47 131.797C90.1968 131.505 89.695 131.701 89.8953 132.061C91.2637 135.574 93.4308 138.476 96.5426 140.632C100.415 143.308 107.796 144.757 110.7 148.887C110.691 149.17 110.613 149.379 110.603 149.662C110.521 150.013 111.145 150.387 111.301 149.968C111.496 150.47 111.692 150.972 111.814 151.542C111.984 154.943 112.153 158.345 112.108 161.81C111.844 169.726 111.292 177.773 110.599 185.815C110.594 185.956 110.663 186.029 110.736 185.961C110.726 186.244 110.717 186.526 110.639 186.736C110.634 186.877 110.844 186.955 110.922 186.746C111.009 186.253 111.028 185.688 111.115 185.195C112.404 178.376 113.205 171.327 113.583 164.265C113.583 164.265 113.656 164.197 113.587 164.124C113.616 163.276 113.712 162.501 113.877 161.799C114.339 160.682 114.732 159.492 115.194 158.376C116.021 156.918 116.985 155.606 118.158 154.371C118.231 154.303 118.304 154.235 118.377 154.166C121.166 151.147 124.648 148.574 127.35 146.047C131.44 142.221 135.44 136.836 137.389 131.454C138.171 129.216 138.967 126.554 138.551 124.205C138.379 122.997 137.988 121.993 137.455 120.985C137.392 120.77 137.25 120.766 137.109 120.761C137.187 120.551 137.196 120.269 136.987 120.191C136.918 120.118 136.85 120.045 136.782 119.972C136.299 119.602 135.573 120.144 135.91 120.65C136.047 120.796 136.11 121.011 136.247 121.157C134.435 122.44 131.462 126.728 131.238 127.074C125.749 134.673 120.714 143.49 118.078 152.529C117.849 153.017 117.553 153.431 117.324 153.919C117.032 154.192 116.808 154.539 116.516 154.812C119.247 147.191 121.763 139.634 124.143 131.931C126.037 126.051 129.423 115.764 124.29 110.57C124.017 110.277 123.515 110.473 123.432 110.824C120.193 120.974 115.005 132.263 113.214 143.523C112.536 134.161 111.215 124.99 109.178 116.079C109.114 115.864 108.685 115.992 108.749 116.206C110.635 125.396 111.532 134.552 111.937 143.622C111.81 143.193 111.683 142.764 111.555 142.336C110.698 134.1 109.486 125.923 107.99 117.737C108.077 117.245 108.233 116.825 108.32 116.333C108.461 116.338 108.539 116.128 108.544 115.987C108.476 115.914 108.549 115.845 108.549 115.845C109.701 113.125 112.233 111.44 113.951 108.739C115.444 106.383 116.66 103.877 117.807 101.297C119.791 96.9768 121.233 91.9309 119.332 87.4102C119.132 87.0498 118.498 86.9579 118.484 87.3819C117.115 96.6045 109.397 103.139 107.969 112.006C107.658 112.844 107.562 113.619 107.533 114.467C107.47 114.253 107.401 114.18 107.338 113.966C107.277 111.558 106.928 109.282 106.794 106.943C107.206 105.188 107.336 103.424 107.539 101.591C108.345 98.6464 109.779 95.935 110.863 93.1412C113.41 86.788 116.444 80.6633 118.431 74.1499C118.513 73.7989 118.103 73.3607 117.743 73.5609C107.342 77.8124 106.258 89.0962 105.904 99.6969C105.466 95.8618 104.604 92.0125 103.386 88.2221C103.459 88.1538 103.459 88.1538 103.464 88.0124C101.926 81.0983 105.213 73.7793 110.798 69.65C111.159 69.4498 111.041 68.7384 110.544 68.7925C104.16 69.2869 100.662 74.4764 100.468 80.2714C100.273 79.7696 100.009 79.1948 99.8132 78.693C99.8368 77.9863 99.8557 77.421 99.8793 76.7143C99.8887 76.4316 99.9665 76.2219 100.049 75.8709C100.108 76.2266 100.167 76.5823 100.367 76.9428C100.499 77.2302 100.928 77.103 100.796 76.8156C100.537 76.0994 100.419 75.388 100.374 74.6083C103.442 63.2492 114.25 53.139 110.006 40.4038C109.879 39.9751 109.245 39.8831 109.09 40.3025C106.524 47.2211 102.354 53.4493 100.066 60.5187C98.4924 65.2772 98.3861 70.5799 98.5672 75.7507C97.5803 73.5245 96.5887 71.4397 95.6017 69.2134C95.4298 68.005 95.3992 66.8012 95.5831 65.5338C95.7197 65.6799 95.9341 65.6163 95.8705 65.4019C95.9671 64.6269 95.9907 63.9201 95.946 63.1404C97.0181 58.5774 99.089 53.7648 98.0315 49.4138C97.9679 49.1994 97.6852 49.19 97.5392 49.3266C93.7227 53.4442 92.6034 59.4206 93.5501 64.9707C93.218 64.3228 92.9589 63.6067 92.6268 62.9589C92.5585 62.8858 92.4171 62.8811 92.4124 63.0224C93.0578 64.8835 93.7079 66.6032 94.4263 68.3959C94.4899 68.6103 94.5582 68.6834 94.6218 68.8977C94.6218 68.8977 94.6218 68.8977 94.6901 68.9708C94.9539 69.5456 95.0764 70.1156 95.3402 70.6904C95.5898 71.6893 95.79 72.0497 95.9219 72.3371ZM92.4893 35.291C92.9063 33.3946 95.6723 26.8365 95.0175 25.2581C96.4543 28.8436 95.8745 33.4937 95.3278 37.1545C94.5831 42.5066 93.4191 47.7033 92.1821 52.9682C91.7697 54.7232 91.3574 56.4782 91.2961 58.3157C90.9219 50.4499 91.099 43.0271 92.4893 35.291ZM81.0996 31.0195C80.6639 29.2362 80.0754 21.434 79.1826 20.626C81.5194 22.685 82.6193 25.7639 83.4413 28.6921C84.9534 34.2611 84.8282 40.1292 85.2732 45.8748C83.8835 40.8759 82.3479 36.0137 81.0996 31.0195ZM136.501 122.014C140.901 130.085 131.4 141.3 125.85 146.492C123.951 148.268 121.623 150.171 119.359 152.289C119.51 152.011 119.593 151.66 119.743 151.382C122.498 147.3 125.803 143.66 128.069 139.349C128.22 139.071 127.805 138.775 127.586 138.98C125.454 141.385 123.527 144.009 121.737 146.779C125.777 138.07 130.852 130.174 136.501 122.014ZM98.5528 124.922C100.607 126.971 102.442 129.226 104.209 131.407C107.264 135.259 109.315 139.502 111.075 144.018C111.065 144.3 111.124 144.656 111.115 144.939C110.919 144.437 110.656 143.862 110.46 143.36C108.491 138.767 105.085 134.832 102.395 130.639C102.263 130.352 101.756 130.688 101.961 130.908C102.63 132.062 103.304 133.075 104.046 134.161C102.211 131.906 100.381 129.511 99.0522 126.919C96.9181 123.027 96.772 123.164 98.5528 124.922ZM106.705 145.64C104.408 144.503 102.024 143.857 99.8005 142.651C95.353 140.238 93.5699 136.429 90.3451 133.42C95.5604 138.264 108.331 139.327 110.352 146.611C107.916 143.275 103.24 141.351 99.4425 140.658C99.0915 140.575 99.0043 141.068 99.3553 141.15C103.499 142.067 106.966 144.163 109.48 147.29C108.724 146.628 107.821 146.102 106.705 145.64ZM122.805 116.887C122.878 116.819 124.097 112.12 124.775 112.991C125.922 114.657 125.842 117.06 125.849 118.97C125.846 125.408 123.363 131.976 121.254 137.919C118.912 144.491 116.994 151.078 114.862 157.728C114.414 158.421 114.108 159.118 113.797 159.956C113.807 159.674 113.748 159.318 113.83 158.967C116.549 149.577 119.565 139.773 121.231 130.136C121.24 129.853 120.89 129.771 120.739 130.049C118.18 138.878 115.47 147.985 113.823 157.057C113.769 156.56 113.856 156.067 113.802 155.57C114.665 146.684 115.718 138.442 118.555 129.764C119.832 125.42 121.319 121.154 122.805 116.887ZM112.154 145.61C112.175 147.097 112.196 148.583 112.217 150.069C112.055 148.578 112.033 147.092 111.871 145.601C112.012 145.605 112.012 145.605 112.154 145.61ZM96.963 75.0604C97.5448 76.7071 98.2679 78.3585 98.8497 80.0051C98.8355 80.4292 98.8944 80.7849 98.8803 81.2089C98.2443 79.0652 97.467 76.9167 96.7581 74.8413C96.8264 74.9143 96.8264 74.9143 96.8947 74.9874L96.963 75.0604ZM58.8057 20.6532C70.822 23.1061 80.1053 35.3728 83.5346 47.0903C77.3584 37.1206 68.7158 26.8563 58.8057 20.6532ZM76.1234 48.6824C73.7772 46.906 71.5723 45.1344 69.3722 43.2215C67.3087 41.4546 64.9367 38.3331 62.5669 37.2635C71.3488 41.2357 80.7313 46.2892 86.5542 54.1246C86.6178 54.339 86.8227 54.5581 86.8863 54.7725C86.9452 55.1282 87.0771 55.4156 87.2043 55.8443C87.1996 55.9857 87.3409 55.9904 87.414 55.9221C87.6778 56.4969 88.0829 57.0764 88.3467 57.6512C84.4152 54.6192 80.1963 51.7191 76.1234 48.6824ZM79.0298 59.1089C81.1216 60.0277 83.2087 61.0879 85.2228 62.2164C88.4854 64.0941 90.8763 66.6502 92.9704 69.6208C90.7797 67.4252 88.2238 65.5711 85.6633 63.8584C85.4536 63.7806 85.3806 63.8489 85.3028 64.0586C84.059 63.1681 82.7422 62.3459 81.5715 61.387C81.9131 61.7522 77.9863 58.5788 79.0298 59.1089ZM77.7004 73.4975C85.3352 75.8042 93.6153 79.9719 98.0531 86.912C94.8141 84.3277 90.9084 82.6408 86.998 81.0952C81.2738 78.7816 75.9052 76.4091 70.8477 73.198C69.6817 72.0978 68.5156 70.9976 67.4179 69.9705C70.5533 71.4194 74.1999 72.3902 77.7004 73.4975ZM65.0481 68.9009C65.1848 69.0469 65.3944 69.1247 65.531 69.2708C66.0822 69.7137 66.5604 70.2249 67.18 70.7408C66.2825 70.0741 65.5263 69.4121 64.7019 68.6771C64.7702 68.7501 64.9115 68.7548 65.0481 68.9009ZM83.1016 83.3706C79.7024 81.3469 76.7461 78.7719 73.7945 76.0556C75.8086 77.1841 78.0371 78.249 80.1289 79.1679C86.3996 82.0657 93.634 83.6515 98.854 88.3538C98.9859 88.6412 99.1178 88.9286 99.2497 89.216C98.6254 88.8414 97.9281 88.5351 97.0165 88.2924C92.112 86.8552 87.6079 86.1388 83.1016 83.3706ZM102.686 94.354C102.564 93.7839 102.373 93.1408 102.178 92.639C102.387 92.7167 102.679 92.4435 102.474 92.2244C102.27 92.0053 102.065 91.7862 101.933 91.4988C101.429 89.6425 100.925 87.7862 100.416 86.0712C100.489 86.0029 100.421 85.9298 100.494 85.8615C100.176 84.7897 99.9308 83.6495 99.8955 82.5871C102.359 89.3198 104.54 96.0431 105.854 103.304C105.744 104.503 105.774 105.706 105.946 106.915C105.941 107.056 105.937 107.198 105.937 107.198C104.806 102.915 103.817 98.6367 102.686 94.354ZM105.442 113.548C105.373 113.475 105.373 113.475 105.373 113.475C105.442 113.548 105.442 113.548 105.442 113.548ZM77.3861 93.5093C81.2753 93.5684 85.3954 95.1917 88.9548 96.6548C95.9323 99.5763 101.767 104.936 105.366 111.565C105.225 111.56 105.225 111.56 105.084 111.556C104.396 110.967 103.63 110.587 102.792 110.276C99.3029 106.693 95.0015 104.144 90.1253 101.859C85.6684 99.7288 79.5485 96.553 74.3493 97.5822C74.1444 97.3631 74.0125 97.0757 73.7392 96.7836C73.3294 96.3454 72.8512 95.8342 72.3636 95.6056C69.8571 94.39 76.465 93.5493 77.3861 93.5093ZM83.0555 108.061C78.1699 106.058 77.1029 101.99 74.8228 98.2348C83.8829 98.1127 93.6894 103.18 100.686 109.781C99.4182 109.598 98.1461 109.555 96.7963 109.722C91.9082 109.913 87.7315 109.986 83.0555 108.061ZM88.8218 117.592C87.6133 117.764 86.3365 117.863 85.1327 117.894C84.9914 117.889 84.85 117.884 84.7087 117.88C85.0644 117.821 85.3518 117.689 85.7075 117.63C90.8478 116.245 97.5925 111.305 102.93 112.474C102.643 112.606 102.356 112.738 102.141 112.802C100.056 113.793 98.1082 114.931 95.6959 115.133C95.3402 115.192 95.3943 115.689 95.677 115.699C97.5192 115.619 99.1659 115.037 100.817 114.314C101.821 113.923 102.824 113.532 103.896 113.214C104.169 113.506 104.511 113.871 104.711 114.232C99.7524 116.542 94.2258 116.782 88.8218 117.592ZM105.91 114.342C105.983 114.274 106.056 114.206 106.198 114.211C106.334 114.357 106.471 114.503 106.676 114.722L106.744 114.795C106.867 115.365 106.921 115.862 107.043 116.432C106.716 115.643 106.315 114.922 105.91 114.342ZM107.628 115.885C107.696 115.958 107.696 115.959 107.837 115.963C107.764 116.032 107.759 116.173 107.686 116.241C107.618 116.168 107.623 116.027 107.628 115.885ZM118.227 92.9626C118.616 91.9143 118.936 90.793 119.184 89.74C119.839 87.0734 119.219 95.0474 119.315 94.2724C118.717 99.4879 115.605 105.822 112.285 109.886C110.956 111.539 109.564 112.979 108.523 114.5C108.542 113.935 108.634 113.301 108.652 112.736C109.192 111.41 109.941 110.161 110.617 108.981C111.444 107.523 112.928 105.45 112.702 103.744C112.707 103.603 112.57 103.457 112.361 103.379C113.261 101.853 114.229 100.399 115.202 98.8046C116.321 97.0732 117.518 95.1321 118.227 92.9626ZM109.623 109.089C110.167 107.622 110.853 106.159 111.607 104.769C110.99 106.305 110.377 107.7 109.623 109.089ZM115.528 76.317C117.877 75.9001 117.976 77.1769 115.688 80.0013C114.989 81.8882 114.147 83.7704 113.306 85.6525C111.697 89.3486 110.156 93.1176 108.62 96.7454C108.314 97.4426 108.081 98.0716 107.848 98.7005C107.857 98.4179 107.871 97.9938 107.881 97.7112C109.353 93.8691 111.318 90.1141 111.737 86.0246C111.829 85.391 110.845 85.2166 110.753 85.8503C110.289 89.16 109.054 92.2318 107.961 95.3083C107.992 88.0221 108.656 80.8278 115.528 76.317ZM109.434 70.2412C104.994 73.9842 101.964 79.9676 102.619 85.791C102.291 85.0018 102.037 84.1443 101.778 83.4281C101.684 77.765 103.05 70.7356 109.434 70.2412ZM110.331 47.6312C110.333 49.683 109.838 51.789 109.28 53.6806C107.357 60.4084 102.836 66.5542 100.563 73.1995C100.909 69.1784 103.088 65.3599 104.483 61.7274C106.948 55.7252 108.929 49.3531 109.638 42.9385C109.916 43.0893 110.291 46.7101 110.331 47.6312ZM104.173 54.0761C105.539 51.2917 107.12 48.4437 108.418 45.5863C106.992 52.26 104.938 58.7004 102.25 65.0489C101.482 66.8627 100.782 68.7496 100.37 70.5046C100.622 65.0653 101.503 59.8592 104.173 54.0761ZM95.2467 56.5373C95.4305 55.2699 95.9653 54.085 96.5684 52.9732C96.87 52.4172 97.916 50.7542 97.9324 52.382C97.9441 54.1511 97.6001 55.9791 97.2608 57.6658C96.9309 59.0698 96.528 60.5421 96.1251 62.0144C96.0215 60.8789 95.9179 59.7435 95.6682 58.7446C95.6094 58.3889 95.0393 58.5114 95.0981 58.8671C95.3878 60.787 95.3217 62.7658 95.47 64.681C95.3828 65.1734 95.2957 65.6657 95.2085 66.158C94.9613 62.966 94.6411 59.8423 95.2467 56.5373Z" fill="#35611A"/>
</g>
</svg>
