<svg width="110" height="344" viewBox="0 0 110 344" fill="none" xmlns="http://www.w3.org/2000/svg">
<g opacity="0.5">
<path d="M90.9407 13.2067C95.3619 7.36769 101.5 1.09254 109.273 1.98336C109.472 1.99083 109.661 2.29809 109.554 2.49422C105.199 9.23632 96.8208 16.5286 88.4967 17.0181C88.3968 17.0144 88.3968 17.0144 88.3968 17.0144C86.6308 18.7496 84.8648 20.4849 83.2911 22.4275L83.3873 22.5311C87.108 19.3679 94.7205 21.8539 97.8212 24.5715C97.9174 24.6752 97.9062 24.975 97.7026 25.0674C93.1311 26.898 87.4313 26.7851 83.5498 23.5379C83.2426 23.7266 82.8354 23.9115 82.4282 24.0964C82.2246 24.1889 82.0322 23.9816 82.1396 23.7855C82.3507 23.4931 82.5617 23.2008 82.8727 22.9122L82.7765 22.8086C80.8956 24.9398 79.1109 27.1747 77.4187 29.6132C80.9611 28.5448 85.5794 30.8188 87.2698 33.784C87.3623 33.9876 87.2586 34.0838 87.055 34.1762C83.4202 35.0411 78.8346 34.5696 76.4447 31.5782C76.256 31.271 76.567 30.9824 76.8593 31.1934C78.1099 32.5411 79.7863 33.2041 81.4701 33.6673C82.462 33.9045 83.5575 34.0455 84.6604 33.9867C85.9595 34.0352 86.9626 33.9726 85.8045 32.8286C83.2072 30.0297 79.7022 30.0988 76.4633 31.0786C76.4633 31.0786 76.4596 31.1785 76.3597 31.1748C76.256 31.271 76.1486 31.4671 76.0449 31.5633C76.1374 31.7669 76.0337 31.8631 75.8339 31.8556C75.7265 32.0517 75.6191 32.2479 75.5154 32.3441C74.4563 33.9056 73.4935 35.5708 72.6269 37.3397C72.6045 37.9393 72.4858 38.4352 72.2673 38.9274C78.1865 35.8463 85.5132 40.6231 89.7608 44.7847C89.9532 44.992 89.8458 45.1881 89.6385 45.3805C83.6969 49.0612 76.0442 44.9726 71.2895 40.9923C71.0971 40.785 71.4119 40.3964 71.6043 40.6038C75.8929 43.666 81.2771 46.8693 86.7144 45.9717C91.2486 45.1405 84.1805 41.474 82.7077 40.7185C78.689 38.4668 74.9692 38.9283 70.916 40.2779C70.053 41.9468 69.1939 43.5158 68.3309 45.1848C68.5159 45.5919 68.5971 46.0953 68.5784 46.595C68.5672 46.8948 68.1675 46.8798 68.0751 46.6762C67.9826 46.4727 67.8864 46.369 67.7939 46.1654C64.6869 51.6532 61.0951 56.7226 55.2833 59.6076C55.0797 59.7001 54.891 59.3928 55.0984 59.2004C60.3255 55.8933 63.9098 51.0237 67.0057 45.8357C64.5298 45.1428 62.3762 43.8615 61.2666 41.4184C61.1779 41.1148 61.289 40.8188 61.6888 40.8337C63.9946 40.7197 66.7441 42.1234 67.9648 44.2705C68.9277 42.6052 69.7906 40.9363 70.6535 39.2674C67.2418 36.8383 66.3218 32.0006 65.6643 28.1733C65.6717 27.9735 65.7829 27.6774 65.9865 27.5849C70.3059 27.1459 72.34 31.625 72.4867 35.7333C73.2423 34.2605 74.0977 32.7914 74.9494 31.4223C74.8532 31.3186 74.757 31.2149 74.8607 31.1188C70.5319 26.4539 69.313 18.9031 73.1121 13.6413C73.3232 13.349 73.9227 13.3714 73.9078 13.7711C74.6242 18.7013 76.8358 23.7874 76.5455 28.8801C76.8602 28.4916 77.0787 27.9994 77.3935 27.6109C78.4525 26.0494 79.604 24.6914 80.8592 23.2373C80.8704 22.9375 80.9815 22.6414 80.9927 22.3416C80.4612 17.8186 80.5816 11.919 85.3567 9.99594C85.6603 9.90721 85.9526 10.1183 85.8414 10.4144C84.9076 13.982 83.8477 18.2454 82.1181 21.6832C85.0356 18.59 87.942 15.7965 90.9407 13.2067ZM90.4852 25.3982C91.7806 25.5467 93.1833 25.499 94.4936 25.2478C95.1969 25.174 97.5065 24.9601 96.2372 24.1121C94.1873 22.7346 91.6077 22.1378 89.2131 21.9483C87.2183 21.7737 85.597 22.3135 83.9682 23.0532C85.9145 24.5269 88.1943 25.1124 90.4852 25.3982ZM65.9111 42.9929C64.9454 42.0562 63.7612 41.6116 62.4621 41.5631C63.4941 43.4029 65.3554 44.4732 67.3279 45.2474C67.3279 45.2474 67.3279 45.2474 67.3316 45.1474C67.058 44.4367 66.6881 43.6223 65.9111 42.9929ZM66.8597 28.318C67.4285 31.8417 68.271 36.0762 71.1793 38.5865C71.1793 38.5865 71.183 38.4866 71.2829 38.4903C70.0436 36.8429 68.9229 34.6996 68.8939 32.7971C68.9014 32.5973 69.2049 32.5086 69.2973 32.7121C70.3368 34.3521 70.6693 36.1658 71.6089 37.802C71.7126 37.7058 71.7163 37.6059 71.8199 37.5097C71.5621 33.6974 71.1679 28.1788 66.8597 28.318ZM73.467 14.8554C70.5747 19.9509 72.1494 26.014 75.4827 30.5416C75.5864 30.4454 75.5863 30.4454 75.69 30.3492C75.7974 30.1531 75.9011 30.0569 76.0085 29.8607C75.5993 24.7419 74.4795 19.8967 73.467 14.8554ZM97.2568 7.53857C96.3238 8.40434 95.3871 9.37003 94.5503 10.3395C97.8489 7.76083 101.436 5.4932 105.02 3.32549C103.606 3.67294 102.395 3.92794 102.292 4.02414C100.359 4.85257 98.808 6.19556 97.2568 7.53857ZM108.44 2.85286C108.647 2.66047 107.744 2.7268 106.637 2.88558C106.633 2.98551 106.626 3.18537 106.422 3.27783C99.9811 6.93987 94.1095 11.4238 88.719 16.426C96.6508 15.7217 104.207 8.99911 108.44 2.85286ZM81.7781 20.0694C82.697 16.9015 84.1119 13.8522 85.2269 10.7917C82.258 12.5821 81.609 16.5606 81.7781 20.0694Z" fill="#35611A"/>
<path d="M80.0349 42.62C80.3272 42.831 80.0087 43.3195 79.7164 43.1084C78.5434 42.3641 77.4666 41.7234 76.0825 41.2714C74.6984 40.8194 73.2956 40.8671 71.9041 40.615C71.7042 40.6075 71.7192 40.2078 71.919 40.2152C74.6545 39.3168 77.8924 41.0389 80.0349 42.62Z" fill="#35611A"/>
</g>
<g opacity="0.5">
<path d="M15.0656 201.244C17.9656 211.844 31.3656 216.444 32.0656 227.644C32.0656 227.744 32.1656 227.844 32.2656 227.844C32.6656 230.744 33.1656 233.544 33.7656 236.344C34.8656 241.744 36.1656 247.144 37.5656 252.444C36.6656 250.744 35.6656 249.144 34.5656 247.644C31.6656 239.444 29.6656 230.544 24.7656 223.244C22.2656 219.644 18.8656 216.944 15.2656 214.644C11.3656 212.144 5.46558 210.944 2.16558 207.744C1.66558 207.244 0.965569 207.944 1.46557 208.444C0.465569 211.144 0.265576 213.944 0.565576 216.544C0.565576 216.544 0.565576 216.544 0.565576 216.644V216.744C1.26558 221.944 3.86558 226.844 7.16558 231.044C10.0656 234.844 13.6656 238.144 17.7656 240.644C24.0656 244.544 31.0656 246.144 35.9656 251.744C37.0656 253.444 38.0656 255.244 38.9656 257.144C40.5656 262.544 42.2656 267.944 44.3656 273.244C44.7656 274.244 45.1656 275.144 45.5656 276.044C46.3656 280.444 48.5656 284.044 51.1656 287.844C52.5656 290.544 54.0656 293.344 55.6656 296.044C52.6656 293.244 49.2656 290.744 46.1656 288.444C44.7656 287.444 43.3656 286.444 42.0656 285.444C43.8656 284.944 45.3656 283.944 46.1656 282.144C46.2656 281.844 46.1656 281.544 45.7656 281.444C43.2656 281.244 40.8656 281.844 38.5656 282.844C39.9656 281.044 41.2656 279.244 41.9656 277.144C42.0656 276.844 41.7656 276.544 41.4656 276.644C39.5656 277.144 38.1656 278.444 37.2656 280.144C37.6656 276.744 37.5656 272.444 34.0656 273.544C32.6656 274.044 32.4656 275.544 32.7656 277.344C31.9656 276.644 30.9656 276.244 29.9656 276.044C28.3656 274.644 26.8656 273.144 25.3656 271.544C26.0656 271.544 26.7656 271.444 27.2656 271.044C27.3656 271.144 27.4656 271.144 27.5656 271.144C29.1656 271.244 30.7656 270.244 31.9656 269.044C31.5656 270.544 31.3656 272.144 31.5656 273.744C31.5656 273.944 31.9656 274.044 32.0656 273.944C33.5656 272.144 33.5656 269.944 33.0656 267.844C33.1656 267.944 33.3656 267.944 33.3656 267.744C34.7656 269.244 35.8656 271.044 37.6656 272.144C37.8656 272.244 38.0656 272.144 38.1656 272.044C39.5656 269.244 37.1656 266.944 34.5656 266.544C36.6656 265.344 37.8656 262.844 39.0656 260.944C39.2656 260.644 38.8656 260.244 38.5656 260.444C36.9656 261.344 35.5656 262.444 34.3656 263.844C35.1656 261.844 35.5656 259.744 35.3656 257.444C35.3656 257.144 35.0656 256.944 34.7656 257.044C31.9656 258.544 31.2656 262.544 32.0656 265.644C31.5656 265.344 31.0656 264.944 30.6656 264.644C30.1656 264.344 29.6656 263.944 29.1656 263.544C28.3656 262.844 28.6656 262.444 29.4656 261.844C29.7656 261.644 29.5656 261.244 29.2656 261.244C27.9656 261.444 27.2656 262.544 28.1656 263.644C29.0656 264.844 30.4656 265.444 31.6656 266.244C29.8656 265.944 28.0656 265.044 26.3656 264.544C26.0656 264.444 25.8656 264.744 25.8656 264.944C25.7656 264.944 25.7656 264.944 25.6656 264.944C23.8656 265.044 22.5656 266.344 21.5656 267.844C21.6656 266.644 21.6656 265.444 21.3656 264.344C21.2656 264.044 21.1656 263.744 20.9656 263.544C22.3656 261.844 22.5656 259.944 22.1656 258.044C23.8656 260.344 26.1656 262.744 27.6656 260.544C29.5656 257.744 24.9656 255.744 22.3656 254.644C25.0656 253.744 27.7656 252.744 27.9656 249.544C27.9656 249.344 27.8656 249.144 27.6656 249.144C25.4656 248.644 23.7656 249.644 22.3656 251.144C22.3656 251.044 22.3656 250.944 22.4656 250.844C22.5656 250.444 23.2656 248.044 23.2656 247.944C23.4656 248.044 23.6656 247.944 23.5656 247.744C23.3656 246.544 22.3656 248.044 22.2656 248.444C22.1656 248.644 22.1656 248.844 22.0656 249.044C22.0656 248.944 22.0656 248.944 22.0656 248.844C21.9656 247.544 21.6656 245.544 20.1656 245.244C18.4656 244.844 17.0656 246.844 16.9656 248.244C16.9656 248.944 17.0656 249.544 17.2656 250.244C16.9656 250.144 16.6656 250.444 16.8656 250.744C17.2656 251.344 17.6656 251.744 18.1656 252.244C16.4656 251.544 14.7656 250.644 13.0656 249.744C12.7656 249.544 12.2656 249.744 12.3656 250.144C12.6656 252.544 14.5656 254.244 16.8656 254.844C14.9656 255.444 12.7656 256.644 13.6656 258.344C14.7656 260.244 17.4656 258.144 19.0656 256.644C19.0656 258.644 19.1656 260.644 19.7656 262.544C19.3656 262.444 18.8656 262.344 18.4656 262.644C17.9656 262.944 17.6656 263.444 17.6656 264.144C15.8656 262.744 13.6656 262.444 11.4656 262.544C12.4656 260.444 13.4656 258.344 13.5656 256.044C13.5656 255.644 13.0656 255.444 12.8656 255.744C12.3656 256.344 11.8656 257.044 11.4656 257.744C11.4656 255.644 11.1656 253.544 9.96557 251.644C9.76557 251.444 9.46557 251.344 9.26557 251.544C8.06557 252.944 7.46557 254.644 7.26557 256.444C6.76557 255.644 6.16558 254.944 5.56558 254.244C5.36558 254.044 4.96558 254.044 4.86558 254.344C3.36558 257.244 5.06558 259.944 7.06558 262.044C5.16558 261.744 3.16558 262.144 3.16558 264.444C3.16558 265.344 3.76558 266.044 4.66558 266.244C5.06558 266.344 5.36557 266.244 5.76557 266.144C5.26557 267.244 4.96558 268.544 4.86558 269.744C4.86558 269.944 4.96558 270.044 5.16558 270.044C7.16558 270.644 8.66558 269.344 9.36558 267.544C9.36558 267.444 9.46557 267.344 9.46557 267.244C9.66557 268.744 10.1656 270.044 11.5656 270.944C11.7656 271.044 11.9656 270.944 12.0656 270.844C13.2656 268.844 13.0656 266.544 11.8656 264.744C13.8656 265.644 15.9656 266.144 17.8656 265.044C17.9656 265.544 18.0656 265.944 18.2656 266.444C17.1656 265.844 15.8656 265.544 14.5656 265.944C14.3656 266.044 14.1656 266.244 14.2656 266.444C14.9656 268.244 16.3656 269.744 18.0656 270.744C15.9656 271.244 14.1656 272.744 13.9656 274.944C13.9656 275.044 14.0656 275.244 14.1656 275.244C16.1656 275.544 17.7656 274.844 19.1656 273.744C18.6656 274.944 18.2656 276.344 18.3656 277.644C13.0656 277.144 9.16557 282.944 3.76557 282.944C3.16557 282.944 3.16558 283.744 3.66558 283.844C3.66558 284.044 3.66558 284.244 3.86558 284.444C8.26558 287.744 13.1656 289.644 18.6656 289.544C23.2656 289.444 27.0656 285.444 31.3656 284.944C30.7656 285.344 30.4656 285.944 30.6656 286.844C30.8656 287.744 31.8656 287.944 32.6656 287.844C33.5656 287.744 34.3656 287.344 35.0656 286.844C34.2656 288.344 33.6656 290.044 33.5656 291.744C33.5656 291.944 33.8656 292.044 33.9656 291.944C35.5656 290.644 37.2656 288.044 37.1656 285.744C37.1656 285.744 37.2656 285.844 37.3656 285.844H37.4656C38.2656 287.944 39.1656 289.844 41.6656 290.044C41.9656 290.044 42.1656 289.744 42.0656 289.444C41.8656 287.844 40.8656 286.644 39.6656 285.844C40.0656 285.844 40.3656 285.844 40.7656 285.744C47.4656 290.544 53.8656 295.044 58.9656 301.044C60.3656 303.444 61.7656 305.844 63.1656 308.344C62.8656 308.044 62.5656 307.744 62.2656 307.444C62.2656 307.344 62.2656 307.244 62.1656 307.144C61.9656 307.044 61.7656 306.944 61.6656 306.944C60.6656 306.044 59.4656 305.344 58.3656 304.644C55.1656 300.444 50.8656 297.544 45.6656 296.544C44.6656 296.044 43.5656 295.844 42.4656 296.144C39.0656 295.944 35.8656 296.744 32.7656 298.044C29.5656 299.444 28.3656 304.044 24.8656 304.944C24.2656 305.144 24.4656 305.944 24.9656 305.944C31.3656 306.144 36.7656 310.044 43.0656 310.444C48.1656 310.744 53.6656 306.644 58.6656 306.744C58.6656 306.844 58.7656 306.844 58.7656 306.944C59.0656 307.344 59.5656 307.144 59.6656 306.844C60.0656 306.944 60.4656 307.044 60.8656 307.144C62.1656 308.044 63.2656 309.144 64.3656 310.344C70.2656 320.844 75.7656 331.444 78.8656 343.044C78.9656 343.244 79.2656 343.144 79.2656 342.944C76.9656 333.344 72.9656 324.444 68.3656 315.744C67.7656 314.444 67.1656 313.144 66.3656 311.944C66.1656 311.644 66.0656 311.344 65.8656 311.144C65.0656 307.544 63.3656 304.344 61.1656 301.444C66.4656 301.944 72.0656 301.544 76.7656 298.944C82.9656 295.544 85.2656 287.744 86.8656 281.344C86.9656 280.744 86.2656 280.444 85.9656 280.944C83.7656 284.344 79.6656 284.744 76.9656 287.244C78.0656 284.444 78.3656 281.444 78.2656 278.344C78.5656 277.644 78.7656 276.844 78.9656 276.044C78.9656 275.844 78.7656 275.744 78.6656 275.944C78.4656 276.244 78.3656 276.544 78.1656 276.844C78.0656 275.044 77.7656 273.244 77.4656 271.544C77.4656 271.344 77.4656 271.244 77.4656 271.044C77.6656 270.744 77.7656 270.544 77.8656 270.244C77.9656 269.944 77.5656 269.744 77.4656 270.044L77.3656 270.144C77.2656 270.044 77.1656 270.044 77.0656 270.144C76.8656 269.944 76.3656 270.044 76.4656 270.344C76.4656 270.644 76.5656 270.944 76.5656 271.244C72.4656 276.444 65.2656 277.844 61.3656 283.444C58.1656 288.044 57.4656 293.244 58.7656 298.644C58.3656 297.944 57.9656 297.144 57.5656 296.444C57.6656 296.444 57.8656 296.344 57.7656 296.144C56.0656 291.744 55.6656 287.744 56.1656 284.044C60.2656 278.644 67.4656 275.844 70.5656 269.844C71.7656 268.244 72.4656 266.444 72.1656 264.144C72.8656 258.544 70.8656 253.044 68.1656 247.944C67.9656 247.544 67.3656 247.644 67.2656 248.044C65.5656 256.244 56.8656 258.544 54.4656 265.944C52.6656 271.544 52.5656 278.244 54.4656 283.844C54.1656 287.244 54.7656 290.744 56.0656 293.944C53.3656 288.944 50.7656 283.844 48.4656 278.644C47.8656 277.144 47.2656 275.644 46.5656 274.144C46.3656 271.744 46.4656 269.044 47.1656 266.044C47.9656 262.744 49.2656 259.544 50.5656 256.244C51.3656 255.744 52.1656 255.044 52.5656 254.444C52.6656 254.544 52.7656 254.644 52.7656 254.744C51.9656 257.444 52.6656 260.444 54.0656 262.844C54.2656 263.144 54.7656 263.144 54.8656 262.744C55.5656 260.144 55.2656 257.044 53.5656 254.944C53.5656 254.844 53.6656 254.744 53.6656 254.744C55.3656 256.144 57.2656 256.844 59.3656 255.544C59.5656 255.444 59.6656 255.044 59.4656 254.844C58.3656 253.944 57.1656 253.244 55.8656 252.944C57.2656 252.144 58.7656 251.644 59.9656 250.444C60.2656 250.144 60.0656 249.744 59.7656 249.644C57.6656 249.044 55.3656 250.044 53.6656 251.544C53.3656 251.044 52.9656 250.644 52.4656 250.144C52.9656 248.044 53.3656 245.944 53.2656 243.844C53.2656 243.744 53.1656 243.644 53.0656 243.644C53.2656 243.444 53.2656 243.144 53.0656 242.944C52.9656 242.844 52.9656 242.844 52.8656 242.744C52.9656 242.644 53.0656 242.644 53.1656 242.544V242.644C53.1656 242.744 53.2656 242.744 53.3656 242.844C53.5656 244.844 54.6656 249.644 57.7656 248.144C59.5656 247.244 58.7656 245.644 57.5656 244.444C58.5656 244.544 59.4656 244.444 60.3656 244.244C60.7656 244.144 60.7656 243.744 60.5656 243.444C59.4656 242.244 58.0656 241.544 56.4656 241.344C58.4656 239.644 60.6656 238.144 61.5656 235.644C61.6656 235.344 61.2656 234.944 60.9656 235.044C58.3656 236.044 55.3656 237.844 53.4656 240.144C53.3656 239.744 53.2656 239.344 53.2656 238.944C53.3656 239.044 53.5656 239.044 53.6656 238.944C54.8656 236.544 55.3656 233.444 53.2656 231.444C52.9656 231.144 52.5656 231.344 52.3656 231.644C51.4656 234.344 51.7656 236.844 52.2656 239.444C51.4656 238.044 50.4656 236.744 49.1656 235.744C48.8656 235.544 48.4656 235.744 48.3656 236.044C47.9656 237.944 48.6656 239.444 49.7656 240.844C48.4656 240.244 46.9656 239.944 45.3656 239.944C45.1656 239.944 44.9656 240.044 44.8656 240.244C44.7656 240.444 44.6656 240.644 44.5656 240.744C44.4656 240.944 44.4656 241.244 44.6656 241.344C46.2656 243.144 48.3656 243.544 50.5656 243.144C48.8656 244.344 47.3656 245.744 46.3656 247.744C45.8656 247.944 45.3656 248.344 44.8656 248.944C43.3656 251.044 46.3656 252.744 49.1656 253.544C46.9656 253.944 44.8656 254.744 46.1656 256.144C46.8656 256.944 47.8656 257.044 48.8656 256.844C47.3656 261.044 45.9656 265.244 45.4656 269.544C45.3656 270.144 45.3656 270.744 45.3656 271.344C43.2656 266.044 41.3656 260.544 39.6656 254.944C39.3656 245.744 40.4656 237.244 44.0656 229.644C46.9656 225.844 52.7656 224.744 57.1656 223.244C61.1656 221.944 64.0656 219.844 66.8656 216.644C72.0656 210.844 74.3656 201.844 71.3656 194.544C71.5656 194.544 71.6656 194.444 71.8656 194.444C72.3656 194.344 72.2656 193.544 71.7656 193.544C71.4656 193.544 71.2656 193.644 70.9656 193.644C70.7656 193.244 70.5656 192.844 70.3656 192.444C70.1656 192.144 69.6656 192.344 69.7656 192.744C69.8656 193.044 69.9656 193.444 69.9656 193.744C62.8656 194.944 56.2656 200.244 51.3656 205.044C44.8656 211.244 42.6656 220.144 42.7656 228.844C39.3656 236.044 38.1656 244.444 38.9656 252.344C35.7656 240.944 33.5656 229.244 32.9656 217.644C35.7656 209.944 42.3656 204.144 42.9656 195.544C43.6656 186.344 40.6656 177.644 39.5656 168.544C39.4656 167.944 38.5656 167.744 38.4656 168.444C37.4656 173.344 33.1656 175.344 30.7656 179.244C28.7656 182.444 26.6656 186.044 25.7656 189.844C23.3656 184.844 20.1656 180.544 20.4656 174.644C20.4656 174.044 19.6656 174.044 19.4656 174.544C15.5656 183.444 12.5656 192.044 15.0656 201.244ZM32.5656 245.144C31.4656 243.744 30.2656 242.444 28.9656 241.144C25.7656 235.644 25.1656 229.544 23.2656 223.544C28.2656 229.844 29.3656 237.944 32.5656 245.144ZM1.66558 211.544C3.16558 218.044 9.26558 223.944 14.1656 228.444C13.6656 228.144 13.0656 227.844 12.5656 227.544C8.06558 225.044 4.86558 222.744 2.16558 218.844C1.56558 216.444 1.36558 214.044 1.66558 211.544ZM20.1656 234.244C20.2656 234.344 20.2656 234.344 20.3656 234.244C21.2656 235.044 22.0656 235.844 22.9656 236.744C21.3656 235.944 19.5656 235.344 17.8656 234.544C12.1656 232.044 7.26557 227.744 3.76557 222.644C8.26557 227.344 15.8656 229.344 20.1656 234.244ZM22.4656 222.644C22.3656 222.744 22.3656 222.844 22.3656 222.944C23.3656 228.644 24.5656 234.644 27.5656 239.744C27.3656 239.544 27.1656 239.444 26.9656 239.244C25.2656 237.644 23.5656 236.044 21.8656 234.444C19.4656 229.344 21.4656 221.944 17.3656 217.844C19.1656 219.244 20.7656 220.744 22.2656 222.344C22.3656 222.444 22.4656 222.544 22.4656 222.644ZM8.86558 212.644C9.56558 212.944 10.2656 213.244 10.9656 213.644C14.2656 216.744 14.4656 221.644 15.1656 225.844C15.1656 226.044 15.4656 225.944 15.4656 225.844C15.0656 222.544 15.1656 218.044 13.2656 214.944C14.1656 215.444 15.0656 216.044 15.8656 216.644C15.5656 216.644 15.2656 217.044 15.5656 217.244C18.6656 220.044 19.2656 223.044 19.6656 227.144C19.8656 229.444 20.1656 231.644 21.0656 233.744C13.1656 226.644 5.16558 219.544 2.06558 209.444C2.06558 209.344 2.06558 209.344 2.06558 209.244C4.06558 210.744 6.46558 211.644 8.86558 212.644ZM13.0656 235.544C10.0656 232.844 7.26558 229.644 5.16558 225.944C6.66558 227.744 8.56557 229.344 10.4656 230.744C14.3656 233.744 19.9656 235.344 24.4656 237.944C27.8656 241.244 31.0656 244.744 33.8656 248.544C27.7656 243.244 19.2656 241.044 13.0656 235.544ZM8.86558 263.944C8.76558 263.744 8.66558 263.644 8.56558 263.544L8.66558 263.444L8.76557 263.344C8.76557 263.444 8.86557 263.444 8.96557 263.544C8.86557 263.644 8.86558 263.844 8.86558 263.944ZM11.9656 257.444C11.6656 259.144 10.9656 260.644 10.3656 262.244C10.4656 261.544 10.5656 260.844 10.6656 260.044C10.9656 259.144 11.3656 258.244 11.9656 257.444ZM8.86558 252.644C9.96558 254.844 10.0656 257.344 9.76557 259.844C9.46557 260.744 9.36557 261.644 9.26557 262.644C9.26557 262.644 9.26558 262.644 9.16558 262.644C9.06558 262.644 8.96558 262.644 8.86558 262.744C8.76558 262.744 8.66558 262.844 8.56558 262.944C8.56558 262.844 8.46558 262.844 8.36558 262.744C8.36558 261.044 7.96557 259.444 7.26557 257.944C7.36557 256.044 7.76558 254.244 8.86558 252.644ZM4.66558 255.444C5.36558 256.344 5.96558 257.244 6.56558 258.244C6.56558 259.444 6.86557 260.644 7.26557 261.844C5.56557 259.844 3.76558 257.844 4.66558 255.444ZM3.26557 264.444C3.16557 262.144 5.96558 262.644 7.56558 263.244C7.56558 263.244 7.56558 263.244 7.66558 263.344C6.96558 263.744 6.46557 264.244 5.96557 264.744C4.66557 265.544 3.36557 265.944 3.26557 264.444ZM6.06558 269.444C5.86558 269.544 5.66558 269.544 5.36558 269.544C4.56558 269.544 4.96558 268.944 5.06558 268.444C5.26558 267.444 5.66558 266.544 6.16558 265.644C6.96558 265.144 7.66557 264.544 8.26557 263.944C8.36557 264.044 8.36557 264.044 8.46557 264.144C8.56557 264.244 8.66558 264.244 8.66558 264.144C8.66558 264.244 8.56558 264.244 8.56558 264.344C8.56558 264.444 8.56558 264.544 8.66558 264.544C8.66558 264.544 8.66558 264.644 8.56558 264.744C8.56558 265.044 8.46558 265.444 8.36558 265.744C8.16558 266.744 7.86557 267.644 7.26557 268.444C7.06557 268.944 6.56558 269.244 6.06558 269.444ZM10.8656 270.144C9.06558 268.644 9.46557 266.244 9.46557 264.044C11.2656 265.544 12.0656 268.044 10.8656 270.144ZM10.4656 263.444C12.4656 263.244 14.4656 263.444 16.1656 264.544C14.3656 265.144 12.2656 264.444 10.4656 263.444ZM44.6656 282.344C43.1656 284.744 39.8656 285.144 37.1656 284.944C37.0656 284.744 36.9656 284.544 36.8656 284.344H36.9656C39.4656 283.144 41.9656 282.344 44.6656 282.344ZM20.6656 287.844C19.2656 288.144 17.9656 288.344 16.5656 288.344C19.9656 287.044 23.4656 283.544 26.3656 283.044C26.4656 283.044 26.4656 283.044 26.4656 282.944C26.7656 282.944 27.0656 282.944 27.4656 283.044C26.6656 283.244 25.8656 283.744 25.1656 284.344C24.1656 285.144 23.1656 286.044 22.1656 286.944C21.5656 287.344 21.0656 287.644 20.6656 287.844ZM24.3656 282.944C22.7656 283.544 21.3656 284.544 19.8656 285.544C18.8656 286.244 17.7656 286.844 16.6656 287.344C15.2656 288.044 13.9656 287.944 12.4656 287.844C13.3656 287.644 14.3656 287.144 15.0656 286.844C17.0656 285.844 18.8656 284.444 20.8656 283.344C22.1656 283.144 23.2656 283.044 24.3656 282.944ZM25.2656 282.044C23.6656 280.544 21.2656 278.544 19.1656 278.844C19.2656 278.644 19.3656 278.544 19.5656 278.344C19.6656 278.444 19.7656 278.544 19.9656 278.544C24.3656 278.844 27.9656 281.144 31.6656 283.344C29.5656 282.344 27.4656 282.044 25.2656 282.044ZM32.8656 283.944C32.8656 283.844 32.9656 283.844 32.9656 283.744C33.0656 283.744 33.1656 283.844 33.1656 283.844C33.0656 283.944 32.9656 283.944 32.8656 283.944ZM40.4656 277.744C39.5656 279.744 38.1656 281.544 36.7656 283.244C37.1656 281.044 38.3656 278.744 40.4656 277.744ZM33.5656 274.744C33.9656 273.744 35.4656 274.144 35.8656 274.944C36.3656 275.844 36.3656 277.144 36.3656 278.144C36.3656 279.444 36.2656 280.844 36.1656 282.144C36.0656 282.544 35.9656 283.044 35.9656 283.444V283.344C35.5656 281.744 34.8656 279.944 33.7656 278.544C33.1656 277.144 33.0656 275.744 33.5656 274.744ZM32.7656 279.044C33.3656 281.044 34.3656 282.944 34.8656 283.644C32.4656 283.544 29.5656 279.244 29.2656 276.944C30.7656 277.144 31.8656 277.944 32.7656 279.044ZM28.3656 276.744C28.3656 278.744 29.6656 280.644 31.0656 282.144C27.7656 279.744 24.3656 277.744 20.0656 277.444C20.6656 276.344 21.2656 275.244 21.4656 274.044C21.8656 274.544 22.3656 274.844 23.0656 274.644C24.7656 274.244 23.2656 272.444 22.1656 271.344C22.4656 271.344 22.7656 271.444 23.1656 271.444C24.6656 273.344 26.4656 275.144 28.3656 276.744ZM25.6656 265.844C25.6656 265.844 25.6656 265.744 25.6656 265.644C26.6656 266.644 27.8656 267.444 29.1656 267.744C28.6656 267.944 28.1656 268.244 27.7656 268.644C26.0656 268.544 24.3656 268.844 22.8656 269.444C23.7656 268.344 24.8656 267.144 25.6656 265.844ZM32.0656 267.444C32.0656 267.544 32.0656 267.544 31.9656 267.644C31.9656 267.544 31.9656 267.544 32.0656 267.444C31.9656 267.444 31.9656 267.444 32.0656 267.444ZM27.9656 266.344C28.8656 266.644 29.8656 266.944 30.8656 267.144C29.7656 267.244 28.8656 266.944 27.9656 266.344ZM21.3656 271.744C22.2656 272.544 23.5656 273.944 22.6656 273.944C22.0656 274.044 21.6656 273.544 21.4656 272.944C21.4656 272.544 21.4656 272.144 21.3656 271.744ZM22.5656 270.644C24.0656 270.044 25.5656 269.644 27.1656 269.644C27.1656 269.644 27.1656 269.744 27.0656 269.844C26.1656 271.044 24.2656 270.844 22.5656 270.644ZM27.5656 270.544C27.8656 270.244 28.0656 269.844 28.1656 269.344C29.0656 268.444 30.4656 268.144 31.6656 267.944C31.7656 267.944 31.7656 267.944 31.7656 267.844C30.5656 268.944 29.3656 270.344 27.5656 270.544ZM31.8656 267.744C31.9656 267.744 31.9656 267.744 31.8656 267.744V267.744ZM31.7656 272.844C31.6656 271.444 31.9656 270.144 32.3656 268.744C32.5656 270.244 32.4656 271.644 31.7656 272.844ZM37.3656 271.444C35.8656 270.344 34.8656 268.844 33.6656 267.544C35.7656 267.744 38.2656 269.044 37.3656 271.444ZM33.1656 266.544C33.0656 266.544 33.0656 266.544 32.9656 266.544C34.1656 264.744 35.5656 263.144 37.2656 261.844C36.3656 263.744 35.1656 265.644 33.1656 266.544ZM34.1656 258.344C34.2656 260.744 33.5656 263.044 32.5656 265.244C32.1656 262.644 32.0656 259.944 34.1656 258.344ZM24.3656 266.244C23.3656 267.644 22.1656 268.944 20.9656 270.344H20.8656C21.7656 268.744 22.7656 266.844 24.3656 266.244ZM26.1656 258.344C27.3656 259.444 25.5656 260.744 24.4656 259.844C23.9656 259.444 23.5656 258.944 23.2656 258.444C22.4656 257.544 21.8656 256.544 21.1656 255.544C22.8656 256.344 24.6656 257.044 26.1656 258.344ZM22.6656 251.644C23.1656 251.144 23.6656 250.744 24.2656 250.444C25.9656 249.444 26.0656 250.144 24.7656 252.744C23.7656 253.344 22.5656 253.744 21.4656 254.044C21.5656 253.544 21.6656 253.144 21.6656 252.644C21.9656 252.344 22.2656 251.944 22.6656 251.644ZM17.6656 247.244C17.9656 246.644 19.1656 245.844 19.8656 246.244C20.9656 246.844 20.8656 249.344 20.8656 250.344C20.8656 251.044 20.8656 251.744 20.8656 252.444C20.6656 252.644 20.4656 252.944 20.2656 253.144C19.6656 252.744 19.0656 252.244 18.5656 251.744C18.2656 251.144 17.9656 250.644 17.7656 250.044C17.2656 249.244 17.1656 248.144 17.6656 247.244ZM13.0656 251.144C14.9656 252.144 16.8656 253.044 18.8656 253.844C18.9656 253.944 18.9656 254.044 19.0656 254.144C18.8656 254.144 18.6656 254.244 18.6656 254.544C18.5656 254.544 18.5656 254.444 18.4656 254.444C16.3656 254.444 13.8656 253.244 13.0656 251.144ZM13.7656 258.144C13.1656 256.344 17.6656 255.444 18.6656 255.344C18.6656 255.644 18.6656 255.944 18.6656 256.144C17.0656 257.444 14.2656 259.644 13.7656 258.144ZM19.4656 255.844C19.5656 255.744 19.5656 255.744 19.6656 255.644C19.7656 255.544 19.6656 255.344 19.4656 255.344C19.4656 255.244 19.4656 255.144 19.4656 255.044C19.5656 254.944 19.5656 254.944 19.6656 254.844C19.8656 254.944 20.1656 254.744 20.0656 254.444L20.1656 254.344C20.2656 254.344 20.2656 254.444 20.3656 254.444H20.4656C20.2656 254.544 20.2656 254.744 20.2656 254.944C19.9656 254.944 19.7656 255.144 19.9656 255.544C20.2656 256.444 20.5656 257.244 20.8656 258.144C21.1656 259.244 21.1656 260.244 20.9656 261.344C20.1656 262.444 19.7656 262.344 19.7656 261.244C19.3656 259.444 19.5656 257.644 19.4656 255.844ZM19.6656 263.844C20.2656 264.444 20.3656 265.744 20.4656 266.444C20.5656 267.344 20.5656 268.244 20.4656 269.244C20.3656 269.344 20.2656 269.544 20.2656 269.644C19.9656 268.844 19.5656 268.244 18.9656 267.644C18.4656 266.444 18.0656 265.344 18.0656 264.144C18.0656 263.244 19.1656 263.444 19.6656 263.844ZM14.5656 266.744C15.9656 266.544 17.2656 267.144 18.2656 268.044C18.7656 269.144 19.3656 270.144 19.7656 270.744C19.5656 270.744 19.2656 270.644 19.0656 270.644C17.1656 269.744 15.4656 268.644 14.5656 266.744ZM14.3656 274.744C13.1656 274.744 14.6656 272.944 14.7656 272.844C15.2656 272.344 15.9656 272.044 16.5656 271.844C17.3656 271.544 18.2656 271.544 19.0656 271.544C19.1656 271.544 19.3656 271.644 19.4656 271.644C18.2656 273.144 16.5656 274.644 14.3656 274.744ZM20.3656 271.644C20.4656 271.644 20.4656 271.644 20.5656 271.644C20.5656 272.044 20.6656 272.344 20.7656 272.744C20.5656 274.944 19.5656 276.944 18.3656 278.844C17.6656 276.444 18.9656 273.444 20.3656 271.644ZM9.76557 281.544C12.3656 280.044 14.6656 278.744 17.5656 278.144C17.6656 278.644 17.7656 279.244 17.9656 279.644C18.0656 279.844 18.3656 279.844 18.5656 279.644L18.6656 279.544C19.7656 279.844 20.9656 279.944 22.0656 280.544C22.9656 280.944 23.7656 281.544 24.5656 282.144C23.9656 282.144 23.3656 282.244 22.7656 282.344C19.2656 280.744 13.4656 279.144 10.3656 281.944C10.1656 282.044 10.3656 282.344 10.5656 282.244C12.5656 281.844 14.1656 281.244 16.2656 281.244C18.0656 281.344 19.9656 281.744 21.7656 282.444C15.9656 283.344 9.96558 285.544 4.36558 283.744C6.26558 283.444 8.06557 282.544 9.76557 281.544ZM6.16558 285.144C6.26558 285.144 6.36557 285.144 6.46557 285.144C7.26557 285.244 8.06558 285.244 8.86558 285.244C10.8656 285.244 12.9656 284.844 14.9656 284.444C16.3656 284.144 17.7656 283.844 19.1656 283.644C18.3656 284.144 17.5656 284.644 16.7656 285.044C14.5656 286.344 12.6656 286.944 10.2656 287.044C8.86557 286.644 7.46558 285.944 6.16558 285.144ZM24.7656 286.144C24.1656 286.444 23.6656 286.744 23.0656 286.944C24.9656 285.444 26.9656 283.144 29.5656 283.444C30.0656 283.544 30.4656 283.744 30.9656 283.944C28.7656 283.844 26.6656 285.044 24.7656 286.144ZM30.6656 286.544C30.4656 285.944 31.3656 285.344 31.8656 285.144C32.1656 285.044 32.3656 284.944 32.6656 284.844C32.7656 284.844 32.8656 284.844 32.8656 284.844C32.9656 284.944 33.1656 285.044 33.2656 285.144C33.5656 285.344 33.8656 284.944 33.7656 284.644C34.2656 284.644 34.7656 284.644 35.3656 284.644C34.1656 285.844 31.2656 288.144 30.6656 286.544ZM33.4656 291.044C33.8656 289.344 34.5656 287.744 35.4656 286.244C35.4656 286.644 35.3656 287.044 35.2656 287.344C35.0656 288.744 34.5656 290.044 33.4656 291.044ZM40.3656 289.044C38.9656 288.644 38.3656 287.544 37.7656 286.244C39.0656 286.844 39.9656 287.644 40.3656 289.044ZM54.8656 303.344C53.0656 302.644 51.1656 302.044 49.2656 301.844C48.8656 300.744 48.0656 299.444 47.0656 298.344C49.9656 299.544 52.6656 301.344 54.8656 303.344ZM27.7656 305.344C27.7656 305.244 27.8656 305.244 27.7656 305.344C30.3656 301.444 34.8656 302.244 38.7656 301.544C39.0656 301.544 38.9656 301.144 38.6656 301.144C34.5656 300.744 29.7656 301.244 27.4656 305.044C27.3656 305.144 27.4656 305.244 27.4656 305.344C26.9656 305.244 26.5656 305.244 26.0656 305.144C27.7656 303.844 29.1656 301.944 30.5656 300.444C30.6656 300.344 30.7656 300.344 30.7656 300.244C34.4656 299.344 38.4656 299.044 41.4656 301.744C41.5656 301.844 41.7656 301.744 41.6656 301.544C39.7656 299.044 35.4656 297.944 32.2656 298.944C33.4656 298.044 34.8656 297.544 36.1656 297.144C36.1656 297.244 36.1656 297.344 36.2656 297.344C39.0656 298.144 41.6656 299.144 43.7656 301.344C43.9656 301.544 44.1656 301.244 44.0656 301.144C42.2656 299.044 39.7656 297.044 36.8656 297.044C38.1656 296.744 39.4656 296.744 40.8656 296.844C40.8656 296.844 40.9656 296.944 41.0656 296.944C41.2656 296.944 41.5656 296.944 41.7656 296.944C42.8656 297.044 43.9656 297.344 45.0656 297.644C45.2656 297.744 45.3656 297.744 45.5656 297.844C46.9656 298.744 48.1656 300.244 48.8656 301.744C43.8656 301.044 38.5656 301.944 33.7656 304.644C33.4656 304.844 33.7656 305.244 33.9656 305.044C38.4656 302.544 43.5656 301.844 48.5656 302.444C46.8656 303.444 45.2656 304.744 43.6656 305.844C41.5656 307.344 39.5656 307.844 37.2656 308.144C34.6656 307.344 32.1656 306.244 29.4656 305.544C28.7656 305.444 28.2656 305.344 27.7656 305.344ZM39.3656 308.844C42.9656 307.944 46.5656 304.444 49.0656 302.644C50.5656 302.844 52.0656 303.244 53.4656 303.744C52.4656 304.044 51.5656 304.644 50.5656 305.444C48.6656 306.944 47.2656 308.344 45.2656 309.344C43.4656 309.444 41.5656 309.344 39.3656 308.844ZM52.3656 307.344C50.7656 308.044 49.2656 308.544 47.7656 308.844C48.1656 308.544 48.4656 308.244 48.8656 308.044C50.7656 306.544 52.3656 304.744 54.6656 304.144C55.2656 304.344 55.8656 304.644 56.3656 304.944C56.6656 305.344 57.0656 305.744 57.3656 306.144C55.7656 306.044 54.1656 306.544 52.3656 307.344ZM58.6656 306.244C58.5656 306.144 58.5656 306.144 58.6656 306.244V306.244ZM67.5656 300.444C65.9656 300.544 64.2656 300.344 62.6656 300.344C69.3656 297.144 78.6656 294.244 83.0656 287.944C82.7656 288.644 82.5656 289.444 82.2656 290.044C79.6656 296.244 74.1656 299.944 67.5656 300.444ZM84.0656 284.144C84.0656 284.044 84.0656 284.044 84.0656 284.144C79.5656 293.244 70.0656 295.144 61.6656 300.444C61.1656 300.544 60.5656 300.544 60.0656 300.744C62.3656 298.344 67.1656 297.444 69.7656 295.844C72.3656 294.344 74.0656 291.644 75.4656 289.044C75.4656 288.944 75.5656 288.944 75.5656 288.844C78.2656 286.944 81.2656 285.944 84.0656 284.144ZM71.5656 293.144C68.5656 296.744 62.0656 296.844 59.4656 300.444C59.4656 300.444 59.4656 300.444 59.3656 300.344C59.7656 297.544 61.0656 295.244 62.7656 293.144C67.6656 290.844 73.3656 288.944 75.4656 283.544C75.5656 283.244 75.1656 283.144 75.0656 283.344C73.0656 285.944 71.5656 287.944 68.6656 289.644C66.9656 290.644 65.1656 291.444 63.4656 292.344C64.8656 290.744 66.3656 289.344 67.8656 287.844C71.0656 286.444 74.1656 283.944 76.1656 280.944C75.9656 285.144 74.8656 289.244 71.5656 293.144ZM76.2656 279.144C75.4656 280.444 74.6656 281.744 73.5656 283.044C72.3656 284.344 71.0656 285.344 69.6656 286.244C70.5656 285.344 71.4656 284.444 72.1656 283.444C74.0656 281.144 75.4656 278.544 76.1656 275.644C76.2656 276.844 76.2656 277.944 76.2656 279.144ZM66.2656 279.544C69.7656 276.944 73.4656 275.644 75.9656 272.444C75.9656 272.544 75.9656 272.644 75.9656 272.744C74.6656 278.744 71.3656 283.344 67.0656 287.644C66.8656 287.744 66.6656 287.844 66.3656 287.944C67.5656 283.244 69.3656 279.344 72.8656 275.744C72.9656 275.644 72.8656 275.444 72.6656 275.444C68.3656 277.844 66.8656 283.644 65.8656 288.144V288.244C65.8656 288.444 65.7656 288.544 65.7656 288.744C65.3656 289.044 65.0656 289.444 64.6656 289.744C63.5656 290.744 62.5656 291.744 61.6656 292.744C63.4656 287.244 65.0656 281.944 69.6656 277.544C69.7656 277.444 69.6656 277.144 69.4656 277.244C63.6656 280.444 61.5656 288.744 59.9656 295.244C59.3656 296.444 58.9656 297.644 58.8656 299.044C57.8656 291.044 59.0656 284.744 66.2656 279.544ZM70.1656 257.944C69.4656 265.844 63.5656 269.544 58.7656 274.544C59.9656 272.344 61.2656 270.244 62.8656 267.944C66.0656 263.344 68.6656 258.244 68.3656 252.744C69.0656 254.644 69.8656 256.744 70.1656 257.944ZM67.0656 250.444C67.7656 258.944 63.3656 264.944 59.0656 271.544C59.8656 265.244 61.1656 259.944 64.7656 254.444C65.7656 253.344 66.5656 252.044 67.0656 250.444ZM58.5656 272.444C57.8656 273.644 57.0656 274.744 56.3656 276.044C56.2656 276.244 56.1656 276.544 55.9656 276.744C55.8656 274.344 55.8656 271.944 55.9656 269.544C56.1656 266.144 57.4656 263.344 59.0656 260.544C59.9656 259.644 60.8656 258.744 61.7656 257.944C59.4656 262.144 58.8656 267.444 58.5656 272.444ZM70.6656 260.544C70.9656 263.544 70.3656 266.344 68.9656 268.844C65.8656 272.944 60.0656 274.844 56.7656 278.844C57.0656 278.144 57.2656 277.444 57.6656 276.744C62.3656 271.744 69.9656 267.344 70.6656 260.544ZM55.6656 282.844C55.7656 282.544 55.7656 282.244 55.8656 281.944C57.6656 278.644 61.5656 276.444 65.0656 274.044C61.7656 277.244 58.2656 279.344 55.6656 282.844ZM57.2656 262.644C55.1656 267.144 55.2656 272.344 55.6656 277.444C54.9656 279.044 54.4656 280.644 54.1656 282.244C52.6656 275.544 52.8656 268.244 57.2656 262.644ZM53.8656 261.544C53.1656 259.844 52.6656 257.944 52.9656 256.144C53.8656 257.744 54.0656 259.744 53.8656 261.544ZM52.4656 254.444H52.5656V254.544C52.4656 254.544 52.4656 254.444 52.4656 254.444ZM57.8656 255.344C56.1656 255.944 54.6656 255.144 53.3656 253.944C53.2656 253.844 53.1656 253.844 52.9656 253.844C52.9656 253.744 52.8656 253.544 52.7656 253.544C52.8656 253.444 52.9656 253.344 53.1656 253.244C53.3656 253.444 53.4656 253.644 53.6656 253.744C53.7656 253.844 53.8656 253.844 53.8656 253.744C53.9656 253.844 54.0656 253.944 54.1656 253.944C55.6656 254.144 56.7656 254.544 57.8656 255.344ZM58.0656 250.744C56.7656 251.644 55.1656 252.244 53.8656 253.144C53.8656 253.044 53.7656 252.844 53.7656 252.744C55.0656 251.744 56.4656 250.744 58.0656 250.744ZM59.7656 236.644C58.5656 238.644 56.3656 239.944 54.6656 241.544C54.3656 241.844 54.5656 242.344 54.9656 242.344C56.3656 242.444 57.6656 242.844 58.7656 243.644C57.3656 243.744 55.8656 243.544 54.7656 242.944C54.1656 242.644 53.6656 243.444 54.2656 243.844C54.4656 243.944 54.6656 244.044 54.9656 244.144C56.2656 244.844 58.4656 246.344 56.9656 247.444C54.9656 248.844 53.8656 243.944 53.6656 242.944C53.6656 242.844 53.6656 242.844 53.5656 242.844C53.5656 242.744 53.6656 242.644 53.5656 242.544C53.4656 242.144 53.4656 241.844 53.3656 241.444C55.6656 240.044 57.3656 237.944 59.7656 236.644ZM52.8656 239.044C52.5656 237.144 52.3656 235.244 52.8656 233.244C53.8656 234.944 53.0656 237.144 52.8656 239.044ZM49.0656 237.544C50.4656 238.744 51.3656 240.344 52.2656 242.044C52.0656 242.144 51.8656 242.144 51.6656 242.244C50.4656 240.844 49.1656 239.344 49.0656 237.544ZM47.2656 241.444C48.2656 241.544 49.1656 241.944 50.0656 242.544C49.1656 242.644 48.2656 242.644 47.2656 242.444C44.7656 241.244 44.7656 240.944 47.2656 241.444ZM49.3656 245.144C50.0656 244.544 50.7656 244.044 51.5656 243.544C51.6656 243.644 51.8656 243.744 51.9656 243.844C52.1656 244.044 52.3656 244.044 52.5656 243.944C52.2656 245.844 51.7656 247.644 51.2656 249.544C50.8656 249.244 50.3656 248.944 50.0656 248.644C49.5656 248.344 48.9656 248.044 48.4656 247.844C50.0656 247.144 51.3656 245.844 52.3656 244.344C52.5656 243.944 52.0656 243.644 51.7656 244.044C50.6656 245.644 49.1656 246.944 47.2656 247.644C47.6656 247.544 48.6656 245.844 49.3656 245.144ZM45.3656 250.144C45.7656 247.744 48.9656 249.444 49.9656 250.144C50.9656 250.844 51.6656 251.744 52.4656 252.544C52.1656 252.844 51.9656 253.144 51.7656 253.444C49.5656 253.244 45.0656 252.044 45.3656 250.144ZM46.6656 256.244C45.6656 255.744 47.0656 255.144 47.4656 255.044C48.7656 254.544 50.1656 254.544 51.5656 254.444C50.5656 255.944 48.4656 257.144 46.6656 256.244ZM56.5656 222.344C52.7656 223.744 48.4656 224.844 45.3656 227.244C45.7656 226.644 46.0656 226.044 46.4656 225.444C50.6656 222.444 55.8656 221.844 60.6656 219.644C62.1656 218.944 63.5656 217.944 64.8656 216.844C62.7656 219.144 59.9656 221.044 56.5656 222.344ZM61.1656 198.944C61.1656 198.944 61.2656 198.944 61.2656 198.844C57.3656 203.744 54.6656 210.044 52.5656 215.944C51.4656 216.944 50.4656 217.944 49.4656 218.944C51.1656 210.944 54.2656 204.044 61.1656 198.944ZM50.2656 220.644C56.3656 218.844 64.8656 214.744 69.3656 209.044C69.2656 209.444 69.0656 209.944 68.9656 210.344C65.2656 215.144 61.8656 218.644 55.5656 220.744C52.5656 221.744 49.9656 222.444 47.6656 223.844C48.3656 222.744 49.2656 221.644 50.2656 220.644ZM70.2656 205.044C66.4656 212.344 58.8656 216.644 51.1656 219.744C51.6656 219.244 52.0656 218.744 52.5656 218.344C59.1656 212.144 67.9656 206.544 70.2656 197.444C70.5656 199.944 70.5656 202.544 70.2656 205.044ZM69.6656 195.344C66.9656 204.344 59.9656 209.344 53.5656 215.144C56.2656 209.144 59.2656 203.644 62.8656 198.044C64.9656 196.944 67.2656 196.044 69.6656 195.344ZM51.7656 206.144C52.5656 205.244 53.4656 204.444 54.3656 203.744C51.0656 208.344 49.2656 214.744 48.5656 219.944C47.8656 220.744 47.0656 221.644 46.4656 222.544C45.2656 224.144 44.2656 225.844 43.2656 227.544C44.0656 219.444 45.6656 212.444 51.7656 206.144ZM15.4656 197.844C14.4656 193.944 15.1656 189.744 16.1656 185.944C16.7656 183.344 18.3656 180.744 18.8656 178.044C18.0656 185.744 19.0656 193.644 21.3656 201.044C23.4656 207.844 28.8656 213.044 30.4656 219.944C29.5656 218.444 28.5656 217.144 27.2656 215.744C22.0656 210.044 17.3656 205.544 15.4656 197.844ZM30.9656 221.144C30.8656 220.044 30.6656 218.944 30.3656 218.044C30.6656 218.544 30.9656 219.044 31.2656 219.444C31.3656 220.444 31.3656 221.444 31.4656 222.444C31.3656 222.044 31.1656 221.644 30.9656 221.144ZM32.5656 216.244C32.4656 213.944 32.4656 211.744 32.4656 209.444C33.8656 205.544 37.0656 202.044 38.5656 198.244C39.8656 195.144 41.0656 191.844 41.1656 188.444C41.4656 190.344 41.6656 192.144 41.6656 193.844C41.4656 202.744 35.2656 208.644 32.5656 216.244ZM38.3656 171.744C38.2656 177.444 35.9656 182.944 34.5656 188.344C34.5656 188.444 34.4656 188.544 34.4656 188.644C34.4656 186.144 34.5656 183.744 34.8656 181.244C35.2656 178.644 36.0656 176.144 37.0656 173.744C37.5656 173.144 38.0656 172.444 38.3656 171.744ZM36.3656 185.744C37.1656 182.944 38.2656 179.944 38.8656 176.944C38.9656 177.744 39.0656 178.544 39.2656 179.344C39.9656 186.544 36.1656 192.244 33.6656 198.644C34.3656 194.244 35.1656 189.944 36.3656 185.744ZM33.2656 201.244C35.1656 195.244 39.5656 189.644 40.1656 183.344C40.2656 183.844 40.3656 184.344 40.4656 184.844C40.3656 184.844 40.2656 184.944 40.2656 185.144C40.3656 191.244 38.9656 196.844 35.9656 202.144C34.7656 204.244 33.4656 206.144 32.5656 208.144C32.5656 207.144 32.6656 206.144 32.6656 205.044C32.6656 205.044 32.6656 205.044 32.6656 204.944C32.8656 203.744 33.0656 202.544 33.2656 201.244ZM34.1656 176.944C34.5656 176.544 34.9656 176.044 35.4656 175.644C33.8656 180.344 33.7656 185.544 34.0656 190.544C32.5656 196.844 31.9656 203.544 31.3656 209.944C30.9656 206.944 30.0656 204.144 29.2656 201.044C27.0656 192.444 30.1656 185.844 33.4656 178.244C33.5656 178.044 33.4656 177.944 33.2656 177.944C33.5656 177.544 33.8656 177.244 34.1656 176.944ZM32.6656 178.544C29.1656 183.744 27.4656 189.944 27.5656 196.144C27.6656 203.044 31.6656 209.044 30.9656 216.044C30.9656 216.244 31.0656 216.244 31.1656 216.244C31.1656 216.744 31.1656 217.244 31.1656 217.744C26.4656 210.144 24.6656 199.344 26.2656 190.744C27.2656 186.344 29.6656 182.044 32.6656 178.544ZM24.9656 192.044C24.9656 192.244 24.8656 192.444 24.8656 192.744C24.3656 198.044 24.8656 203.844 26.4656 209.244C25.7656 207.944 25.0656 206.744 24.3656 205.444C20.3656 198.144 19.3656 189.444 19.5656 181.144C20.7656 184.944 23.4656 188.544 24.9656 192.044ZM18.8656 177.744C18.7656 177.844 18.7656 177.844 18.7656 178.044C18.8656 177.644 18.8656 177.244 18.8656 176.944C18.8656 177.144 18.8656 177.444 18.8656 177.744Z" fill="#35611A"/>
<path d="M2.96568 260.544C2.66568 260.544 2.46569 260.644 2.16569 260.744C2.16569 260.344 1.76568 259.744 1.56568 259.444C1.36568 259.044 0.76568 259.244 0.76568 259.644C0.76568 260.044 0.265683 260.444 0.0656831 260.744C-0.0343169 260.944 -0.0343107 261.144 0.165689 261.244C0.665689 261.644 1.16569 261.944 1.86569 261.844C2.46569 261.744 2.86568 261.244 3.26568 260.844C3.36568 260.744 3.16568 260.544 2.96568 260.544ZM1.06568 260.844C1.16568 260.744 1.26569 260.544 1.36569 260.444C1.46569 260.544 1.66568 260.744 1.76568 260.844C1.56568 261.044 1.36568 261.044 1.06568 260.844Z" fill="#35611A"/>
<path d="M11.1657 249.444C11.3657 249.444 11.4657 249.244 11.3657 249.144C11.2657 248.844 10.9657 248.744 10.7657 248.644C10.8657 248.144 11.3657 247.744 10.9657 247.244C10.3657 246.644 9.86574 246.844 9.26574 247.244C8.66574 247.644 8.96574 248.644 9.46574 248.944C9.76574 249.344 10.6657 249.444 11.1657 249.444ZM9.66575 247.944C9.76575 247.844 9.86574 247.844 10.0657 247.744C10.1657 247.744 10.2657 247.644 10.2657 247.644C10.0657 247.744 10.2657 247.844 10.2657 247.744C10.2657 247.844 10.0657 248.044 10.0657 248.244C10.0657 248.344 10.0657 248.344 10.0657 248.444C9.86574 248.344 9.76575 248.144 9.66575 247.944Z" fill="#35611A"/>
<path d="M44.3657 253.344C44.2657 253.144 44.0657 253.144 43.9657 253.144C43.3657 253.344 42.8657 253.644 42.2657 254.044C42.0657 254.144 42.0657 254.344 42.0657 254.644C42.2657 255.144 42.6657 255.544 43.1657 255.644C43.0657 256.044 43.6657 256.144 43.7657 255.844C43.7657 255.744 43.8657 255.644 43.8657 255.544C43.9657 255.444 44.1657 255.344 44.2657 255.344C44.3657 255.244 44.3657 255.144 44.3657 255.044C44.3657 254.944 44.2657 254.944 44.2657 254.944C44.2657 254.844 44.3657 254.744 44.3657 254.744C44.5657 254.144 44.4657 253.744 44.3657 253.344ZM43.3657 254.744C43.1657 254.744 43.0657 254.644 42.9657 254.444C43.1657 254.244 43.4657 254.144 43.7657 254.044C43.7657 254.244 43.6657 254.444 43.5657 254.744C43.4657 254.744 43.3657 254.744 43.3657 254.744Z" fill="#35611A"/>
<path d="M51.7656 265.344C51.8656 265.244 51.8656 265.144 51.8656 264.944C51.9656 264.644 51.7656 264.444 51.5656 264.244C51.4656 264.144 51.2656 264.044 51.0656 264.144C50.7656 264.344 50.5656 264.644 50.2656 264.844C49.8656 265.144 50.3656 266.244 50.6656 266.544C51.1656 267.244 51.9656 266.244 52.4656 265.944C52.5656 265.844 52.5656 265.644 52.4656 265.544C52.1656 265.344 51.8656 265.544 51.5656 265.644C51.6656 265.544 51.6656 265.444 51.5656 265.344C51.6656 265.544 51.6656 265.444 51.7656 265.344ZM51.4656 265.844C51.3656 265.944 51.2656 265.944 51.2656 265.944C51.1656 265.944 51.0656 265.544 51.0656 265.244L51.1656 265.144C51.1656 265.344 51.0656 265.644 51.2656 265.744C51.3656 265.844 51.3656 265.844 51.4656 265.844Z" fill="#35611A"/>
</g>
</svg>
