<svg width="396" height="87" viewBox="0 0 396 87" fill="none" xmlns="http://www.w3.org/2000/svg">
<path d="M148.896 47.0051C145.508 47.6211 142.516 48.1931 139.48 48.6771C137.764 48.9851 136.048 49.2491 134.288 49.3811C129.228 49.8211 124.168 50.4811 119.064 50.5691C114.488 50.6571 109.824 50.5251 105.292 49.7771C98.7802 48.6771 92.6642 46.2131 87.6922 41.5931C87.4282 41.3291 86.8122 41.2411 86.4602 41.3731C82.4562 42.6491 78.4962 44.3651 74.4042 45.2011C69.1242 46.2571 63.7562 46.3451 58.5202 44.6731C53.4162 43.0451 48.3562 41.2851 43.2962 39.6131C36.1242 37.1931 29.8322 38.9971 24.0242 43.5731C20.6362 46.2571 17.0722 48.7651 13.4202 51.0091C11.3522 52.2411 8.93216 52.8131 6.64416 53.6931C6.38016 53.7811 6.07216 53.6931 5.76416 53.4731C7.26016 52.9011 8.80017 52.3731 10.2962 51.8011C14.9162 50.0411 18.6562 46.9171 22.4842 43.8811C25.4322 41.5491 28.4682 39.3931 32.1642 38.3371C36.3882 37.1491 40.3922 37.8091 44.3962 39.0411C49.5442 40.6251 54.5602 42.6931 59.7522 44.0571C64.9002 45.4211 70.2682 45.1131 75.4602 43.9691C78.8482 43.2211 82.0602 41.8131 85.3162 40.7131C85.6242 40.6251 85.8882 40.3611 85.9762 40.3171C84.7002 37.8091 83.2042 35.5211 82.3242 32.9691C80.9162 28.8771 80.7842 24.7411 83.8642 21.2211C87.6482 16.8651 93.9402 18.2291 95.7882 23.7291C98.1202 30.5931 95.7442 36.0491 89.7162 39.7011C89.3202 39.9651 88.8802 40.1851 88.1762 40.6691C89.9362 41.9891 91.3882 43.3091 93.0162 44.2771C96.4042 46.3011 100.144 47.5771 104.016 48.4131C109.472 49.6011 114.972 50.2171 120.516 49.8651C125.312 49.6011 130.108 48.9411 134.904 48.4131C137.632 48.1051 140.36 47.6651 143.132 47.3131C144.76 47.0931 146.388 46.8291 148.016 46.5651C148.94 46.3891 149.468 45.9051 149.864 44.9371C152.02 39.6571 154.924 34.8171 158.4 30.2851C165.176 21.4851 173.36 14.3131 182.952 8.81307C192.632 3.26907 202.84 -0.514927 214.28 0.0570723C220.088 0.365072 225.412 1.90507 229.724 5.95307C232.452 8.50507 234.256 11.7171 235.224 15.3251C235.488 16.2931 235.84 16.6891 236.896 16.7771C243.276 17.3931 249.48 18.7571 255.552 20.8691C261.888 23.0691 267.872 25.8851 273.548 29.4491C278.432 32.4851 282.92 36.0051 286.88 40.1851C287.628 40.9771 288.288 41.0651 289.256 40.8011C293.7 39.7011 298.144 38.4251 302.632 37.6771C306.548 37.0171 310.552 36.5771 314.468 36.7971C318.912 37.0611 323.576 37.1931 327.58 39.5251C329.56 40.6691 331.584 40.7571 333.652 41.1091C338.184 41.9451 342.672 43.0451 347.204 44.0571C349.536 44.5851 351.868 45.2451 354.244 45.6851C358.204 46.4771 362.164 47.4451 366.168 47.8851C372.636 48.6331 378.884 47.7971 384.78 44.8051C388.036 43.1331 391.38 41.6811 394.68 40.1411C395.076 39.9651 395.472 39.9211 395.868 39.7891C395.912 39.8771 395.956 40.0091 396 40.0971C394.724 40.7131 393.404 41.2851 392.172 41.9011C389.444 43.2651 386.848 44.8051 384.032 45.9051C381.392 46.9611 378.664 47.9291 375.892 48.3691C372.504 48.8531 369.028 49.0291 365.64 48.8091C362.472 48.6331 359.304 47.8411 356.136 47.2251C353.32 46.6531 350.504 45.9051 347.688 45.2011C344.168 44.3211 340.648 43.3971 337.084 42.6051C335.412 42.2531 333.652 42.1651 331.628 41.9451C332.024 42.5611 332.2 42.8691 332.42 43.1771C334.136 45.5531 334.4 48.2371 333.784 50.9651C333.168 53.7371 330.616 55.8051 327.844 56.0251C325.204 56.2011 322.08 54.1771 320.936 51.4931C319.132 47.2691 321.2 43.0891 325.864 41.4171C326.304 41.2411 326.744 41.0651 327.536 40.7571C326.832 40.3611 326.48 40.0531 326.04 39.9211C323.136 38.9091 320.1 38.4251 317.02 38.0731C313.588 37.6771 310.244 37.6331 306.856 38.1611C302.5 38.8211 298.188 39.7011 293.832 40.4931C292.6 40.7131 291.412 41.0651 290.18 41.3731C289.74 41.5051 289.3 41.7251 288.816 41.9451C290.356 44.0131 291.896 45.9491 293.216 47.9731C296.604 53.0771 298.98 58.5331 298.98 64.8251C298.98 72.0851 295.812 77.6291 289.872 81.5891C285.12 84.7571 279.796 86.2971 274.12 86.7811C268.312 87.2651 262.548 86.9571 256.872 85.9451C249.04 84.5811 241.56 82.0291 234.432 78.5091C226.644 74.6371 219.56 69.7971 213.4 63.6811C212.872 63.1531 212.52 63.1091 211.948 63.6371C205.788 69.0051 198.88 73.3171 191.4 76.6171C185.284 79.2571 178.86 80.8851 172.216 81.3691C166.848 81.7651 161.612 80.8851 156.772 78.2451C152.988 76.1771 150.216 73.1411 148.456 69.2691C145.684 63.1091 146.124 56.8171 147.84 50.5251C148.192 49.3811 148.5 48.3691 148.896 47.0051ZM188.628 9.16507C188.716 9.29707 188.804 9.42907 188.892 9.56107C181.72 13.7851 175.12 18.7131 169.312 24.6091C163.416 30.5491 158.356 37.0611 155.276 45.0251C156.288 44.9811 157.168 44.7171 158.092 44.5851C158.972 44.4531 159.896 44.4531 160.82 44.4091C160.82 44.5411 160.864 44.6731 160.864 44.7611C160.688 44.8491 160.512 45.0251 160.336 45.0691C158.796 45.2891 157.256 45.4651 155.716 45.7731C155.32 45.8611 154.748 46.1251 154.616 46.4331C154.176 47.4891 153.824 48.5891 153.56 49.7331C153.252 50.9651 153.032 52.2851 152.812 53.5171C152.636 53.4731 152.46 53.4731 152.328 53.4291C152.768 51.0531 153.208 48.7211 153.648 46.1251C152.944 46.3011 152.504 46.5211 152.064 46.5211C150.436 46.4331 149.952 47.4011 149.644 48.7651C149.116 51.3611 148.588 53.9131 147.972 56.4651C147.488 58.3571 148.148 59.7211 149.468 60.9971C152.724 64.1651 156.684 65.4411 161.128 65.5291C162.272 65.5731 162.712 65.2651 162.668 64.0331C162.58 60.7771 163.284 57.6091 164.56 54.6171C166.056 51.1411 167.948 47.8411 169.62 44.4531C169.796 44.1011 169.84 43.6611 169.972 43.2211C170.324 42.8691 170.852 42.5171 171.248 42.0331C172.172 40.8891 173.008 39.6571 173.932 38.5131C179.96 31.2091 187.088 25.1371 195.316 20.4291C200.376 17.5251 205.612 15.0171 211.376 13.9171C214.412 13.3451 217.536 13.0811 220.66 12.7731C221.496 12.6851 222.024 12.5971 221.98 11.5851C221.804 8.32907 221.056 5.33707 218.9 2.74107C218.152 1.81707 217.272 1.33307 216.084 1.20107C206.888 0.321069 198.308 2.56507 190.08 6.30507C183.128 9.42907 176.792 13.6531 170.984 18.5811C163.372 25.0491 157.124 32.5731 152.504 41.5051C151.844 42.7371 151.36 44.0571 150.788 45.3771C153.032 45.9051 153.78 45.3771 154.704 43.6171C156.684 39.8771 158.576 36.0491 160.996 32.6171C166.452 24.8291 173.492 18.5811 181.456 13.3451C183.7 11.8491 186.208 10.5731 188.628 9.16507ZM297.968 63.8131C296.208 67.0251 293.876 69.4891 290.884 71.2931C286.572 73.8891 281.82 74.7691 276.936 75.0771C268.664 75.6491 260.612 74.2851 252.736 71.8651C245.168 69.5331 237.952 66.2331 231.308 61.8771C222.552 56.1571 214.764 49.5131 210.188 39.7891C207.9 34.9051 207.02 29.8451 209.396 24.6531C209.484 24.4331 209.484 24.1251 209.528 23.6851C209.176 23.8611 209 23.9051 208.868 23.9931C205.304 27.0291 203.06 30.8131 202.356 35.5211C201.608 40.8451 202.84 45.8171 205.26 50.5251C208.384 56.7291 212.784 61.8771 218.02 66.4091C225.148 72.5691 233.156 77.2331 241.956 80.6651C249.92 83.7451 258.104 85.6371 266.64 85.9451C274.032 86.2091 281.204 85.3291 287.76 81.5891C294.008 78.0691 297.836 72.8771 298.056 65.4411C298.1 64.9131 298.012 64.3411 297.968 63.8131ZM265.056 46.0371C265.1 45.9491 265.144 45.8171 265.188 45.7291C264.836 45.4211 264.528 45.1131 264.132 44.8491C258.808 41.2851 253.132 38.3811 247.06 36.3131C243.276 34.9931 239.36 34.1571 235.488 33.0571C234.608 32.7931 234.212 33.0571 233.904 33.9371C232.012 39.3051 229.328 44.3211 225.94 48.8971C225.368 49.6891 225.5 50.0851 226.16 50.6571C233.728 57.1251 242.308 61.8331 251.636 65.1331C257.4 67.1571 263.296 68.5651 269.368 69.0491C273.68 69.4011 277.948 69.2691 282.216 68.6091C283.096 68.4771 283.36 68.0811 283.008 67.2451C282.48 65.9691 282.04 64.6491 281.468 63.4171C278.256 56.7291 273.108 51.6691 267.3 47.2251C266.816 46.8291 266.024 46.7411 265.364 46.7411C263.252 46.6971 261.14 46.6971 258.984 46.6971C258.984 46.5651 258.984 46.4331 258.984 46.3451C261.008 46.2571 263.032 46.1251 265.056 46.0371ZM219.12 13.9611C213.268 14.1371 207.768 15.8091 202.444 18.0971C196.372 20.7371 190.828 24.2131 185.68 28.3491C179.872 33.0131 174.768 38.3811 170.764 44.6291C169.224 47.0491 167.772 49.6011 166.584 52.2411C164.868 56.0251 163.724 60.0291 163.68 64.2531C163.68 65.2211 164.032 65.6171 164.956 65.4411C167.992 64.8691 171.072 64.5171 174.02 63.6811C179.124 62.1851 183.964 59.8971 188.496 57.1691C193.16 54.3531 197.56 51.1411 201.564 47.4451C201.916 47.0931 202.092 46.3891 202.048 45.8611C201.74 43.2651 200.992 40.6691 200.948 38.0731C200.816 33.2771 202.4 28.9651 205.7 25.3131C209.528 21.0891 214.5 18.8891 219.912 17.4371C221.32 17.0851 221.98 16.0731 221.672 14.5771C221.408 13.3451 220.352 14.1371 219.648 13.9171C219.516 13.9171 219.296 13.9611 219.12 13.9611ZM234.696 31.6491C235.708 31.8691 236.588 32.0451 237.512 32.3091C241.252 33.3651 245.036 34.2451 248.644 35.6091C255.068 38.0731 261.184 41.1971 266.772 45.2891C267.212 45.5971 267.96 45.6851 268.488 45.6411C270.556 45.3331 272.624 44.9811 274.648 44.5411C276.892 44.0571 279.092 43.5291 281.292 42.9571C281.732 42.8251 282.084 42.5171 282.568 42.2531C277.464 36.9731 271.7 32.8811 265.452 29.4051C259.204 25.9731 252.56 23.5531 245.828 21.2651C246.092 21.1331 246.312 21.1331 246.532 21.1771C251.02 22.6291 255.596 23.8611 259.952 25.6211C268.664 29.1411 276.364 34.2451 282.876 41.1091C284.064 42.3411 284.856 42.3411 286.352 41.0211C272.184 27.4691 255.42 19.8131 235.752 17.7451C236.72 22.6291 235.752 27.0291 234.696 31.6491ZM147.972 64.6491C148.764 66.5411 149.336 68.3891 150.26 70.0171C153.868 76.4411 159.808 79.1691 166.804 79.9611C173.448 80.7091 179.872 79.3891 186.164 77.2771C195.448 74.1531 203.632 69.1811 211.112 62.9331C211.904 62.2731 211.772 61.8771 211.156 61.1291C209.308 58.8411 207.548 56.4651 205.876 54.0451C205.26 53.1651 204.908 53.1211 204.116 53.7811C197.604 59.1491 190.564 63.6811 182.732 66.9371C176 69.7531 169.004 71.7331 161.612 71.0291C159.104 70.8091 156.552 70.1491 154.308 69.0931C152.152 68.0811 150.304 66.3211 147.972 64.6491ZM297.088 60.4251C296.604 61.0851 296.164 61.7891 295.68 62.4491C292.028 67.2011 286.748 68.9611 281.16 69.9291C276.056 70.8091 270.908 70.5891 265.76 69.8411C258.192 68.7411 250.976 66.4531 244.068 63.2411C234.168 58.6651 225.28 52.7251 218.328 44.2331C214.72 39.8331 211.86 34.9931 211.42 29.0971C211.288 27.1611 211.552 25.2251 211.64 23.0691C211.288 23.5091 210.98 23.8171 210.804 24.1691C209.176 27.4691 208.868 30.9451 209.66 34.5091C210.98 40.2731 214.148 45.0691 218.108 49.3811C224.312 56.2011 231.792 61.3491 240.02 65.4851C246.884 68.9611 254.056 71.4691 261.58 72.9211C268.356 74.2411 275.176 74.6811 281.996 73.2731C286.352 72.3931 290.4 70.8531 293.612 67.5971C295.548 65.6611 296.78 63.2851 297.088 60.4251ZM222.464 2.87307C222.904 3.44507 223.124 3.70907 223.3 4.01707C224.224 5.68907 225.324 7.27307 225.984 9.07707C227.744 13.8731 226.996 18.7131 225.632 23.4211C224.136 28.6131 221.54 33.3211 218.548 37.7651C216.788 40.4051 216.744 40.4491 218.768 42.9131C220.484 44.9811 222.332 46.9611 224.312 49.2051C225.544 47.3131 226.688 45.7731 227.656 44.1451C231.308 38.0291 234.168 31.6051 234.696 24.3891C235.18 18.1411 234.124 12.2451 229.592 7.49307C227.7 5.46907 225.456 3.88507 222.464 2.87307ZM290.62 51.9331C290.488 52.0211 290.356 52.0651 290.224 52.1531C290.092 51.9331 289.916 51.7571 289.784 51.5371C287.936 49.0291 286.132 46.5211 284.284 43.9691C283.844 43.3531 283.404 43.1771 282.568 43.3531C279.092 44.2331 275.572 44.9811 272.052 45.7731C270.996 45.9931 269.94 46.1691 268.752 46.3891C268.972 46.6971 269.06 46.8291 269.192 46.9611C269.5 47.2251 269.808 47.4891 270.116 47.7531C273.944 50.9651 277.552 54.3531 280.148 58.6211C281.688 61.2171 282.876 64.0331 284.152 66.7171C284.416 67.2891 284.504 67.9491 285.428 67.6411C289.872 66.2771 293.656 63.9891 295.944 59.7211C296.78 58.2251 296.648 56.7731 295.988 55.2771C294.096 50.8331 291.544 46.8291 288.376 43.2211C287.144 41.8131 286.308 41.8131 284.9 43.1771C285.912 44.5851 287.012 45.9491 287.936 47.4011C288.904 48.9411 289.74 50.4811 290.62 51.9331ZM148.896 62.8011C151.316 66.9371 155.452 68.8731 160.204 69.6651C165.308 70.5451 170.456 69.9731 175.296 68.3451C179.784 66.8491 184.184 65.0451 188.408 62.9771C194.084 60.2051 199.188 56.4651 203.984 52.3731C204.204 52.1971 204.512 51.8011 204.468 51.6691C203.984 50.5251 203.368 49.3811 202.752 48.1931C202.4 48.5011 202.224 48.6331 202.048 48.7651C197.56 52.6811 192.764 56.2011 187.572 59.1051C182.38 62.0091 176.968 64.3411 171.116 65.7491C166.1 66.9371 161.084 67.2891 156.112 66.0131C153.56 65.3531 151.228 63.8571 148.896 62.8011ZM95.7442 28.7891C95.3042 27.0731 95.0402 25.3131 94.3802 23.6851C92.6202 19.3291 88.0002 18.5371 84.7882 21.9251C83.3362 23.4651 82.7202 25.3131 82.5882 27.3811C82.4122 31.2091 83.7322 34.5531 85.8882 37.6331C87.3842 39.7451 87.4282 39.7451 89.5402 38.4251C93.0602 36.1811 95.4802 33.2771 95.7442 28.7891ZM332.86 48.4131C332.904 46.3451 332.068 44.2771 330.308 42.6051C330 42.2971 329.56 41.9891 329.164 42.0331C326.48 42.0771 324.192 42.9571 322.564 45.2011C321.024 47.2691 320.936 49.5571 322.256 51.7571C323.444 53.7811 325.16 55.1011 327.712 54.9251C330.528 54.7491 332.86 52.0211 332.86 48.4131ZM215.996 38.9971C216.26 38.7771 216.392 38.6891 216.48 38.6011C220.66 32.7931 224.004 26.5891 225.324 19.4611C226.292 14.2251 225.852 9.20907 222.508 4.80907C222.068 4.23707 221.496 3.79707 220.924 3.22507C220.836 3.53307 220.836 3.62107 220.836 3.62107C220.924 3.84107 221.012 4.01707 221.1 4.23707C223.696 9.20907 223.344 14.3571 221.98 19.5051C220.528 25.0491 217.8 30.0211 214.676 34.7731C214.456 35.1251 214.28 35.7411 214.456 36.0931C214.852 37.0171 215.424 37.9411 215.996 38.9971ZM221.012 18.8011C220.924 18.6691 220.792 18.5371 220.704 18.4051C218.9 19.0211 217.096 19.5051 215.336 20.2531C214.72 20.5171 214.06 21.1331 213.752 21.7491C212.212 24.7411 211.992 27.9091 212.784 31.1211C212.916 31.6491 213.312 32.1331 213.62 32.6171C214.192 32.2651 215.028 32.0011 215.292 31.5171C216.876 28.6131 218.328 25.6651 219.736 22.6731C220.308 21.4851 220.616 20.1211 221.012 18.8011Z" fill="#35611A"/>
<path d="M0 32.5649C1.54 32.8289 3.08 33.0929 4.62 33.3569C4.664 33.2249 4.664 33.0489 4.708 32.9169C3.168 32.6529 1.628 32.3889 0.0880003 32.1249C0.0440003 32.2569 0.044 32.4329 0 32.5649Z" fill="#35611A"/>
<path d="M168.388 43.2131C166.188 42.9051 163.944 42.6411 161.744 42.3331C161.744 42.4651 161.7 42.6411 161.7 42.7731C163.9 43.1251 166.1 43.4771 168.3 43.8291C168.3 43.6531 168.344 43.4331 168.388 43.2131Z" fill="#35611A"/>
<path d="M250.448 40.3967C248.512 40.3967 246.62 40.3967 244.684 40.3967C244.684 40.4847 244.684 40.5287 244.684 40.6167C246.62 40.6167 248.512 40.6167 250.448 40.6167C250.448 40.5287 250.448 40.4407 250.448 40.3967Z" fill="#35611A"/>
<path d="M180.092 44.1366C178.068 44.1366 176 44.1366 173.976 44.1366C175.956 44.8406 178.068 44.4886 180.092 44.6206C180.092 44.4446 180.092 44.3126 180.092 44.1366Z" fill="#35611A"/>
<path d="M191.576 44.1368C190.564 44.1368 189.596 44.1368 188.584 44.1368C188.584 44.2248 188.584 44.3128 188.584 44.4448C189.596 44.4448 190.564 44.4448 191.576 44.4448C191.576 44.3568 191.576 44.2688 191.576 44.1368Z" fill="#35611A"/>
</svg>
