<svg width="112" height="114" viewBox="0 0 112 114" fill="none" xmlns="http://www.w3.org/2000/svg">
<path d="M112 114C112 75.9914 112 37.9828 112 0H109C109 38.0086 109 75.9914 109 114H112Z" fill="#9EB98D"/>
<path d="M101.3 100.7C101.3 67.1258 101.3 33.5515 101.2 0H98C98.1 33.5743 98.1 67.1485 98.1 100.7H101.3Z" fill="#9EB98D"/>
<path d="M100.7 99.9998C67.1258 99.9998 33.5515 99.9998 -1.44247e-07 99.9998L0 103.3C33.5743 103.3 67.1258 103.3 100.7 103.3L100.7 99.9998Z" fill="#9EB98D"/>
<path d="M111 111C73.9916 111 36.9833 111 -1.27161e-07 111.091L0 114C37.0084 113.909 74.0167 113.909 111 113.909L111 111Z" fill="#9EB98D"/>
</svg>
