<svg width="246" height="243" viewBox="0 0 246 243" fill="none" xmlns="http://www.w3.org/2000/svg">
<path opacity="0.35" d="M237.231 214.6C231.931 214.6 226.531 213.2 221.231 212.5C223.831 210.2 226.331 208 228.931 206C229.631 205.5 230.831 205.6 231.731 205.6C230.471 205.6 195.771 205.6 230.471 205.6C230.471 205.6 213.131 205.6 231.331 205.6L231.731 202.3C178.731 202.3 231.331 202.3 231.331 202.3C231.731 201.3 232.131 200.4 232.331 199.5C233.031 197.1 232.031 195.8 229.631 196.5C224.831 197.9 220.131 199.6 215.531 201.4C213.631 202.1 211.931 203.4 210.431 204.8C204.031 210.4 196.131 213.4 188.631 217.1C187.631 217.6 186.031 217 184.231 216.9C187.831 213.3 189.731 209.4 190.431 204.9C190.631 203.8 190.031 202.6 189.831 201.5C188.731 201.8 187.531 202 186.531 202.5C183.931 204 181.531 206 178.931 207.4C175.031 209.4 171.431 211.5 168.731 215.2C164.631 220.7 163.731 221 154.631 221.8C137.731 223.3 120.831 222.2 104.131 219C103.831 218.9 103.431 218.8 102.531 218.5C104.931 218.1 106.731 217.7 108.631 217.4C110.431 217.1 112.331 216.8 114.131 216.5C120.631 215.3 127.031 214.1 133.531 213C140.531 211.8 147.631 210.9 154.631 209.6C158.931 208.9 162.331 206.4 164.831 202.9C166.731 200.3 166.031 198.4 162.931 198C153.731 197 145.431 199 138.331 205.2C135.431 207.7 132.831 210.9 128.531 211.2C128.031 211.2 127.531 211.3 127.431 211.3C129.331 207.6 131.431 203.8 133.231 199.9C133.831 198.6 134.131 197 134.131 195.5C134.131 194.4 133.431 193.3 133.131 192.2C132.131 192.6 130.931 192.7 130.031 193.4C125.031 197.1 121.631 201.9 120.231 207.9C119.231 212.3 116.631 214.1 112.431 214.5C106.631 215.1 100.931 215.8 95.231 216.6C92.931 216.9 90.631 217.4 88.431 217.8C88.431 215.7 89.031 213.6 88.231 212.3C87.531 211 85.431 210.4 83.931 209.5C84.531 208.6 85.531 207.5 86.031 206.1C87.631 202.5 86.331 199.9 82.531 199C80.931 198.6 79.231 198.6 77.531 198.8C74.631 199.1 71.731 199.6 69.131 199.9C67.531 197.5 67.831 196.4 69.531 194.9C72.431 192.3 75.031 189.3 77.431 186.3C78.131 185.5 77.731 183.8 77.931 182.5C76.831 183 75.431 183.2 74.631 184C71.931 186.8 69.531 189.9 66.731 192.7C67.031 188.9 69.331 184.6 63.531 182.8C65.031 180.7 66.431 178.7 67.831 176.7C68.431 175.9 69.031 175 69.231 174.1C69.431 173 69.131 171.9 69.031 170.7C68.031 171.2 66.731 171.5 66.131 172.3C64.731 174.1 63.631 176.2 62.331 178.1C61.731 179 61.031 179.7 60.131 180.7C58.131 178 55.831 176.2 51.831 177C53.131 175.3 54.031 173.9 55.031 172.6C55.831 171.6 56.931 170.7 57.631 169.6C58.131 168.8 58.031 167.7 58.131 166.7C57.131 166.8 55.731 166.6 55.331 167.2C52.831 170 50.631 173 48.431 175.9C47.931 176.5 47.731 177.3 47.431 177.8C45.231 176.7 43.131 175.6 40.831 174.4C41.031 171.9 41.331 169.2 41.331 166.4C41.331 161.8 39.331 159.6 34.831 158.6C34.731 156.7 35.031 154.7 34.431 152.8C34.031 151.3 32.831 149 31.731 148.8C30.131 148.6 28.331 149.9 26.631 150.7C26.231 150.9 26.031 151.3 25.231 152.3C25.231 148.6 25.031 145.6 25.331 142.7C25.431 141.7 26.931 140.7 28.031 140.1C30.331 138.9 32.731 138.1 35.131 137C42.131 133.7 47.131 128.8 49.031 121.1C49.131 120.6 49.431 120 49.331 119.5C49.131 118.4 49.031 117.1 48.331 116.5C47.831 116.1 46.331 116.4 45.431 116.8C42.031 118.5 38.431 120 35.231 122.1C32.231 124.2 29.631 126.9 26.431 129.6C27.731 124.8 29.031 120.4 30.331 115.9C30.731 114.4 31.131 112.8 31.231 111.2C31.531 105.4 31.531 99.6999 32.031 93.8999C32.131 92.4999 33.431 90.9999 34.531 89.8999C44.331 80.6999 48.131 68.9999 48.131 55.8999C48.131 53.8999 48.731 51.0999 46.331 50.1999C43.831 49.2999 43.131 52.1999 41.931 53.6999C40.031 56.0999 38.231 58.4999 36.731 61.0999C32.231 68.4999 33.031 76.6 36.031 84C34.531 85.1 32.931 86.3999 31.031 87.8999C30.131 82.8999 28.631 77.7 28.431 72.5C28.131 66.3 28.831 60.1 29.331 53.8C29.431 52.7 30.031 51.3999 30.831 50.6999C39.331 42.8999 41.831 32.9 41.431 21.8C41.331 18.1 40.531 17.6 37.431 17.6L33.531 19.4252C33.531 59.1252 33.531 19.4 33.531 19.4C33.531 21.4 33.731 23.5 31.131 25.1C31.131 23.3 31.131 21.9 31.131 20.4C31.131 15 31.231 9.49997 31.131 4.09997C31.131 2.69997 30.131 1.3 29.631 0C28.431 0.8 27.231 1.49996 26.031 2.39996C25.531 2.69996 25.331 3.39995 24.631 4.19995C24.631 2.39998 24.631 37 24.631 2.39996L21.231 8.9191C21.231 45.1191 21.231 8.89996 21.231 8.89996C21.231 10.5 21.431 12.1999 21.131 13.6999C19.431 21.8999 19.731 30.1 20.731 38.4C20.931 39.9 20.231 41.8 19.331 43C15.931 47.5 13.131 52.2999 11.731 57.8999C11.631 58.1999 11.431 58.3999 11.231 58.6999C11.531 54.0999 11.931 49.7 11.931 45.3C11.931 40.4 11.031 35.6999 8.03096 31.6999C7.43096 30.9999 6.33096 30.4 5.43096 30.3C4.93096 30.3 3.93096 31.3 3.73096 32C2.53096 35.8 1.23096 39.6 0.430962 43.6C-1.16904 51.7 1.83096 58.4999 7.03096 64.3999C7.93096 65.3999 9.53096 65.8 10.331 66.8C11.631 68.5 12.631 70.4 13.631 72.3C15.831 76.9 19.331 80.1999 23.731 82.5999C25.031 83.2999 26.731 84.3999 27.131 85.5999C28.831 91.1999 28.831 97.0999 28.431 102.4C25.031 98.9999 21.531 95.5 18.131 92C16.531 90.4 15.131 90.5999 14.231 92.6999C13.831 93.5999 13.631 94.6 13.531 95.5C13.031 105.4 15.031 114.4 22.331 121.7C23.231 122.6 24.331 124 24.131 125C23.731 128.5 22.731 131.9 21.831 135.8C20.831 134.7 20.231 133.9 19.531 133.2C16.631 130.6 13.731 128 10.631 125.5C10.031 125 8.53096 124.6 8.03096 124.9C7.33096 125.4 6.73096 126.6 6.83096 127.5C7.03096 135.9 9.43096 143.4 15.631 149.4C17.531 151.3 19.031 153.7 20.531 156C20.831 156.5 20.631 158.2 20.231 158.4C17.231 159.8 16.131 162.5 15.831 165.3C14.631 177.1 16.531 188.2 24.131 197.8C26.231 200.5 28.031 203.5 29.531 206.6C31.631 211.1 34.731 214.3 39.231 216C43.431 217.6 47.831 218.7 52.131 220.2C59.331 222.8 66.431 225.6 73.631 228C77.831 229.4 82.031 229.2 86.131 227.1C89.431 225.4 90.131 223.6 88.331 220C91.631 220 94.831 219.7 98.031 220C110.731 221.3 123.531 222.7 136.231 224.4C140.431 225 144.631 226.4 148.731 227.8C152.331 229 155.831 230.6 159.331 232.2C161.931 233.4 164.631 234.4 166.731 236.1C175.031 243.1 184.031 243.7 193.731 239.4C194.631 239 195.531 238.1 195.731 237.3C195.831 236.9 194.731 235.7 193.931 235.4C188.931 233.1 183.831 231 178.731 228.8C180.631 228.6 182.731 228.2 184.731 228.1C190.931 227.7 196.831 226.6 201.631 222.5C203.331 221.1 204.631 221.4 206.431 222C210.631 223.3 214.931 224.8 219.231 225.3C227.031 226.1 234.631 224.6 240.631 219.1C242.331 217.6 243.831 217 245.931 217L237.231 214.7V214.6ZM161.631 201.4C159.031 206 149.031 209.4 138.831 209.3C145.531 202.8 152.831 200.3 161.631 201.4ZM131.231 196.2C129.731 201.6 127.931 206.1 123.231 209.7C124.431 204.1 126.331 199.6 131.231 196.2ZM45.731 120.7C43.531 131.4 34.831 134.5 26.631 138.2C26.231 132.1 36.631 122.6 45.731 120.7ZM44.431 56C43.931 65.2 43.131 73.6999 37.631 81.0999C34.431 71.9999 36.431 64 44.431 56ZM7.73096 59.5C2.73096 55.2 2.13096 44.9999 6.63096 35.6999C9.93096 43.8999 9.03096 51.7 7.73096 59.5ZM37.331 23.9C39.231 31.3 34.531 44.3 28.531 48.3C27.631 39 30.331 31.5 37.331 23.9ZM15.331 69.1999C18.731 65.3999 22.131 61.6999 24.931 58.5999C24.931 61.5999 24.931 65.4 24.931 69.3C24.931 73 25.031 76.7 25.031 80.3C20.031 78.5 17.431 73.8999 15.331 69.1999ZM14.631 64.8C13.931 57.9 17.731 49.5 25.031 41.5C27.431 46.9 22.131 58.9 14.631 64.8ZM25.331 37.1C24.831 37 24.431 37 23.931 36.9C22.131 26.8 22.731 16.9 27.531 7.5C27.431 17.5 29.831 27.6 25.331 37.1ZM85.931 213.7C84.331 216.7 82.231 218.3 79.431 218.3C73.931 218.5 68.431 218.4 62.931 218.1C69.931 213.3 77.231 211 85.931 213.7ZM76.931 202.4C79.231 201.6 82.031 201.1 83.231 203.2C84.431 205.5 82.031 207.2 80.131 208.4C78.631 209.3 76.931 209.9 75.131 210.7C75.831 207.7 76.231 205.4 76.931 202.4C76.731 202.5 76.531 202.7 76.931 202.4ZM64.531 204.6C59.831 210 54.031 213 46.631 212.7C51.931 210.5 55.231 206.1 58.731 202C59.231 201.5 59.631 200.9 60.131 200.4C61.431 199.3 62.531 197.4 64.631 198.6C65.931 199.4 65.731 203.3 64.531 204.6ZM35.531 162C38.031 163.2 38.431 165.6 38.131 167.5C37.631 171.1 39.031 175.7 33.531 177.8C34.131 172.4 32.331 167.1 35.531 162ZM16.931 96.1999C21.931 98.7999 24.531 103.3 26.931 108.2C29.231 112.9 26.631 116.8 25.631 121.2C18.931 115.5 15.031 104.1 16.931 96.1999ZM10.431 130.3C18.831 135.6 23.131 142.7 21.931 152.7C15.731 146.5 9.93096 140.2 10.431 130.3ZM25.831 184.8C25.231 187.5 24.531 190.2 23.931 193C23.731 193.1 23.631 193.2 23.431 193.3C22.131 189.3 20.231 185.4 19.631 181.3C18.931 176.4 19.031 171.2 19.231 166.2C19.231 164.7 20.631 163.3 21.431 161.8C21.831 161.9 22.131 162 22.531 162.1C22.831 163.5 23.131 164.9 23.331 166.4C24.131 171.9 24.931 177.5 25.731 183C25.831 183.6 26.031 184.3 25.831 184.8ZM27.831 154.5C28.531 153.4 29.531 152.6 30.331 151.6C30.631 151.7 30.931 151.9 31.231 152C31.231 154.9 31.331 157.9 31.231 160.8C31.031 166.1 30.631 171.5 30.631 176.8C30.631 178.8 30.331 179.8 28.131 180.2C27.531 176.9 26.631 173.6 26.431 170.3C26.031 165.1 24.531 159.5 27.831 154.5ZM32.931 207C31.231 203.5 29.431 200.1 27.931 196.5C26.531 193 27.031 189.4 28.731 185.9C30.431 182.4 30.331 182.4 34.131 183.7C31.231 191.3 33.431 199.1 32.931 207ZM34.931 191.1C35.131 187.4 37.531 184 36.631 180C39.431 177.7 42.531 177.9 44.331 180.8C44.831 181.6 45.131 183.1 44.731 183.9C41.731 190.1 38.431 196.2 34.931 203.2C34.931 198.7 34.731 194.9 34.931 191.1ZM49.031 183.1C49.931 181.9 51.431 181 52.831 180.3C54.431 179.5 55.731 180.1 56.731 181.6C57.731 183.1 57.231 184.1 56.031 185.2C49.331 191.2 44.431 198.6 39.431 206C38.431 207.5 37.831 209.1 37.031 210.7C39.031 200.6 42.831 191.3 49.031 183.1ZM39.231 211.4C40.431 209.4 41.131 207.8 42.131 206.5C46.531 200.7 50.931 194.9 55.631 189.3C57.031 187.6 59.231 186.6 61.231 185.5C62.031 185.1 63.331 185.3 64.231 185.7C64.631 185.9 64.731 187.3 64.631 188.1C64.031 191.7 62.531 194.6 59.431 197C56.731 199.1 54.631 202 52.331 204.6C49.031 208.3 44.931 210.5 39.231 211.4ZM46.431 215.7C55.731 214.8 63.431 211.3 68.231 202.5C68.631 202.5 69.331 202.3 69.831 202.5C71.131 203.2 72.731 203.8 73.331 204.9C73.731 205.6 72.831 207.6 71.931 208.3C68.631 211 65.631 214.1 61.231 215.4C56.331 216.8 51.531 216.9 46.431 215.7ZM86.331 224.3C83.831 226.5 80.731 227.4 77.531 226.8C73.831 226.1 70.131 225.2 66.431 224.2C64.031 223.6 61.731 222.7 59.331 221.9C58.531 221.6 57.831 221.2 57.231 220.4C59.831 220.5 62.431 220.7 65.031 220.8C69.231 221 73.431 220.9 77.531 221.3C80.531 221.6 83.431 222.6 86.431 223.2C86.431 223.6 86.331 223.9 86.331 224.3ZM218.731 203.4C221.831 202 225.131 200.9 228.431 200C225.431 207.4 219.031 209.8 212.331 211.8C211.631 206.6 215.331 205 218.731 203.4ZM186.731 206.2C186.431 212.9 181.731 216.3 171.531 217.4C174.931 210.9 182.131 210.6 186.731 206.2ZM190.131 238.2C183.431 241.9 173.231 239.8 167.531 233.4C174.031 232.2 186.031 234.8 190.131 238.2ZM172.631 228.4C164.731 230.6 156.631 232 149.331 225.6C152.331 225.2 155.331 225 158.131 224.5C162.131 223.7 166.131 222.9 170.031 221.7C174.931 220.2 179.931 219.9 185.231 220.1C182.831 226 177.431 227 172.631 228.4ZM184.531 226.2C187.031 223.7 188.831 221.1 191.331 219.6C196.731 216.5 202.531 214 208.031 211.3C204.731 219.4 194.231 226.4 184.531 226.2ZM206.831 219.3C207.531 217.6 208.831 217.2 210.631 216.7C219.631 214.2 228.231 216.8 236.931 218.6C230.031 224.3 216.331 224.8 206.831 219.3Z" fill="#9EB98D"/>
</svg>
