<svg width="112" height="114" viewBox="0 0 112 114" fill="none" xmlns="http://www.w3.org/2000/svg">
<path d="M1.75886e-05 9.89636e-06C1.42658e-05 38.0086 1.0943e-05 76.0172 7.62239e-06 114L3.00001 114C3.00001 75.9914 3.00001 38.0086 3.00002 1.01586e-05L1.75886e-05 9.89636e-06Z" fill="#9EB98D"/>
<path d="M10.7 13.3C10.7 46.8743 10.7 80.4485 10.8 114L14 114C13.9 80.4258 13.9 46.8515 13.9 13.3L10.7 13.3Z" fill="#9EB98D"/>
<path d="M11.3 14.0002C44.8742 14.0002 78.4485 14.0002 112 14.0002L112 10.7002C78.4258 10.7002 44.8742 10.7002 11.3 10.7002L11.3 14.0002Z" fill="#9EB98D"/>
<path d="M1.00001 3C38.0084 3 75.0167 3.00003 112 2.90912L112 9.79135e-06C74.9916 0.0909175 37.9833 0.0908936 1.00001 0.090892L1.00001 3Z" fill="#9EB98D"/>
</svg>
