<svg width="46" height="80" viewBox="0 0 46 80" fill="none" xmlns="http://www.w3.org/2000/svg">
<g opacity="0.5">
<path d="M0.227238 79.611C6.92724 72.611 12.4273 63.8109 16.1273 54.7109C16.2273 54.8109 16.4273 54.811 16.5273 54.611C16.8273 53.911 17.4273 53.411 18.0273 52.911C18.4273 52.611 19.5273 51.511 20.1273 51.911C20.5273 52.111 20.1273 52.811 20.0273 53.111C19.7273 53.511 19.2272 53.811 18.7272 54.111C18.0272 54.511 17.0272 54.7109 16.3272 55.2109C16.2272 55.3109 16.2272 55.411 16.2272 55.511C16.2272 55.511 16.2272 55.511 16.2272 55.611C16.2272 55.711 16.3272 55.811 16.4272 55.811C16.9272 55.9109 17.5273 55.611 17.9272 55.411C18.6273 55.111 19.2272 54.711 19.8272 54.311C20.6272 53.711 21.3273 52.6109 20.6273 51.7109C20.0273 51.0109 18.8272 51.711 18.3272 52.111C17.7272 52.511 17.0273 53.111 16.5273 53.811C16.8273 53.111 17.1272 52.311 17.3272 51.611C18.3272 48.811 19.4272 45.911 20.3272 42.911C21.2272 42.311 21.8273 41.411 22.5273 40.611C23.0273 40.011 23.5272 39.411 24.2272 39.011C24.6272 38.711 25.5272 38.811 25.3272 39.511C25.0272 40.611 23.4273 41.411 22.5273 41.911C21.9273 42.311 20.7272 42.6109 20.3272 43.2109C20.3272 43.3109 20.3272 43.411 20.4272 43.411C20.8272 43.611 21.3273 43.211 21.6273 43.111C22.3273 42.711 23.0273 42.311 23.6273 41.911C24.5273 41.311 26.0273 40.311 25.9272 39.111C25.8272 37.711 24.0272 38.2109 23.3272 38.7109C22.6272 39.3109 22.0273 40.0109 21.5273 40.7109C21.2273 41.1109 20.9273 41.611 20.5273 42.111C21.4273 39.311 22.3273 36.411 23.1273 33.411C23.4273 32.911 23.7273 32.411 24.0273 31.911C25.8273 30.311 28.6273 30.611 30.9272 31.111C32.4272 31.411 34.9272 32.1109 35.2272 33.8109C35.2272 33.9109 35.4273 34.111 35.5273 34.011C37.3273 32.911 32.5273 30.9109 32.0273 30.8109C29.8273 30.1109 26.8272 29.711 24.8272 30.911C24.9272 30.811 25.0273 30.711 25.0273 30.611C25.0273 30.611 25.0273 30.611 25.1273 30.611C27.7273 28.111 31.5273 26.6109 35.1273 26.7109C35.6273 26.7109 41.5272 27.311 41.4272 27.611C41.3273 27.811 41.5273 27.911 41.6273 27.911C41.4273 28.411 41.4272 28.911 41.7272 29.411C42.3272 30.411 43.8273 30.911 44.6273 29.911C45.2273 29.211 45.1272 28.011 44.7272 27.311C44.1272 26.311 42.8272 26.3109 42.2272 27.2109C42.1272 27.2109 42.1273 27.311 42.1273 27.311C41.6273 25.911 36.8272 26.111 35.8272 26.011C32.4272 25.811 28.8272 26.911 26.2272 29.111C29.5272 25.211 33.5273 22.411 38.5273 20.411C38.5273 20.811 38.6273 21.211 38.9272 21.511C39.5272 22.411 40.7273 22.811 41.6273 22.111C42.3273 21.511 42.5272 20.5109 42.2272 19.7109C41.9272 18.7109 40.6272 18.211 39.8272 19.011C39.7272 19.111 39.7272 19.2109 39.7272 19.3109C39.4272 19.3109 39.1273 19.511 38.9272 19.611C38.7272 19.711 38.6273 19.911 38.5273 20.111C37.8273 20.211 37.2273 20.411 36.5273 20.611C36.8273 20.211 36.8273 19.511 36.6273 19.011C36.6273 18.911 36.5272 18.8109 36.4272 18.7109C36.5272 18.6109 36.5272 18.3109 36.2272 18.2109C36.1272 18.2109 35.9272 18.2109 35.8272 18.2109C35.5272 18.0109 34.9272 17.9109 34.7272 18.3109C34.7272 18.4109 34.7272 18.411 34.7272 18.511C34.7272 18.511 34.7272 18.511 34.8272 18.611C34.5272 18.811 34.3272 19.111 34.3272 19.511C34.2272 20.311 34.9272 20.911 35.7272 20.911C30.6272 22.811 26.4273 27.2109 23.6273 31.8109C23.9273 30.6109 24.2273 29.4109 24.5273 28.2109C24.5273 28.3109 24.7272 28.311 24.7272 28.311C26.9272 26.011 28.8272 23.411 30.3272 20.611C31.2272 18.911 32.8273 15.911 31.6273 13.911C31.5273 13.711 31.2272 13.811 31.3272 14.011C32.2272 18.711 27.5273 24.611 24.5273 28.011C25.4273 23.911 26.2273 19.7109 26.5273 15.7109C26.5273 15.5109 26.3272 15.5109 26.3272 15.7109C24.3272 26.1109 21.6273 36.311 18.4272 46.311C18.7272 44.411 18.3272 41.2109 16.4272 41.2109C15.4272 41.2109 15.4272 42.6109 15.4272 43.3109C15.5273 43.9109 15.7273 44.511 16.0273 45.011C16.5273 45.711 17.2272 46.6109 17.8272 47.2109C17.8272 47.3109 17.9273 47.411 18.0273 47.411C17.8273 48.111 17.5272 48.911 17.3272 49.611C15.1272 56.111 11.9272 62.011 8.32724 67.611C8.82724 66.211 8.92726 64.4109 8.02726 63.2109C7.92726 63.0109 7.62726 63.1109 7.52726 63.2109C6.92726 64.0109 6.82724 65.011 6.82724 66.011C6.82724 66.811 6.82724 68.0109 7.32724 68.7109C7.42724 68.9109 7.72724 68.811 7.72724 68.611C7.72724 68.511 7.72724 68.511 7.72724 68.411L7.82724 68.511C5.32724 72.311 2.62726 75.911 0.027256 79.611C-0.072744 79.611 0.127238 79.711 0.227238 79.611ZM43.6273 27.511C43.7273 27.611 43.8273 27.611 43.9272 27.811C44.2272 28.2109 44.2273 28.7109 44.0273 29.2109C43.9273 29.4109 43.8272 29.511 43.8272 29.511C43.5272 29.611 43.2273 29.411 43.0273 29.311C42.7273 29.111 42.5273 28.7109 42.6273 28.311C42.7273 27.811 43.2273 27.611 43.6273 27.511ZM40.8272 19.911C40.9272 19.911 40.9272 19.9109 40.9272 19.8109C41.0272 19.9109 41.1273 19.911 41.1273 20.011C41.3273 20.311 41.2273 20.811 41.0273 21.111C40.9273 21.311 40.8272 21.411 40.7272 21.411C40.6272 21.511 40.4272 21.4109 40.2272 21.3109C39.9272 21.2109 39.4273 20.711 39.5273 20.411C39.7273 20.011 40.4272 19.911 40.8272 19.911ZM35.3272 19.611C35.2272 19.411 35.4273 19.211 35.6273 19.011C35.7273 19.011 35.7272 19.1109 35.8272 19.2109C36.0272 19.4109 36.0272 19.711 35.9272 20.011C35.9272 20.111 35.4272 19.811 35.3272 19.611ZM16.8272 44.8109C16.2272 44.1109 15.9272 43.011 16.2272 42.111C16.5272 41.311 17.3272 42.511 17.4272 42.8109C17.6273 43.3109 17.7272 43.8109 17.7272 44.3109C17.8272 44.9109 17.8272 45.411 17.8272 46.011C17.5272 45.611 17.1272 45.2109 16.8272 44.8109ZM7.52726 66.511C7.42726 65.711 7.52724 64.811 7.82724 64.111C8.32724 65.211 7.92724 66.711 7.72724 67.911C7.62724 67.411 7.52726 67.011 7.52726 66.511Z" fill="#35611A"/>
<path d="M13.5272 57.611C13.6272 57.611 13.7272 57.511 13.7272 57.411C14.1272 55.811 14.2272 53.411 12.7272 52.311C12.6272 52.211 12.4272 52.211 12.3272 52.311C11.5272 53.111 11.4272 53.911 11.6272 55.011C11.8272 55.911 12.4272 57.311 13.3272 57.711C13.3272 57.811 13.4272 57.711 13.5272 57.611ZM12.7272 55.811C12.2272 54.911 11.9272 53.911 12.5272 53.111C13.4272 54.011 13.3272 55.411 13.2272 56.611C13.0272 56.311 12.8272 56.111 12.7272 55.811Z" fill="#35611A"/>
<path d="M12.9272 61.611C12.7272 61.911 13.2272 62.211 13.4272 61.911C13.7272 61.411 16.7272 59.711 16.9272 60.711C17.1272 61.811 15.8272 62.011 15.0272 62.011C14.3272 62.111 13.5272 61.811 12.9272 62.211C12.7272 62.311 12.8272 62.611 12.9272 62.611C13.3272 62.911 13.9272 62.811 14.4272 62.811C15.0272 62.811 15.6272 62.811 16.1272 62.611C17.0272 62.311 17.9272 61.411 17.5272 60.411C16.8272 58.811 13.5272 60.611 12.9272 61.611Z" fill="#35611A"/>
<path d="M23.2271 25.4109C23.5271 23.0109 22.7271 21.011 21.5271 19.011C21.6271 19.011 21.6272 18.9109 21.6272 18.8109C20.9272 17.4109 21.2271 15.8109 21.4271 14.3109C21.5271 13.5109 21.6271 12.811 21.7271 12.011C21.7271 12.011 22.6271 8.71096 22.9271 9.11096C22.9271 9.21096 22.9271 9.31095 23.0271 9.41095C23.3271 10.1109 24.2271 10.4109 24.8271 10.4109C25.4271 10.4109 25.9271 10.2109 26.2271 9.81094C26.8271 9.11094 26.8271 7.81095 26.3271 7.01095C25.8271 6.01095 24.4271 5.71094 23.8271 6.81094C23.8271 6.91094 23.8271 6.91095 23.8271 7.01095C23.6271 7.21095 23.5271 7.41095 23.4271 7.51095C23.2271 7.81095 23.0271 8.11095 22.9271 8.41095C22.8271 8.41095 22.8271 8.41095 22.7271 8.41095C21.3271 9.01095 21.0271 11.911 20.9271 13.111C20.7271 14.611 20.4271 16.3109 20.8271 17.8109C20.0271 16.5109 19.1271 15.2109 18.4271 13.9109C18.3271 13.7109 17.9271 13.811 18.0271 14.011C18.3271 15.511 19.4271 16.911 20.3271 18.111C21.9271 20.311 23.3271 22.5109 22.9271 25.2109C22.8271 25.6109 23.2271 25.6109 23.2271 25.4109ZM23.9271 8.91095C23.9271 8.21095 24.5271 7.81093 24.8271 7.21093C25.1271 7.21093 25.3271 7.31096 25.5271 7.61096C25.7271 8.01096 25.8271 8.71096 25.5271 9.11096C25.1271 9.61096 23.9271 9.51095 23.9271 8.91095Z" fill="#35611A"/>
<path d="M18.6273 19.8109C19.6273 20.7109 20.4273 21.9109 21.3273 22.9109C21.4273 23.0109 21.6273 22.9109 21.5273 22.7109C19.9273 20.3109 17.9273 17.911 15.1273 17.011C15.0273 17.011 14.9273 17.011 14.8273 17.111C14.7273 16.611 14.4273 16.2109 14.1273 15.9109C13.4273 15.4109 12.5273 15.9109 12.6273 16.7109C12.3273 17.0109 12.1273 17.5109 12.3273 17.8109C12.7273 18.6109 14.2273 18.4109 14.6273 17.8109C14.7273 17.6109 14.8273 17.4109 14.8273 17.2109C14.8273 17.2109 14.8273 17.3109 14.9273 17.3109C16.3273 18.1109 17.5273 18.7109 18.6273 19.8109ZM14.0273 17.511C13.9273 17.811 12.9273 17.911 12.9273 17.611C12.9273 17.211 13.3273 16.811 13.6273 16.511C13.6273 16.511 13.6273 16.511 13.7273 16.511C13.9273 16.811 14.1273 17.211 14.0273 17.511Z" fill="#35611A"/>
<path d="M10.4274 30.4109C11.8274 26.8109 19.2273 27.3109 21.8273 29.4109C22.0273 29.5109 22.2274 29.3109 22.1274 29.1109C20.9274 26.9109 16.6274 27.1109 14.6274 27.3109C13.6274 27.4109 8.52736 28.4109 10.1274 30.4109C10.2274 30.6109 10.4274 30.6109 10.4274 30.4109Z" fill="#35611A"/>
<path d="M27.9274 5.71092C27.8274 5.51092 27.4274 5.51092 27.4274 5.81092C27.4274 5.91092 27.4274 5.91094 27.4274 6.01094C27.4274 6.21094 27.6273 6.31094 27.8273 6.11094C27.4273 6.61094 28.6273 10.1109 28.8273 11.1109C29.3273 14.5109 28.0273 17.1109 26.7273 20.1109C26.6273 20.4109 27.0274 20.5109 27.1274 20.3109C29.3274 15.8109 30.5274 10.4109 27.9274 5.71092Z" fill="#35611A"/>
<path d="M35.0273 6.31095C35.3273 6.11095 35.0273 5.71095 34.7273 5.81095C32.1273 6.61095 30.2273 9.51097 29.7273 12.111C29.7273 12.211 29.9273 12.3109 30.0273 12.2109C30.6273 11.2109 31.0273 10.2109 31.7273 9.21095C32.6273 7.91095 33.6273 7.11096 34.9273 6.41096C34.9273 6.31096 35.0273 6.31095 35.0273 6.31095Z" fill="#35611A"/>
<path d="M16.9273 26.6109C15.3273 26.7109 14.0273 26.2109 12.7273 25.3109C11.6273 24.5109 11.2273 23.3109 10.3273 22.4109C10.2273 22.3109 10.0273 22.4109 10.0273 22.5109C10.3273 23.9109 11.6273 25.1109 12.8273 25.9109C14.0273 26.8109 15.5273 27.1109 17.0273 26.9109C17.2273 26.9109 17.1273 26.5109 16.9273 26.6109Z" fill="#35611A"/>
<path d="M9.32727 22.611C9.82727 22.111 9.92727 21.211 9.72727 20.511C9.82727 20.411 9.82729 20.111 9.62729 20.211C9.22729 19.511 8.02728 19.211 7.42728 19.811C7.32728 19.911 7.32728 20.111 7.52728 20.111C7.92728 20.211 8.42727 20.211 8.72727 20.411C7.82727 20.811 6.92728 21.411 7.52728 22.411C7.82728 23.211 8.72727 23.311 9.32727 22.611ZM8.32727 22.111C7.82727 21.711 8.32728 21.211 8.92728 20.911C8.92728 21.211 8.92727 21.511 8.72727 21.811C8.62727 22.011 8.52728 22.111 8.42728 22.211C8.32728 22.211 8.42727 22.211 8.32727 22.111Z" fill="#35611A"/>
<path d="M11.9272 17.7109C12.1272 17.3109 11.8272 16.8109 11.5272 16.5109C11.3272 16.3109 11.1272 16.1109 10.9272 16.0109C10.9272 15.9109 10.8272 15.8109 10.6272 15.9109C10.6272 15.9109 10.6272 15.9109 10.5272 15.9109C10.4272 15.9109 10.3272 15.9109 10.2272 15.9109C9.92719 16.0109 10.0272 16.1109 10.1272 16.2109C9.92722 16.4109 9.72719 16.7109 9.72719 17.0109C9.62719 17.6109 10.3272 17.9109 10.7272 18.0109C11.2272 18.1109 11.6272 18.1109 11.9272 17.7109ZM10.3272 17.0109C10.2272 16.8109 10.3272 16.6109 10.5272 16.5109C10.5272 16.5109 10.6272 16.5109 10.6272 16.6109C10.8272 16.7109 11.0272 16.9109 11.2272 17.1109C11.3272 17.2109 11.3272 17.3109 11.3272 17.4109C10.9272 17.4109 10.4272 17.3109 10.3272 17.0109Z" fill="#35611A"/>
<path d="M12.4272 13.011C13.1272 12.311 12.9272 11.0109 12.4272 10.3109C12.1272 9.91094 11.7272 9.71094 11.2272 9.71094C10.6272 9.71094 10.1272 10.1109 9.82716 10.7109C9.72716 10.8109 9.82717 11.0109 10.0272 10.9109C10.5272 10.7109 11.1272 10.4109 11.6272 10.8109C12.0272 11.2109 12.0272 11.8109 11.8272 12.3109C11.7272 12.5109 11.5272 12.7109 11.2272 12.8109C11.0272 12.9109 10.4272 12.9109 10.2272 12.7109C9.92715 12.2109 10.7272 11.311 11.1272 11.011C11.3272 10.911 11.1272 10.7109 10.9272 10.7109C10.1272 11.1109 9.02717 12.011 9.42717 13.011C9.62717 13.611 10.4272 13.7109 11.0272 13.7109C11.5272 13.7109 12.0272 13.411 12.4272 13.011Z" fill="#35611A"/>
<path d="M15.4273 20.2109C14.9273 20.5109 14.5273 20.9109 14.5273 21.5109C14.5273 22.3109 15.3273 22.7109 16.0273 22.5109C17.4273 22.3109 16.7273 19.8109 15.5273 19.9109C15.4273 20.0109 15.3273 20.1109 15.4273 20.2109ZM15.9273 21.8109C15.6273 22.0109 15.2273 21.6109 15.3273 21.3109C15.4273 21.0109 15.5273 20.811 15.7273 20.611C15.9273 21.011 16.1273 21.6109 15.9273 21.8109Z" fill="#35611A"/>
<path d="M16.6272 14.8109C17.0272 14.2109 16.7272 13.4109 16.2272 13.0109C16.1272 12.9109 16.0272 12.8109 15.8272 12.8109C15.9272 12.7109 16.0272 12.6109 16.1272 12.5109C16.3272 12.3109 16.1272 12.0109 15.9272 12.1109C15.7272 12.2109 15.4272 12.4109 15.2272 12.6109C14.7272 12.6109 14.3272 12.8109 14.1272 13.3109C14.1272 13.4109 14.1272 13.5109 14.2272 13.5109C14.3272 13.5109 14.4272 13.5109 14.5272 13.5109C14.4272 13.7109 14.4272 14.0109 14.5272 14.2109C14.8272 14.9109 16.1272 15.5109 16.6272 14.8109ZM15.3272 13.9109C15.3272 13.8109 15.3272 13.6109 15.4272 13.4109H15.5272C15.8272 13.6109 16.0272 13.9109 15.9272 14.2109C16.0272 14.3109 15.4272 14.1109 15.3272 13.9109Z" fill="#35611A"/>
<path d="M16.1272 9.31096C15.9272 9.91096 15.8272 10.511 16.1272 11.111C16.5272 12.011 17.6272 11.911 18.4272 11.511C18.4272 11.611 18.5272 11.611 18.5272 11.611C18.6272 11.611 18.8272 11.711 19.1272 11.711C18.6272 11.811 18.1272 12.211 18.1272 12.711C18.1272 13.611 19.3272 13.511 19.9272 13.211C20.5272 12.911 20.7272 12.011 20.3272 11.411C20.1272 11.111 19.6272 10.911 19.2272 10.911C19.3272 10.811 19.3272 10.811 19.4272 10.711C20.0272 9.61095 19.2272 8.31095 18.3272 7.71095C17.5272 7.21095 16.4272 7.41095 16.1272 8.21095C15.7272 8.11095 15.4272 8.11096 15.1272 8.31096L15.0272 8.41096C15.1272 8.21096 14.8272 8.01095 14.7272 8.21095C14.5272 8.61095 14.0272 9.21098 14.5272 9.61098C14.8272 9.91098 15.4272 9.71098 15.7272 9.61098C15.8272 9.61098 15.9272 9.51096 16.1272 9.31096ZM19.5272 12.411C19.4272 12.511 19.3272 12.611 19.2272 12.611C19.1272 12.611 19.0272 12.611 18.8272 12.611C18.9272 12.411 19.2272 12.111 19.4272 12.011C19.4272 12.011 19.5272 12.011 19.5272 11.911C19.6272 12.111 19.6272 12.211 19.5272 12.411ZM17.6272 8.31096C17.7272 8.31096 17.8272 8.41096 17.8272 8.41096C18.3272 8.71096 18.8272 9.51098 18.6272 10.111C18.4272 10.711 17.1272 11.411 16.6272 10.611C16.2272 9.91098 16.8272 8.81096 17.6272 8.31096ZM14.9272 8.51097C14.9272 8.51097 14.9272 8.61098 15.0272 8.61098C15.2272 8.71098 15.4272 8.81096 15.6272 8.91096H15.7272C15.6272 9.01096 15.5272 9.01098 15.4272 9.11098C15.2272 9.21098 14.9272 9.31096 14.7272 9.31096C14.5272 9.21096 14.8272 8.61097 14.9272 8.51097Z" fill="#35611A"/>
<path d="M23.1273 12.3109C22.9273 12.4109 22.8273 12.6109 22.6273 12.7109C22.5273 12.8109 22.4273 12.911 22.5273 13.011C22.7273 13.611 23.7273 13.4109 24.1273 13.2109C24.4273 13.1109 24.6273 12.811 24.5273 12.511C24.4273 12.011 23.9273 11.8109 23.4273 11.7109C23.3273 11.7109 23.2272 11.8109 23.2272 11.9109C23.3272 12.0109 23.4273 12.1109 23.4273 12.2109C23.4273 12.3109 23.3273 12.2109 23.1273 12.3109Z" fill="#35611A"/>
<path d="M21.4271 8.11092C21.9271 7.71092 21.9272 6.8109 21.6272 6.3109C21.3272 5.7109 20.4272 5.61092 20.0272 6.11092C19.5272 6.41092 19.2271 6.81091 19.4271 7.41091C19.7271 8.11091 20.8271 8.61092 21.4271 8.11092ZM20.4271 7.21089C20.1271 7.01089 20.3272 6.71091 20.6272 6.51091C20.7272 6.51091 20.9271 6.51092 20.9271 6.61092C21.1271 6.81092 21.0272 7.1109 21.0272 7.3109C20.8272 7.5109 20.6271 7.41089 20.4271 7.21089Z" fill="#35611A"/>
<path d="M24.3273 15.211C23.9273 14.311 22.8273 14.311 22.3273 14.911C22.2273 15.011 22.3273 15.111 22.4273 15.211C22.5273 15.211 22.6273 15.211 22.7273 15.211C22.3273 15.311 22.0273 15.811 22.0273 16.411C22.1273 17.311 23.2273 17.811 23.9273 17.311C24.5273 16.811 24.6273 15.811 24.3273 15.211ZM22.9273 16.611C22.5273 16.211 22.9273 15.311 23.5273 15.711C23.6273 15.811 23.7273 15.711 23.8273 15.611C23.9273 15.911 23.9273 16.211 23.8273 16.511C23.5273 16.811 23.2273 16.911 22.9273 16.611Z" fill="#35611A"/>
<path d="M28.6272 17.3109C28.6272 17.9109 29.2272 18.111 29.7272 18.011C30.2272 17.911 30.7272 17.511 30.8272 17.011C30.9272 16.611 30.7272 16.3109 30.4272 16.2109C30.5272 16.1109 30.4272 15.9109 30.2272 15.9109C29.4272 16.0109 28.6272 16.4109 28.6272 17.3109ZM29.7272 16.511C29.9272 16.611 30.1272 16.8109 30.1272 16.9109C30.1272 17.0109 29.8272 17.2109 29.7272 17.2109C29.6272 17.2109 29.5272 17.3109 29.4272 17.3109H29.3272C29.2272 17.2109 29.4272 16.8109 29.5272 16.7109C29.6272 16.6109 29.6272 16.611 29.7272 16.511Z" fill="#35611A"/>
<path d="M34.3273 14.011C34.2273 14.111 34.3273 14.311 34.4273 14.411C33.9273 14.911 33.5273 15.511 33.5273 16.211C33.5273 17.411 35.1273 17.911 36.0273 17.411C36.9273 17.011 37.0273 15.711 36.7273 14.811C36.3273 13.911 35.1273 13.011 34.3273 14.011ZM35.8273 15.111C36.0273 15.511 36.0273 16.311 35.6273 16.611C35.0273 17.011 34.2273 16.511 34.2273 15.811C34.3273 15.311 34.6273 14.811 34.9273 14.411C35.3273 14.611 35.6273 14.711 35.8273 15.111Z" fill="#35611A"/>
<path d="M34.0273 10.8109C33.9273 10.8109 33.8273 10.9109 33.9273 11.0109C34.1273 11.3109 34.3273 11.5109 34.6273 11.7109C34.7273 11.8109 34.8273 11.9109 34.9273 11.9109C34.8273 11.9109 34.6273 12.0109 34.5273 12.0109C34.2273 12.0109 33.8273 12.0109 33.5273 11.8109C33.4273 11.7109 33.4273 11.7109 33.4273 11.7109C33.4273 11.5109 33.7273 11.4109 33.8273 11.3109C34.0273 11.2109 33.8273 10.9109 33.6273 11.0109C33.1273 11.2109 32.5273 11.7109 32.9273 12.2109C33.2273 12.6109 33.9273 12.7109 34.4273 12.7109C34.9273 12.7109 35.6273 12.6109 35.6273 12.0109C35.7273 11.3109 34.5273 10.6109 34.0273 10.8109Z" fill="#35611A"/>
<path d="M37.0273 4.31095C36.9273 4.41095 36.9273 4.51097 37.0273 4.61097C37.3273 4.91097 37.8273 4.81097 38.0273 5.11097C38.2273 5.31097 38.2273 5.61095 38.1273 5.81095C38.0273 6.11095 37.6273 6.11096 37.3273 6.01096C37.1273 5.91096 36.7273 5.81097 36.8273 5.61097C36.8273 5.41097 37.3273 5.31094 37.4273 5.21094C37.6273 5.21094 37.6273 4.91096 37.4273 4.91096C37.0273 4.81096 36.6273 4.81097 36.3273 5.11097C36.0273 5.41097 36.0273 5.81094 36.2273 6.21094C36.7273 6.91094 37.8273 7.11097 38.5273 6.61097C39.1273 6.21097 39.2273 5.41095 38.9273 4.81095C38.6273 4.21095 37.5273 3.71095 37.0273 4.31095Z" fill="#35611A"/>
<path d="M32.2273 3.41096C31.6273 3.41096 31.1273 3.61097 30.8273 4.11097C30.7273 4.31097 30.8273 4.41096 30.9273 4.51096C31.4273 4.91096 32.1273 5.21095 32.7273 4.81095C33.2273 4.51095 33.1273 3.61095 32.6273 3.31095C32.5273 3.21095 32.4273 3.31096 32.3273 3.41096C32.3273 3.41096 32.3273 3.41096 32.2273 3.41096ZM32.2273 4.31095C32.1273 4.41095 31.8273 4.31095 31.6273 4.21095C31.7273 4.01095 32.0273 3.91096 32.2273 3.91096C32.3273 4.01096 32.3273 4.21095 32.2273 4.31095Z" fill="#35611A"/>
<path d="M24.5273 4.61097C24.9273 5.21097 25.8273 5.41096 26.5273 5.41096C27.1273 5.41096 27.6273 5.21095 28.0273 4.71095C28.6273 3.81095 28.4273 2.51095 27.8273 1.81095C27.0273 0.710952 25.6273 1.21095 25.2273 2.31095C25.2273 2.41095 25.2273 2.61097 25.4273 2.61097C24.6273 3.11097 24.0273 3.81097 24.5273 4.61097ZM26.6273 2.31095C26.7273 2.21095 26.8273 2.31095 26.8273 2.31095C27.2273 2.71095 27.3273 3.41096 27.2273 3.91096C27.0273 4.71096 25.8273 4.41097 25.3273 4.11097C24.8273 3.71097 26.3273 2.41095 26.6273 2.31095Z" fill="#35611A"/>
<path d="M23.8271 4.41096C23.7271 3.81096 22.9272 3.81096 22.5272 3.91096C22.4272 3.91096 22.4272 4.11098 22.5272 4.11098C22.5272 4.11098 22.5272 4.11098 22.6272 4.11098C22.2272 4.31098 22.0271 4.71098 22.2271 5.11098C22.4271 5.41098 22.9271 5.31095 23.2271 5.21095C23.5271 5.11095 23.8271 4.81096 23.8271 4.41096ZM22.8271 4.31096C22.9271 4.41096 23.0272 4.41097 23.0272 4.51097C23.0272 4.51097 23.0272 4.51098 22.9272 4.61098C22.8272 4.61098 22.8271 4.71095 22.7271 4.71095C22.7271 4.61095 22.8271 4.41096 22.8271 4.31096Z" fill="#35611A"/>
<path d="M20.7273 5.41092C21.2273 4.81092 21.4273 3.61092 21.0273 2.91092C20.5273 1.81092 18.9273 2.01092 18.3273 2.91092C18.3273 3.01092 18.3273 3.11091 18.3273 3.21091C17.8273 3.71091 17.8273 4.51094 18.2273 5.11094C18.9273 5.91094 19.9273 6.31092 20.7273 5.41092ZM19.5273 4.91092C19.2273 4.71092 18.9273 4.31092 18.9273 3.91092C18.9273 3.51092 19.4273 3.11091 19.8273 3.21091L19.9273 3.31092C20.0273 3.41092 20.0273 3.61091 20.0273 3.71091C20.0273 4.01091 20.0273 4.21092 19.9273 4.41092C19.8273 4.61092 19.7273 4.71092 19.6273 4.81092C19.7273 4.91092 19.6273 4.91092 19.5273 4.91092Z" fill="#35611A"/>
<path d="M18.7273 6.71091C18.8273 6.21091 18.7273 5.61092 18.3273 5.41092C18.4273 5.31092 18.4273 5.21091 18.3273 5.21091C17.9273 5.11091 17.5273 5.31092 17.3273 5.81092C17.1273 6.41092 17.7273 6.91093 18.3273 7.01093C18.4273 7.01093 18.6273 7.01091 18.7273 6.71091Z" fill="#35611A"/>
<path d="M38.2272 15.3109C38.1272 15.5109 38.4272 15.6109 38.5272 15.5109C38.6272 15.3109 38.8272 15.2109 38.9272 15.2109C38.5272 15.7109 38.5272 16.5109 38.8272 17.1109C38.9272 17.2109 39.0272 17.3109 39.2272 17.3109C40.3272 17.1109 40.9272 16.1109 40.2272 15.1109C39.6272 14.3109 38.5272 14.4109 38.2272 15.3109ZM39.6272 15.4109C40.0272 15.9109 39.7272 16.2109 39.3272 16.4109C39.2272 16.0109 39.3272 15.7109 39.4272 15.3109C39.5272 15.3109 39.6272 15.4109 39.6272 15.4109Z" fill="#35611A"/>
<path d="M38.3273 23.0109C38.0273 22.7109 37.6273 22.8109 37.3273 22.9109C37.2273 22.9109 37.2273 23.0109 37.2273 23.1109C37.0273 23.2109 36.8273 23.3109 36.6273 23.5109C36.4273 23.7109 36.4273 24.0109 36.6273 24.1109C37.2273 24.6109 38.2273 24.8109 38.5273 23.9109C38.7273 23.6109 38.6273 23.3109 38.3273 23.0109ZM37.6273 23.7109C37.7273 23.7109 37.7273 23.6109 37.8273 23.6109C37.8273 23.7109 37.9273 23.7109 37.9273 23.7109C37.8273 23.8109 37.7273 23.8109 37.6273 23.7109Z" fill="#35611A"/>
<path d="M39.1271 30.311C38.0271 30.511 36.9271 31.411 37.3271 32.611C37.8271 33.911 39.6271 34.4109 40.7271 33.7109C41.6271 33.1109 41.8271 31.911 41.5271 30.911C41.3271 30.411 40.9271 30.011 40.5271 29.911C40.1271 29.811 39.3271 29.811 39.1271 30.311ZM40.5271 31.2109C40.7271 31.7109 40.6271 32.3109 40.3271 32.7109C39.8271 33.3109 38.9271 33.011 38.5271 32.511C38.3271 32.311 38.4271 31.9109 38.5271 31.7109C38.8271 31.2109 39.3271 31.011 39.8271 31.011H39.9271C40.1271 30.811 40.3271 30.9109 40.5271 31.2109Z" fill="#35611A"/>
<path d="M36.2272 28.411C36.0272 28.811 36.5272 29.111 36.7272 29.211C37.0272 29.311 37.4273 29.411 37.6273 29.211C37.9273 28.911 37.8273 28.211 37.4273 28.011C37.3273 28.011 37.2272 28.011 37.2272 28.111C37.2272 28.211 37.2272 28.211 37.2272 28.311C36.8272 28.211 36.4272 28.011 36.2272 28.411ZM37.1273 28.711H37.0273C37.0273 28.711 37.0273 28.711 36.9273 28.711C37.0273 28.711 37.0273 28.711 37.1273 28.711C37.1273 28.611 37.1273 28.611 37.1273 28.711Z" fill="#35611A"/>
<path d="M32.4272 28.9109C32.2272 29.7109 33.2272 30.6109 34.0272 30.2109C34.6272 29.9109 34.6272 29.0109 34.4272 28.5109C34.3272 28.2109 34.0272 28.0109 33.7272 28.0109C33.0272 27.6109 32.5272 28.4109 32.4272 28.9109ZM33.6273 28.7109C33.8273 28.9109 33.7273 29.2109 33.6273 29.4109C33.5273 29.7109 33.1272 29.2109 33.0272 29.1109C33.0272 28.9109 33.0273 28.8109 33.1273 28.6109C33.3273 28.6109 33.5273 28.6109 33.6273 28.7109Z" fill="#35611A"/>
<path d="M34.6272 34.511C34.4272 33.611 33.6272 33.211 33.0272 33.511C32.0272 33.311 31.3272 34.511 31.3272 35.411C31.2272 36.711 32.2272 38.111 33.6272 37.611C34.6272 37.211 34.9272 35.511 34.6272 34.511ZM32.2272 35.611C32.2272 35.211 32.2272 34.711 32.5272 34.411C33.0272 34.211 33.4272 34.111 33.6272 34.711C33.8272 35.211 33.7272 36.011 33.3272 36.511C32.6272 37.111 32.2272 36.111 32.2272 35.611Z" fill="#35611A"/>
<path d="M36.3273 33.4109C36.2273 33.4109 36.2273 33.611 36.3273 33.611L36.4274 33.7109C36.0274 33.8109 35.6274 34.111 35.5274 34.611C35.4274 35.511 36.5273 36.1109 37.3273 35.9109C38.9273 35.6109 37.8273 32.9109 36.3273 33.4109ZM37.1274 34.4109C37.2274 34.6109 37.4273 35.011 37.2273 35.111C37.0273 35.311 36.4273 35.0109 36.3273 34.7109C36.1273 34.4109 36.5274 34.211 36.9274 34.111C37.0274 34.211 37.0274 34.3109 37.1274 34.4109Z" fill="#35611A"/>
<path d="M15.7273 30.611C15.9273 30.411 15.7273 30.2109 15.5273 30.2109C15.1273 30.4109 14.3273 30.811 14.6273 31.311C14.8273 31.711 15.4273 31.811 15.8273 31.811C16.2273 31.811 16.8273 31.711 17.0273 31.311C17.2273 30.811 16.7273 30.011 16.1273 30.111C16.0273 30.111 16.0273 30.211 16.0273 30.311C16.0273 30.511 16.1273 30.711 16.2273 30.811C16.3273 30.911 16.4273 31.011 16.4273 31.011C16.4273 31.011 16.4273 31.011 16.3273 31.111C16.2273 31.111 16.1273 31.2109 15.9273 31.2109C15.7273 31.2109 15.4273 31.211 15.2273 31.111C15.2273 31.111 15.2273 31.111 15.2273 31.011C15.3273 30.911 15.5273 30.711 15.7273 30.611Z" fill="#35611A"/>
<path d="M13.3273 31.511C13.3273 31.011 12.8273 30.211 12.2273 30.111C12.2273 29.911 11.9273 29.711 11.6273 29.911C10.7273 30.611 9.92732 33.311 11.7273 33.211C12.8273 33.111 13.4273 32.511 13.3273 31.511ZM11.7273 32.411C11.1273 32.311 11.6273 31.311 11.9273 30.711C12.2273 30.911 12.5273 31.111 12.6273 31.511C12.7273 32.111 12.2273 32.511 11.7273 32.411Z" fill="#35611A"/>
<path d="M9.42733 28.9109C9.52733 28.5109 9.22733 28.2109 8.92733 28.0109H8.82732C8.92732 27.8109 8.52732 27.5109 8.32732 27.8109C7.82732 28.4109 7.82732 29.2109 8.72732 29.3109C8.92732 29.3109 9.32733 29.2109 9.42733 28.9109ZM8.52733 28.4109C8.62733 28.5109 8.72732 28.6109 8.82732 28.7109C8.82732 28.7109 8.82732 28.7109 8.72732 28.7109C8.52732 28.7109 8.52733 28.6109 8.52733 28.4109Z" fill="#35611A"/>
<path d="M19.9272 23.611C19.7272 23.311 19.4272 23.0109 19.0272 22.9109C18.6272 22.8109 18.1272 22.9109 17.9272 23.3109C17.9272 23.4109 17.9272 23.511 18.0272 23.511C18.1272 23.611 18.3272 23.611 18.4272 23.611C17.8272 24.011 17.3272 24.7109 17.5272 25.4109C17.8272 26.3109 19.1272 26.3109 19.7272 25.7109C20.3272 25.2109 20.3272 24.311 19.9272 23.611ZM19.3272 25.111C19.1272 25.411 18.4272 25.6109 18.2272 25.2109C18.1272 24.7109 18.4272 24.2109 18.8272 23.9109V23.8109C18.9272 23.8109 19.0272 23.911 19.1272 24.011C19.5272 24.311 19.5272 24.811 19.3272 25.111Z" fill="#35611A"/>
<path d="M36.9273 8.51097C36.8273 8.51097 36.6273 8.61095 36.6273 8.71095C36.4273 8.91095 36.6273 9.31097 36.7273 9.51097C37.0273 9.91097 37.4273 10.411 37.9273 10.111C38.3273 9.91098 38.5273 9.41096 38.4273 8.91096C38.2273 8.21096 37.4273 8.21096 36.9273 8.41096V8.51097ZM37.7273 9.41096C37.6273 9.51096 37.6273 9.51096 37.5273 9.41096C37.4273 9.31096 37.2273 9.11097 37.1273 9.01097C37.1273 8.91097 37.2273 8.91096 37.3273 8.81096C37.6273 8.91096 37.9273 9.11096 37.7273 9.41096Z" fill="#35611A"/>
<path d="M31.1273 0.0109439C30.9273 0.0109439 30.8273 0.110926 30.7273 0.210926C30.6273 0.210926 30.6273 0.310938 30.5273 0.410938C30.4273 0.510938 30.4273 0.410944 30.5273 0.510944C30.2273 0.410944 29.9273 0.810944 30.2273 1.01094C30.7273 1.41094 31.5273 1.71093 32.0273 1.21093C32.6273 0.510926 31.6273 -0.0890561 31.1273 0.0109439ZM31.0273 0.61095C31.1273 0.61095 31.1273 0.61095 31.0273 0.61095C31.1273 0.51095 31.1273 0.410938 31.2273 0.410938C31.3273 0.610938 31.5273 0.710926 31.5273 0.710926C31.5273 0.810926 31.3273 0.71095 31.0273 0.61095Z" fill="#35611A"/>
<path d="M41.6273 10.611C41.6273 10.611 41.5273 10.6109 41.5273 10.7109C41.1273 11.0109 41.0273 11.711 41.3273 12.111C41.8273 12.811 42.7273 13.2109 43.4273 12.7109C44.0273 12.3109 44.1273 11.511 43.8273 10.911C43.4273 10.111 42.4273 10.0109 41.6273 10.3109C41.5273 10.4109 41.5273 10.511 41.6273 10.611ZM42.9273 11.2109C43.0273 11.4109 43.0273 11.7109 42.9273 11.8109C42.8273 12.0109 42.6273 12.111 42.4273 11.911C42.1273 11.811 41.8273 11.5109 42.1273 11.2109C42.2273 11.1109 42.4273 10.9109 42.5273 10.8109C42.7273 11.0109 42.8273 11.0109 42.9273 11.2109Z" fill="#35611A"/>
<path d="M44.7273 19.8109C44.8273 20.3109 44.9273 20.6109 45.4273 20.9109C45.6273 21.0109 45.8273 21.0109 45.9273 20.8109C46.0273 20.4109 45.8273 20.2109 45.6273 20.0109C45.7273 19.9109 45.7273 19.7109 45.6273 19.5109C45.5273 19.4109 45.4273 19.3109 45.3273 19.3109C45.2273 19.3109 45.1273 19.4109 44.9273 19.4109C44.8273 19.4109 44.7273 19.6109 44.7273 19.8109Z" fill="#35611A"/>
<path d="M43.1273 23.0109C43.2273 23.0109 43.3273 23.0109 43.4273 23.0109C43.1273 23.2109 43.0273 23.5109 43.0273 24.0109C43.1273 24.7109 43.8273 25.3109 44.5273 25.2109C45.4273 25.1109 45.9273 24.2109 45.4273 23.4109C45.0273 22.7109 43.8273 22.1109 43.0273 22.8109C43.0273 22.8109 43.0273 23.0109 43.1273 23.0109ZM44.7273 23.5109C45.1273 23.9109 45.1273 24.4109 44.5273 24.5109C44.2273 24.5109 43.9273 24.2109 43.7273 23.9109C43.5273 23.5109 44.0273 23.3109 44.4273 23.3109C44.4273 23.3109 44.6273 23.4109 44.7273 23.5109Z" fill="#35611A"/>
<path d="M42.7273 15.611C43.0273 15.911 44.0273 16.7109 43.7273 17.2109C43.7273 17.3109 43.4273 17.2109 43.3273 17.2109C43.2273 17.2109 43.0273 17.111 42.9273 17.111H42.8273C42.9273 16.911 43.2273 16.7109 43.3273 16.7109C43.5273 16.7109 43.5273 16.411 43.3273 16.411C42.9273 16.411 42.2273 16.511 42.1273 17.011C41.9273 17.811 43.3273 18.011 43.8273 18.011C44.5273 17.911 44.6273 17.2109 44.4273 16.7109C44.2273 16.1109 43.6273 15.511 42.9273 15.511C42.7273 15.411 42.6273 15.511 42.7273 15.611Z" fill="#35611A"/>
</g>
</svg>
