<svg width="87" height="176" viewBox="0 0 87 176" fill="none" xmlns="http://www.w3.org/2000/svg">
<g opacity="0.5">
<path d="M15.0656 33.2439C17.9656 43.8439 31.3656 48.4439 32.0656 59.6439C32.0656 59.7439 32.1656 59.8439 32.2656 59.8439C32.6656 62.7439 33.1656 65.5439 33.7656 68.3439C34.8656 73.7439 36.1656 79.1439 37.5656 84.4439C36.6656 82.7439 35.6656 81.1439 34.5656 79.6439C31.6656 71.4439 29.6656 62.5439 24.7656 55.2439C22.2656 51.6439 18.8656 48.9439 15.2656 46.6439C11.3656 44.1439 5.46558 42.9439 2.16558 39.7439C1.66558 39.2439 0.965569 39.9439 1.46557 40.4439C0.465569 43.1439 0.265576 45.9439 0.565576 48.5439C0.565576 48.5439 0.565576 48.5439 0.565576 48.6439V48.7439C1.26558 53.9439 3.86558 58.8439 7.16558 63.0439C10.0656 66.8439 13.6656 70.1439 17.7656 72.6439C24.0656 76.5439 31.0656 78.1439 35.9656 83.7439C37.0656 85.4439 38.0656 87.2439 38.9656 89.1439C40.5656 94.5439 42.2656 99.9439 44.3656 105.244C44.7656 106.244 45.1656 107.144 45.5656 108.044C46.3656 112.444 48.5656 116.044 51.1656 119.844C52.5656 122.544 54.0656 125.344 55.6656 128.044C52.6656 125.244 49.2656 122.744 46.1656 120.444C44.7656 119.444 43.3656 118.444 42.0656 117.444C43.8656 116.944 45.3656 115.944 46.1656 114.144C46.2656 113.844 46.1656 113.544 45.7656 113.444C43.2656 113.244 40.8656 113.844 38.5656 114.844C39.9656 113.044 41.2656 111.244 41.9656 109.144C42.0656 108.844 41.7656 108.544 41.4656 108.644C39.5656 109.144 38.1656 110.444 37.2656 112.144C37.6656 108.744 37.5656 104.444 34.0656 105.544C32.6656 106.044 32.4656 107.544 32.7656 109.344C31.9656 108.644 30.9656 108.244 29.9656 108.044C28.3656 106.644 26.8656 105.144 25.3656 103.544C26.0656 103.544 26.7656 103.444 27.2656 103.044C27.3656 103.144 27.4656 103.144 27.5656 103.144C29.1656 103.244 30.7656 102.244 31.9656 101.044C31.5656 102.544 31.3656 104.144 31.5656 105.744C31.5656 105.944 31.9656 106.044 32.0656 105.944C33.5656 104.144 33.5656 101.944 33.0656 99.8439C33.1656 99.9439 33.3656 99.9439 33.3656 99.7439C34.7656 101.244 35.8656 103.044 37.6656 104.144C37.8656 104.244 38.0656 104.144 38.1656 104.044C39.5656 101.244 37.1656 98.9439 34.5656 98.5439C36.6656 97.3439 37.8656 94.8439 39.0656 92.9439C39.2656 92.6439 38.8656 92.2439 38.5656 92.4439C36.9656 93.3439 35.5656 94.4439 34.3656 95.8439C35.1656 93.8439 35.5656 91.7439 35.3656 89.4439C35.3656 89.1439 35.0656 88.9439 34.7656 89.0439C31.9656 90.5439 31.2656 94.5439 32.0656 97.6439C31.5656 97.3439 31.0656 96.9439 30.6656 96.6439C30.1656 96.3439 29.6656 95.9439 29.1656 95.5439C28.3656 94.8439 28.6656 94.4439 29.4656 93.8439C29.7656 93.6439 29.5656 93.2439 29.2656 93.2439C27.9656 93.4439 27.2656 94.5439 28.1656 95.6439C29.0656 96.8439 30.4656 97.4439 31.6656 98.2439C29.8656 97.9439 28.0656 97.0439 26.3656 96.5439C26.0656 96.4439 25.8656 96.7439 25.8656 96.9439C25.7656 96.9439 25.7656 96.9439 25.6656 96.9439C23.8656 97.0439 22.5656 98.3439 21.5656 99.8439C21.6656 98.6439 21.6656 97.4439 21.3656 96.3439C21.2656 96.0439 21.1656 95.7439 20.9656 95.5439C22.3656 93.8439 22.5656 91.9439 22.1656 90.0439C23.8656 92.3439 26.1656 94.7439 27.6656 92.5439C29.5656 89.7439 24.9656 87.7439 22.3656 86.6439C25.0656 85.7439 27.7656 84.7439 27.9656 81.5439C27.9656 81.3439 27.8656 81.1439 27.6656 81.1439C25.4656 80.6439 23.7656 81.6439 22.3656 83.1439C22.3656 83.0439 22.3656 82.9439 22.4656 82.8439C22.5656 82.4439 23.2656 80.0439 23.2656 79.9439C23.4656 80.0439 23.6656 79.9439 23.5656 79.7439C23.3656 78.5439 22.3656 80.0439 22.2656 80.4439C22.1656 80.6439 22.1656 80.8439 22.0656 81.0439C22.0656 80.9439 22.0656 80.9439 22.0656 80.8439C21.9656 79.5439 21.6656 77.5439 20.1656 77.2439C18.4656 76.8439 17.0656 78.8439 16.9656 80.2439C16.9656 80.9439 17.0656 81.5439 17.2656 82.2439C16.9656 82.1439 16.6656 82.4439 16.8656 82.7439C17.2656 83.3439 17.6656 83.7439 18.1656 84.2439C16.4656 83.5439 14.7656 82.6439 13.0656 81.7439C12.7656 81.5439 12.2656 81.7439 12.3656 82.1439C12.6656 84.5439 14.5656 86.2439 16.8656 86.8439C14.9656 87.4439 12.7656 88.6439 13.6656 90.3439C14.7656 92.2439 17.4656 90.1439 19.0656 88.6439C19.0656 90.6439 19.1656 92.6439 19.7656 94.5439C19.3656 94.4439 18.8656 94.3439 18.4656 94.6439C17.9656 94.9439 17.6656 95.4439 17.6656 96.1439C15.8656 94.7439 13.6656 94.4439 11.4656 94.5439C12.4656 92.4439 13.4656 90.3439 13.5656 88.0439C13.5656 87.6439 13.0656 87.4439 12.8656 87.7439C12.3656 88.3439 11.8656 89.0439 11.4656 89.7439C11.4656 87.6439 11.1656 85.5439 9.96557 83.6439C9.76557 83.4439 9.46557 83.3439 9.26557 83.5439C8.06557 84.9439 7.46557 86.6439 7.26557 88.4439C6.76557 87.6439 6.16558 86.9439 5.56558 86.2439C5.36558 86.0439 4.96558 86.0439 4.86558 86.3439C3.36558 89.2439 5.06558 91.9439 7.06558 94.0439C5.16558 93.7439 3.16558 94.1439 3.16558 96.4439C3.16558 97.3439 3.76558 98.0439 4.66558 98.2439C5.06558 98.3439 5.36557 98.2439 5.76557 98.1439C5.26557 99.2439 4.96558 100.544 4.86558 101.744C4.86558 101.944 4.96558 102.044 5.16558 102.044C7.16558 102.644 8.66558 101.344 9.36558 99.5439C9.36558 99.4439 9.46557 99.3439 9.46557 99.2439C9.66557 100.744 10.1656 102.044 11.5656 102.944C11.7656 103.044 11.9656 102.944 12.0656 102.844C13.2656 100.844 13.0656 98.5439 11.8656 96.7439C13.8656 97.6439 15.9656 98.1439 17.8656 97.0439C17.9656 97.5439 18.0656 97.9439 18.2656 98.4439C17.1656 97.8439 15.8656 97.5439 14.5656 97.9439C14.3656 98.0439 14.1656 98.2439 14.2656 98.4439C14.9656 100.244 16.3656 101.744 18.0656 102.744C15.9656 103.244 14.1656 104.744 13.9656 106.944C13.9656 107.044 14.0656 107.244 14.1656 107.244C16.1656 107.544 17.7656 106.844 19.1656 105.744C18.6656 106.944 18.2656 108.344 18.3656 109.644C13.0656 109.144 9.16557 114.944 3.76557 114.944C3.16557 114.944 3.16558 115.744 3.66558 115.844C3.66558 116.044 3.66558 116.244 3.86558 116.444C8.26558 119.744 13.1656 121.644 18.6656 121.544C23.2656 121.444 27.0656 117.444 31.3656 116.944C30.7656 117.344 30.4656 117.944 30.6656 118.844C30.8656 119.744 31.8656 119.944 32.6656 119.844C33.5656 119.744 34.3656 119.344 35.0656 118.844C34.2656 120.344 33.6656 122.044 33.5656 123.744C33.5656 123.944 33.8656 124.044 33.9656 123.944C35.5656 122.644 37.2656 120.044 37.1656 117.744C37.1656 117.744 37.2656 117.844 37.3656 117.844H37.4656C38.2656 119.944 39.1656 121.844 41.6656 122.044C41.9656 122.044 42.1656 121.744 42.0656 121.444C41.8656 119.844 40.8656 118.644 39.6656 117.844C40.0656 117.844 40.3656 117.844 40.7656 117.744C47.4656 122.544 53.8656 127.044 58.9656 133.044C60.3656 135.444 61.7656 137.844 63.1656 140.344C62.8656 140.044 62.5656 139.744 62.2656 139.444C62.2656 139.344 62.2656 139.244 62.1656 139.144C61.9656 139.044 61.7656 138.944 61.6656 138.944C60.6656 138.044 59.4656 137.344 58.3656 136.644C55.1656 132.444 50.8656 129.544 45.6656 128.544C44.6656 128.044 43.5656 127.844 42.4656 128.144C39.0656 127.944 35.8656 128.744 32.7656 130.044C29.5656 131.444 28.3656 136.044 24.8656 136.944C24.2656 137.144 24.4656 137.944 24.9656 137.944C31.3656 138.144 36.7656 142.044 43.0656 142.444C48.1656 142.744 53.6656 138.644 58.6656 138.744C58.6656 138.844 58.7656 138.844 58.7656 138.944C59.0656 139.344 59.5656 139.144 59.6656 138.844C60.0656 138.944 60.4656 139.044 60.8656 139.144C62.1656 140.044 63.2656 141.144 64.3656 142.344C70.2656 152.844 75.7656 163.444 78.8656 175.044C78.9656 175.244 79.2656 175.144 79.2656 174.944C76.9656 165.344 72.9656 156.444 68.3656 147.744C67.7656 146.444 67.1656 145.144 66.3656 143.944C66.1656 143.644 66.0656 143.344 65.8656 143.144C65.0656 139.544 63.3656 136.344 61.1656 133.444C66.4656 133.944 72.0656 133.544 76.7656 130.944C82.9656 127.544 85.2656 119.744 86.8656 113.344C86.9656 112.744 86.2656 112.444 85.9656 112.944C83.7656 116.344 79.6656 116.744 76.9656 119.244C78.0656 116.444 78.3656 113.444 78.2656 110.344C78.5656 109.644 78.7656 108.844 78.9656 108.044C78.9656 107.844 78.7656 107.744 78.6656 107.944C78.4656 108.244 78.3656 108.544 78.1656 108.844C78.0656 107.044 77.7656 105.244 77.4656 103.544C77.4656 103.344 77.4656 103.244 77.4656 103.044C77.6656 102.744 77.7656 102.544 77.8656 102.244C77.9656 101.944 77.5656 101.744 77.4656 102.044L77.3656 102.144C77.2656 102.044 77.1656 102.044 77.0656 102.144C76.8656 101.944 76.3656 102.044 76.4656 102.344C76.4656 102.644 76.5656 102.944 76.5656 103.244C72.4656 108.444 65.2656 109.844 61.3656 115.444C58.1656 120.044 57.4656 125.244 58.7656 130.644C58.3656 129.944 57.9656 129.144 57.5656 128.444C57.6656 128.444 57.8656 128.344 57.7656 128.144C56.0656 123.744 55.6656 119.744 56.1656 116.044C60.2656 110.644 67.4656 107.844 70.5656 101.844C71.7656 100.244 72.4656 98.4439 72.1656 96.1439C72.8656 90.5439 70.8656 85.0439 68.1656 79.9439C67.9656 79.5439 67.3656 79.6439 67.2656 80.0439C65.5656 88.2439 56.8656 90.5439 54.4656 97.9439C52.6656 103.544 52.5656 110.244 54.4656 115.844C54.1656 119.244 54.7656 122.744 56.0656 125.944C53.3656 120.944 50.7656 115.844 48.4656 110.644C47.8656 109.144 47.2656 107.644 46.5656 106.144C46.3656 103.744 46.4656 101.044 47.1656 98.0439C47.9656 94.7439 49.2656 91.5439 50.5656 88.2439C51.3656 87.7439 52.1656 87.0439 52.5656 86.4439C52.6656 86.5439 52.7656 86.6439 52.7656 86.7439C51.9656 89.4439 52.6656 92.4439 54.0656 94.8439C54.2656 95.1439 54.7656 95.1439 54.8656 94.7439C55.5656 92.1439 55.2656 89.0439 53.5656 86.9439C53.5656 86.8439 53.6656 86.7439 53.6656 86.7439C55.3656 88.1439 57.2656 88.8439 59.3656 87.5439C59.5656 87.4439 59.6656 87.0439 59.4656 86.8439C58.3656 85.9439 57.1656 85.2439 55.8656 84.9439C57.2656 84.1439 58.7656 83.6439 59.9656 82.4439C60.2656 82.1439 60.0656 81.7439 59.7656 81.6439C57.6656 81.0439 55.3656 82.0439 53.6656 83.5439C53.3656 83.0439 52.9656 82.6439 52.4656 82.1439C52.9656 80.0439 53.3656 77.9439 53.2656 75.8439C53.2656 75.7439 53.1656 75.6439 53.0656 75.6439C53.2656 75.4439 53.2656 75.1439 53.0656 74.9439C52.9656 74.8439 52.9656 74.8439 52.8656 74.7439C52.9656 74.6439 53.0656 74.6439 53.1656 74.5439V74.6439C53.1656 74.7439 53.2656 74.7439 53.3656 74.8439C53.5656 76.8439 54.6656 81.6439 57.7656 80.1439C59.5656 79.2439 58.7656 77.6439 57.5656 76.4439C58.5656 76.5439 59.4656 76.4439 60.3656 76.2439C60.7656 76.1439 60.7656 75.7439 60.5656 75.4439C59.4656 74.2439 58.0656 73.5439 56.4656 73.3439C58.4656 71.6439 60.6656 70.1439 61.5656 67.6439C61.6656 67.3439 61.2656 66.9439 60.9656 67.0439C58.3656 68.0439 55.3656 69.8439 53.4656 72.1439C53.3656 71.7439 53.2656 71.3439 53.2656 70.9439C53.3656 71.0439 53.5656 71.0439 53.6656 70.9439C54.8656 68.5439 55.3656 65.4439 53.2656 63.4439C52.9656 63.1439 52.5656 63.3439 52.3656 63.6439C51.4656 66.3439 51.7656 68.8439 52.2656 71.4439C51.4656 70.0439 50.4656 68.7439 49.1656 67.7439C48.8656 67.5439 48.4656 67.7439 48.3656 68.0439C47.9656 69.9439 48.6656 71.4439 49.7656 72.8439C48.4656 72.2439 46.9656 71.9439 45.3656 71.9439C45.1656 71.9439 44.9656 72.0439 44.8656 72.2439C44.7656 72.4439 44.6656 72.6439 44.5656 72.7439C44.4656 72.9439 44.4656 73.2439 44.6656 73.3439C46.2656 75.1439 48.3656 75.5439 50.5656 75.1439C48.8656 76.3439 47.3656 77.7439 46.3656 79.7439C45.8656 79.9439 45.3656 80.3439 44.8656 80.9439C43.3656 83.0439 46.3656 84.7439 49.1656 85.5439C46.9656 85.9439 44.8656 86.7439 46.1656 88.1439C46.8656 88.9439 47.8656 89.0439 48.8656 88.8439C47.3656 93.0439 45.9656 97.2439 45.4656 101.544C45.3656 102.144 45.3656 102.744 45.3656 103.344C43.2656 98.0439 41.3656 92.5439 39.6656 86.9439C39.3656 77.7439 40.4656 69.2439 44.0656 61.6439C46.9656 57.8439 52.7656 56.7439 57.1656 55.2439C61.1656 53.9439 64.0656 51.8439 66.8656 48.6439C72.0656 42.8439 74.3656 33.8439 71.3656 26.5439C71.5656 26.5439 71.6656 26.4439 71.8656 26.4439C72.3656 26.3439 72.2656 25.5439 71.7656 25.5439C71.4656 25.5439 71.2656 25.6439 70.9656 25.6439C70.7656 25.2439 70.5656 24.8439 70.3656 24.4439C70.1656 24.1439 69.6656 24.3439 69.7656 24.7439C69.8656 25.0439 69.9656 25.4439 69.9656 25.7439C62.8656 26.9439 56.2656 32.2439 51.3656 37.0439C44.8656 43.2439 42.6656 52.1439 42.7656 60.8439C39.3656 68.0439 38.1656 76.4439 38.9656 84.3439C35.7656 72.9439 33.5656 61.2439 32.9656 49.6439C35.7656 41.9439 42.3656 36.1439 42.9656 27.5439C43.6656 18.3439 40.6656 9.64389 39.5656 0.543892C39.4656 -0.0561079 38.5656 -0.256099 38.4656 0.443901C37.4656 5.3439 33.1656 7.34389 30.7656 11.2439C28.7656 14.4439 26.6656 18.0439 25.7656 21.8439C23.3656 16.8439 20.1656 12.5439 20.4656 6.6439C20.4656 6.0439 19.6656 6.04389 19.4656 6.54389C15.5656 15.4439 12.5656 24.0439 15.0656 33.2439ZM32.5656 77.1439C31.4656 75.7439 30.2656 74.4439 28.9656 73.1439C25.7656 67.6439 25.1656 61.5439 23.2656 55.5439C28.2656 61.8439 29.3656 69.9439 32.5656 77.1439ZM1.66558 43.5439C3.16558 50.0439 9.26558 55.9439 14.1656 60.4439C13.6656 60.1439 13.0656 59.8439 12.5656 59.5439C8.06558 57.0439 4.86558 54.7439 2.16558 50.8439C1.56558 48.4439 1.36558 46.0439 1.66558 43.5439ZM20.1656 66.2439C20.2656 66.3439 20.2656 66.3439 20.3656 66.2439C21.2656 67.0439 22.0656 67.8439 22.9656 68.7439C21.3656 67.9439 19.5656 67.3439 17.8656 66.5439C12.1656 64.0439 7.26557 59.7439 3.76557 54.6439C8.26557 59.3439 15.8656 61.3439 20.1656 66.2439ZM22.4656 54.6439C22.3656 54.7439 22.3656 54.8439 22.3656 54.9439C23.3656 60.6439 24.5656 66.6439 27.5656 71.7439C27.3656 71.5439 27.1656 71.4439 26.9656 71.2439C25.2656 69.6439 23.5656 68.0439 21.8656 66.4439C19.4656 61.3439 21.4656 53.9439 17.3656 49.8439C19.1656 51.2439 20.7656 52.7439 22.2656 54.3439C22.3656 54.4439 22.4656 54.5439 22.4656 54.6439ZM8.86558 44.6439C9.56558 44.9439 10.2656 45.2439 10.9656 45.6439C14.2656 48.7439 14.4656 53.6439 15.1656 57.8439C15.1656 58.0439 15.4656 57.9439 15.4656 57.8439C15.0656 54.5439 15.1656 50.0439 13.2656 46.9439C14.1656 47.4439 15.0656 48.0439 15.8656 48.6439C15.5656 48.6439 15.2656 49.0439 15.5656 49.2439C18.6656 52.0439 19.2656 55.0439 19.6656 59.1439C19.8656 61.4439 20.1656 63.6439 21.0656 65.7439C13.1656 58.6439 5.16558 51.5439 2.06558 41.4439C2.06558 41.3439 2.06558 41.3439 2.06558 41.2439C4.06558 42.7439 6.46558 43.6439 8.86558 44.6439ZM13.0656 67.5439C10.0656 64.8439 7.26558 61.6439 5.16558 57.9439C6.66558 59.7439 8.56557 61.3439 10.4656 62.7439C14.3656 65.7439 19.9656 67.3439 24.4656 69.9439C27.8656 73.2439 31.0656 76.7439 33.8656 80.5439C27.7656 75.2439 19.2656 73.0439 13.0656 67.5439ZM8.86558 95.9439C8.76558 95.7439 8.66558 95.6439 8.56558 95.5439L8.66558 95.4439L8.76557 95.3439C8.76557 95.4439 8.86557 95.4439 8.96557 95.5439C8.86557 95.6439 8.86558 95.8439 8.86558 95.9439ZM11.9656 89.4439C11.6656 91.1439 10.9656 92.6439 10.3656 94.2439C10.4656 93.5439 10.5656 92.8439 10.6656 92.0439C10.9656 91.1439 11.3656 90.2439 11.9656 89.4439ZM8.86558 84.6439C9.96558 86.8439 10.0656 89.3439 9.76557 91.8439C9.46557 92.7439 9.36557 93.6439 9.26557 94.6439C9.26557 94.6439 9.26558 94.6439 9.16558 94.6439C9.06558 94.6439 8.96558 94.6439 8.86558 94.7439C8.76558 94.7439 8.66558 94.8439 8.56558 94.9439C8.56558 94.8439 8.46558 94.8439 8.36558 94.7439C8.36558 93.0439 7.96557 91.4439 7.26557 89.9439C7.36557 88.0439 7.76558 86.2439 8.86558 84.6439ZM4.66558 87.4439C5.36558 88.3439 5.96558 89.2439 6.56558 90.2439C6.56558 91.4439 6.86557 92.6439 7.26557 93.8439C5.56557 91.8439 3.76558 89.8439 4.66558 87.4439ZM3.26557 96.4439C3.16557 94.1439 5.96558 94.6439 7.56558 95.2439C7.56558 95.2439 7.56558 95.2439 7.66558 95.3439C6.96558 95.7439 6.46557 96.2439 5.96557 96.7439C4.66557 97.5439 3.36557 97.9439 3.26557 96.4439ZM6.06558 101.444C5.86558 101.544 5.66558 101.544 5.36558 101.544C4.56558 101.544 4.96558 100.944 5.06558 100.444C5.26558 99.4439 5.66558 98.5439 6.16558 97.6439C6.96558 97.1439 7.66557 96.5439 8.26557 95.9439C8.36557 96.0439 8.36557 96.0439 8.46557 96.1439C8.56557 96.2439 8.66558 96.2439 8.66558 96.1439C8.66558 96.2439 8.56558 96.2439 8.56558 96.3439C8.56558 96.4439 8.56558 96.5439 8.66558 96.5439C8.66558 96.5439 8.66558 96.6439 8.56558 96.7439C8.56558 97.0439 8.46558 97.4439 8.36558 97.7439C8.16558 98.7439 7.86557 99.6439 7.26557 100.444C7.06557 100.944 6.56558 101.244 6.06558 101.444ZM10.8656 102.144C9.06558 100.644 9.46557 98.2439 9.46557 96.0439C11.2656 97.5439 12.0656 100.044 10.8656 102.144ZM10.4656 95.4439C12.4656 95.2439 14.4656 95.4439 16.1656 96.5439C14.3656 97.1439 12.2656 96.4439 10.4656 95.4439ZM44.6656 114.344C43.1656 116.744 39.8656 117.144 37.1656 116.944C37.0656 116.744 36.9656 116.544 36.8656 116.344H36.9656C39.4656 115.144 41.9656 114.344 44.6656 114.344ZM20.6656 119.844C19.2656 120.144 17.9656 120.344 16.5656 120.344C19.9656 119.044 23.4656 115.544 26.3656 115.044C26.4656 115.044 26.4656 115.044 26.4656 114.944C26.7656 114.944 27.0656 114.944 27.4656 115.044C26.6656 115.244 25.8656 115.744 25.1656 116.344C24.1656 117.144 23.1656 118.044 22.1656 118.944C21.5656 119.344 21.0656 119.644 20.6656 119.844ZM24.3656 114.944C22.7656 115.544 21.3656 116.544 19.8656 117.544C18.8656 118.244 17.7656 118.844 16.6656 119.344C15.2656 120.044 13.9656 119.944 12.4656 119.844C13.3656 119.644 14.3656 119.144 15.0656 118.844C17.0656 117.844 18.8656 116.444 20.8656 115.344C22.1656 115.144 23.2656 115.044 24.3656 114.944ZM25.2656 114.044C23.6656 112.544 21.2656 110.544 19.1656 110.844C19.2656 110.644 19.3656 110.544 19.5656 110.344C19.6656 110.444 19.7656 110.544 19.9656 110.544C24.3656 110.844 27.9656 113.144 31.6656 115.344C29.5656 114.344 27.4656 114.044 25.2656 114.044ZM32.8656 115.944C32.8656 115.844 32.9656 115.844 32.9656 115.744C33.0656 115.744 33.1656 115.844 33.1656 115.844C33.0656 115.944 32.9656 115.944 32.8656 115.944ZM40.4656 109.744C39.5656 111.744 38.1656 113.544 36.7656 115.244C37.1656 113.044 38.3656 110.744 40.4656 109.744ZM33.5656 106.744C33.9656 105.744 35.4656 106.144 35.8656 106.944C36.3656 107.844 36.3656 109.144 36.3656 110.144C36.3656 111.444 36.2656 112.844 36.1656 114.144C36.0656 114.544 35.9656 115.044 35.9656 115.444V115.344C35.5656 113.744 34.8656 111.944 33.7656 110.544C33.1656 109.144 33.0656 107.744 33.5656 106.744ZM32.7656 111.044C33.3656 113.044 34.3656 114.944 34.8656 115.644C32.4656 115.544 29.5656 111.244 29.2656 108.944C30.7656 109.144 31.8656 109.944 32.7656 111.044ZM28.3656 108.744C28.3656 110.744 29.6656 112.644 31.0656 114.144C27.7656 111.744 24.3656 109.744 20.0656 109.444C20.6656 108.344 21.2656 107.244 21.4656 106.044C21.8656 106.544 22.3656 106.844 23.0656 106.644C24.7656 106.244 23.2656 104.444 22.1656 103.344C22.4656 103.344 22.7656 103.444 23.1656 103.444C24.6656 105.344 26.4656 107.144 28.3656 108.744ZM25.6656 97.8439C25.6656 97.8439 25.6656 97.7439 25.6656 97.6439C26.6656 98.6439 27.8656 99.4439 29.1656 99.7439C28.6656 99.9439 28.1656 100.244 27.7656 100.644C26.0656 100.544 24.3656 100.844 22.8656 101.444C23.7656 100.344 24.8656 99.1439 25.6656 97.8439ZM32.0656 99.4439C32.0656 99.5439 32.0656 99.5439 31.9656 99.6439C31.9656 99.5439 31.9656 99.5439 32.0656 99.4439C31.9656 99.4439 31.9656 99.4439 32.0656 99.4439ZM27.9656 98.3439C28.8656 98.6439 29.8656 98.9439 30.8656 99.1439C29.7656 99.2439 28.8656 98.9439 27.9656 98.3439ZM21.3656 103.744C22.2656 104.544 23.5656 105.944 22.6656 105.944C22.0656 106.044 21.6656 105.544 21.4656 104.944C21.4656 104.544 21.4656 104.144 21.3656 103.744ZM22.5656 102.644C24.0656 102.044 25.5656 101.644 27.1656 101.644C27.1656 101.644 27.1656 101.744 27.0656 101.844C26.1656 103.044 24.2656 102.844 22.5656 102.644ZM27.5656 102.544C27.8656 102.244 28.0656 101.844 28.1656 101.344C29.0656 100.444 30.4656 100.144 31.6656 99.9439C31.7656 99.9439 31.7656 99.9439 31.7656 99.8439C30.5656 100.944 29.3656 102.344 27.5656 102.544ZM31.8656 99.7439C31.9656 99.7439 31.9656 99.7439 31.8656 99.7439V99.7439ZM31.7656 104.844C31.6656 103.444 31.9656 102.144 32.3656 100.744C32.5656 102.244 32.4656 103.644 31.7656 104.844ZM37.3656 103.444C35.8656 102.344 34.8656 100.844 33.6656 99.5439C35.7656 99.7439 38.2656 101.044 37.3656 103.444ZM33.1656 98.5439C33.0656 98.5439 33.0656 98.5439 32.9656 98.5439C34.1656 96.7439 35.5656 95.1439 37.2656 93.8439C36.3656 95.7439 35.1656 97.6439 33.1656 98.5439ZM34.1656 90.3439C34.2656 92.7439 33.5656 95.0439 32.5656 97.2439C32.1656 94.6439 32.0656 91.9439 34.1656 90.3439ZM24.3656 98.2439C23.3656 99.6439 22.1656 100.944 20.9656 102.344H20.8656C21.7656 100.744 22.7656 98.8439 24.3656 98.2439ZM26.1656 90.3439C27.3656 91.4439 25.5656 92.7439 24.4656 91.8439C23.9656 91.4439 23.5656 90.9439 23.2656 90.4439C22.4656 89.5439 21.8656 88.5439 21.1656 87.5439C22.8656 88.3439 24.6656 89.0439 26.1656 90.3439ZM22.6656 83.6439C23.1656 83.1439 23.6656 82.7439 24.2656 82.4439C25.9656 81.4439 26.0656 82.1439 24.7656 84.7439C23.7656 85.3439 22.5656 85.7439 21.4656 86.0439C21.5656 85.5439 21.6656 85.1439 21.6656 84.6439C21.9656 84.3439 22.2656 83.9439 22.6656 83.6439ZM17.6656 79.2439C17.9656 78.6439 19.1656 77.8439 19.8656 78.2439C20.9656 78.8439 20.8656 81.3439 20.8656 82.3439C20.8656 83.0439 20.8656 83.7439 20.8656 84.4439C20.6656 84.6439 20.4656 84.9439 20.2656 85.1439C19.6656 84.7439 19.0656 84.2439 18.5656 83.7439C18.2656 83.1439 17.9656 82.6439 17.7656 82.0439C17.2656 81.2439 17.1656 80.1439 17.6656 79.2439ZM13.0656 83.1439C14.9656 84.1439 16.8656 85.0439 18.8656 85.8439C18.9656 85.9439 18.9656 86.0439 19.0656 86.1439C18.8656 86.1439 18.6656 86.2439 18.6656 86.5439C18.5656 86.5439 18.5656 86.4439 18.4656 86.4439C16.3656 86.4439 13.8656 85.2439 13.0656 83.1439ZM13.7656 90.1439C13.1656 88.3439 17.6656 87.4439 18.6656 87.3439C18.6656 87.6439 18.6656 87.9439 18.6656 88.1439C17.0656 89.4439 14.2656 91.6439 13.7656 90.1439ZM19.4656 87.8439C19.5656 87.7439 19.5656 87.7439 19.6656 87.6439C19.7656 87.5439 19.6656 87.3439 19.4656 87.3439C19.4656 87.2439 19.4656 87.1439 19.4656 87.0439C19.5656 86.9439 19.5656 86.9439 19.6656 86.8439C19.8656 86.9439 20.1656 86.7439 20.0656 86.4439L20.1656 86.3439C20.2656 86.3439 20.2656 86.4439 20.3656 86.4439H20.4656C20.2656 86.5439 20.2656 86.7439 20.2656 86.9439C19.9656 86.9439 19.7656 87.1439 19.9656 87.5439C20.2656 88.4439 20.5656 89.2439 20.8656 90.1439C21.1656 91.2439 21.1656 92.2439 20.9656 93.3439C20.1656 94.4439 19.7656 94.3439 19.7656 93.2439C19.3656 91.4439 19.5656 89.6439 19.4656 87.8439ZM19.6656 95.8439C20.2656 96.4439 20.3656 97.7439 20.4656 98.4439C20.5656 99.3439 20.5656 100.244 20.4656 101.244C20.3656 101.344 20.2656 101.544 20.2656 101.644C19.9656 100.844 19.5656 100.244 18.9656 99.6439C18.4656 98.4439 18.0656 97.3439 18.0656 96.1439C18.0656 95.2439 19.1656 95.4439 19.6656 95.8439ZM14.5656 98.7439C15.9656 98.5439 17.2656 99.1439 18.2656 100.044C18.7656 101.144 19.3656 102.144 19.7656 102.744C19.5656 102.744 19.2656 102.644 19.0656 102.644C17.1656 101.744 15.4656 100.644 14.5656 98.7439ZM14.3656 106.744C13.1656 106.744 14.6656 104.944 14.7656 104.844C15.2656 104.344 15.9656 104.044 16.5656 103.844C17.3656 103.544 18.2656 103.544 19.0656 103.544C19.1656 103.544 19.3656 103.644 19.4656 103.644C18.2656 105.144 16.5656 106.644 14.3656 106.744ZM20.3656 103.644C20.4656 103.644 20.4656 103.644 20.5656 103.644C20.5656 104.044 20.6656 104.344 20.7656 104.744C20.5656 106.944 19.5656 108.944 18.3656 110.844C17.6656 108.444 18.9656 105.444 20.3656 103.644ZM9.76557 113.544C12.3656 112.044 14.6656 110.744 17.5656 110.144C17.6656 110.644 17.7656 111.244 17.9656 111.644C18.0656 111.844 18.3656 111.844 18.5656 111.644L18.6656 111.544C19.7656 111.844 20.9656 111.944 22.0656 112.544C22.9656 112.944 23.7656 113.544 24.5656 114.144C23.9656 114.144 23.3656 114.244 22.7656 114.344C19.2656 112.744 13.4656 111.144 10.3656 113.944C10.1656 114.044 10.3656 114.344 10.5656 114.244C12.5656 113.844 14.1656 113.244 16.2656 113.244C18.0656 113.344 19.9656 113.744 21.7656 114.444C15.9656 115.344 9.96558 117.544 4.36558 115.744C6.26558 115.444 8.06557 114.544 9.76557 113.544ZM6.16558 117.144C6.26558 117.144 6.36557 117.144 6.46557 117.144C7.26557 117.244 8.06558 117.244 8.86558 117.244C10.8656 117.244 12.9656 116.844 14.9656 116.444C16.3656 116.144 17.7656 115.844 19.1656 115.644C18.3656 116.144 17.5656 116.644 16.7656 117.044C14.5656 118.344 12.6656 118.944 10.2656 119.044C8.86557 118.644 7.46558 117.944 6.16558 117.144ZM24.7656 118.144C24.1656 118.444 23.6656 118.744 23.0656 118.944C24.9656 117.444 26.9656 115.144 29.5656 115.444C30.0656 115.544 30.4656 115.744 30.9656 115.944C28.7656 115.844 26.6656 117.044 24.7656 118.144ZM30.6656 118.544C30.4656 117.944 31.3656 117.344 31.8656 117.144C32.1656 117.044 32.3656 116.944 32.6656 116.844C32.7656 116.844 32.8656 116.844 32.8656 116.844C32.9656 116.944 33.1656 117.044 33.2656 117.144C33.5656 117.344 33.8656 116.944 33.7656 116.644C34.2656 116.644 34.7656 116.644 35.3656 116.644C34.1656 117.844 31.2656 120.144 30.6656 118.544ZM33.4656 123.044C33.8656 121.344 34.5656 119.744 35.4656 118.244C35.4656 118.644 35.3656 119.044 35.2656 119.344C35.0656 120.744 34.5656 122.044 33.4656 123.044ZM40.3656 121.044C38.9656 120.644 38.3656 119.544 37.7656 118.244C39.0656 118.844 39.9656 119.644 40.3656 121.044ZM54.8656 135.344C53.0656 134.644 51.1656 134.044 49.2656 133.844C48.8656 132.744 48.0656 131.444 47.0656 130.344C49.9656 131.544 52.6656 133.344 54.8656 135.344ZM27.7656 137.344C27.7656 137.244 27.8656 137.244 27.7656 137.344C30.3656 133.444 34.8656 134.244 38.7656 133.544C39.0656 133.544 38.9656 133.144 38.6656 133.144C34.5656 132.744 29.7656 133.244 27.4656 137.044C27.3656 137.144 27.4656 137.244 27.4656 137.344C26.9656 137.244 26.5656 137.244 26.0656 137.144C27.7656 135.844 29.1656 133.944 30.5656 132.444C30.6656 132.344 30.7656 132.344 30.7656 132.244C34.4656 131.344 38.4656 131.044 41.4656 133.744C41.5656 133.844 41.7656 133.744 41.6656 133.544C39.7656 131.044 35.4656 129.944 32.2656 130.944C33.4656 130.044 34.8656 129.544 36.1656 129.144C36.1656 129.244 36.1656 129.344 36.2656 129.344C39.0656 130.144 41.6656 131.144 43.7656 133.344C43.9656 133.544 44.1656 133.244 44.0656 133.144C42.2656 131.044 39.7656 129.044 36.8656 129.044C38.1656 128.744 39.4656 128.744 40.8656 128.844C40.8656 128.844 40.9656 128.944 41.0656 128.944C41.2656 128.944 41.5656 128.944 41.7656 128.944C42.8656 129.044 43.9656 129.344 45.0656 129.644C45.2656 129.744 45.3656 129.744 45.5656 129.844C46.9656 130.744 48.1656 132.244 48.8656 133.744C43.8656 133.044 38.5656 133.944 33.7656 136.644C33.4656 136.844 33.7656 137.244 33.9656 137.044C38.4656 134.544 43.5656 133.844 48.5656 134.444C46.8656 135.444 45.2656 136.744 43.6656 137.844C41.5656 139.344 39.5656 139.844 37.2656 140.144C34.6656 139.344 32.1656 138.244 29.4656 137.544C28.7656 137.444 28.2656 137.344 27.7656 137.344ZM39.3656 140.844C42.9656 139.944 46.5656 136.444 49.0656 134.644C50.5656 134.844 52.0656 135.244 53.4656 135.744C52.4656 136.044 51.5656 136.644 50.5656 137.444C48.6656 138.944 47.2656 140.344 45.2656 141.344C43.4656 141.444 41.5656 141.344 39.3656 140.844ZM52.3656 139.344C50.7656 140.044 49.2656 140.544 47.7656 140.844C48.1656 140.544 48.4656 140.244 48.8656 140.044C50.7656 138.544 52.3656 136.744 54.6656 136.144C55.2656 136.344 55.8656 136.644 56.3656 136.944C56.6656 137.344 57.0656 137.744 57.3656 138.144C55.7656 138.044 54.1656 138.544 52.3656 139.344ZM58.6656 138.244C58.5656 138.144 58.5656 138.144 58.6656 138.244V138.244ZM67.5656 132.444C65.9656 132.544 64.2656 132.344 62.6656 132.344C69.3656 129.144 78.6656 126.244 83.0656 119.944C82.7656 120.644 82.5656 121.444 82.2656 122.044C79.6656 128.244 74.1656 131.944 67.5656 132.444ZM84.0656 116.144C84.0656 116.044 84.0656 116.044 84.0656 116.144C79.5656 125.244 70.0656 127.144 61.6656 132.444C61.1656 132.544 60.5656 132.544 60.0656 132.744C62.3656 130.344 67.1656 129.444 69.7656 127.844C72.3656 126.344 74.0656 123.644 75.4656 121.044C75.4656 120.944 75.5656 120.944 75.5656 120.844C78.2656 118.944 81.2656 117.944 84.0656 116.144ZM71.5656 125.144C68.5656 128.744 62.0656 128.844 59.4656 132.444C59.4656 132.444 59.4656 132.444 59.3656 132.344C59.7656 129.544 61.0656 127.244 62.7656 125.144C67.6656 122.844 73.3656 120.944 75.4656 115.544C75.5656 115.244 75.1656 115.144 75.0656 115.344C73.0656 117.944 71.5656 119.944 68.6656 121.644C66.9656 122.644 65.1656 123.444 63.4656 124.344C64.8656 122.744 66.3656 121.344 67.8656 119.844C71.0656 118.444 74.1656 115.944 76.1656 112.944C75.9656 117.144 74.8656 121.244 71.5656 125.144ZM76.2656 111.144C75.4656 112.444 74.6656 113.744 73.5656 115.044C72.3656 116.344 71.0656 117.344 69.6656 118.244C70.5656 117.344 71.4656 116.444 72.1656 115.444C74.0656 113.144 75.4656 110.544 76.1656 107.644C76.2656 108.844 76.2656 109.944 76.2656 111.144ZM66.2656 111.544C69.7656 108.944 73.4656 107.644 75.9656 104.444C75.9656 104.544 75.9656 104.644 75.9656 104.744C74.6656 110.744 71.3656 115.344 67.0656 119.644C66.8656 119.744 66.6656 119.844 66.3656 119.944C67.5656 115.244 69.3656 111.344 72.8656 107.744C72.9656 107.644 72.8656 107.444 72.6656 107.444C68.3656 109.844 66.8656 115.644 65.8656 120.144V120.244C65.8656 120.444 65.7656 120.544 65.7656 120.744C65.3656 121.044 65.0656 121.444 64.6656 121.744C63.5656 122.744 62.5656 123.744 61.6656 124.744C63.4656 119.244 65.0656 113.944 69.6656 109.544C69.7656 109.444 69.6656 109.144 69.4656 109.244C63.6656 112.444 61.5656 120.744 59.9656 127.244C59.3656 128.444 58.9656 129.644 58.8656 131.044C57.8656 123.044 59.0656 116.744 66.2656 111.544ZM70.1656 89.9439C69.4656 97.8439 63.5656 101.544 58.7656 106.544C59.9656 104.344 61.2656 102.244 62.8656 99.9439C66.0656 95.3439 68.6656 90.2439 68.3656 84.7439C69.0656 86.6439 69.8656 88.7439 70.1656 89.9439ZM67.0656 82.4439C67.7656 90.9439 63.3656 96.9439 59.0656 103.544C59.8656 97.2439 61.1656 91.9439 64.7656 86.4439C65.7656 85.3439 66.5656 84.0439 67.0656 82.4439ZM58.5656 104.444C57.8656 105.644 57.0656 106.744 56.3656 108.044C56.2656 108.244 56.1656 108.544 55.9656 108.744C55.8656 106.344 55.8656 103.944 55.9656 101.544C56.1656 98.1439 57.4656 95.3439 59.0656 92.5439C59.9656 91.6439 60.8656 90.7439 61.7656 89.9439C59.4656 94.1439 58.8656 99.4439 58.5656 104.444ZM70.6656 92.5439C70.9656 95.5439 70.3656 98.3439 68.9656 100.844C65.8656 104.944 60.0656 106.844 56.7656 110.844C57.0656 110.144 57.2656 109.444 57.6656 108.744C62.3656 103.744 69.9656 99.3439 70.6656 92.5439ZM55.6656 114.844C55.7656 114.544 55.7656 114.244 55.8656 113.944C57.6656 110.644 61.5656 108.444 65.0656 106.044C61.7656 109.244 58.2656 111.344 55.6656 114.844ZM57.2656 94.6439C55.1656 99.1439 55.2656 104.344 55.6656 109.444C54.9656 111.044 54.4656 112.644 54.1656 114.244C52.6656 107.544 52.8656 100.244 57.2656 94.6439ZM53.8656 93.5439C53.1656 91.8439 52.6656 89.9439 52.9656 88.1439C53.8656 89.7439 54.0656 91.7439 53.8656 93.5439ZM52.4656 86.4439H52.5656V86.5439C52.4656 86.5439 52.4656 86.4439 52.4656 86.4439ZM57.8656 87.3439C56.1656 87.9439 54.6656 87.1439 53.3656 85.9439C53.2656 85.8439 53.1656 85.8439 52.9656 85.8439C52.9656 85.7439 52.8656 85.5439 52.7656 85.5439C52.8656 85.4439 52.9656 85.3439 53.1656 85.2439C53.3656 85.4439 53.4656 85.6439 53.6656 85.7439C53.7656 85.8439 53.8656 85.8439 53.8656 85.7439C53.9656 85.8439 54.0656 85.9439 54.1656 85.9439C55.6656 86.1439 56.7656 86.5439 57.8656 87.3439ZM58.0656 82.7439C56.7656 83.6439 55.1656 84.2439 53.8656 85.1439C53.8656 85.0439 53.7656 84.8439 53.7656 84.7439C55.0656 83.7439 56.4656 82.7439 58.0656 82.7439ZM59.7656 68.6439C58.5656 70.6439 56.3656 71.9439 54.6656 73.5439C54.3656 73.8439 54.5656 74.3439 54.9656 74.3439C56.3656 74.4439 57.6656 74.8439 58.7656 75.6439C57.3656 75.7439 55.8656 75.5439 54.7656 74.9439C54.1656 74.6439 53.6656 75.4439 54.2656 75.8439C54.4656 75.9439 54.6656 76.0439 54.9656 76.1439C56.2656 76.8439 58.4656 78.3439 56.9656 79.4439C54.9656 80.8439 53.8656 75.9439 53.6656 74.9439C53.6656 74.8439 53.6656 74.8439 53.5656 74.8439C53.5656 74.7439 53.6656 74.6439 53.5656 74.5439C53.4656 74.1439 53.4656 73.8439 53.3656 73.4439C55.6656 72.0439 57.3656 69.9439 59.7656 68.6439ZM52.8656 71.0439C52.5656 69.1439 52.3656 67.2439 52.8656 65.2439C53.8656 66.9439 53.0656 69.1439 52.8656 71.0439ZM49.0656 69.5439C50.4656 70.7439 51.3656 72.3439 52.2656 74.0439C52.0656 74.1439 51.8656 74.1439 51.6656 74.2439C50.4656 72.8439 49.1656 71.3439 49.0656 69.5439ZM47.2656 73.4439C48.2656 73.5439 49.1656 73.9439 50.0656 74.5439C49.1656 74.6439 48.2656 74.6439 47.2656 74.4439C44.7656 73.2439 44.7656 72.9439 47.2656 73.4439ZM49.3656 77.1439C50.0656 76.5439 50.7656 76.0439 51.5656 75.5439C51.6656 75.6439 51.8656 75.7439 51.9656 75.8439C52.1656 76.0439 52.3656 76.0439 52.5656 75.9439C52.2656 77.8439 51.7656 79.6439 51.2656 81.5439C50.8656 81.2439 50.3656 80.9439 50.0656 80.6439C49.5656 80.3439 48.9656 80.0439 48.4656 79.8439C50.0656 79.1439 51.3656 77.8439 52.3656 76.3439C52.5656 75.9439 52.0656 75.6439 51.7656 76.0439C50.6656 77.6439 49.1656 78.9439 47.2656 79.6439C47.6656 79.5439 48.6656 77.8439 49.3656 77.1439ZM45.3656 82.1439C45.7656 79.7439 48.9656 81.4439 49.9656 82.1439C50.9656 82.8439 51.6656 83.7439 52.4656 84.5439C52.1656 84.8439 51.9656 85.1439 51.7656 85.4439C49.5656 85.2439 45.0656 84.0439 45.3656 82.1439ZM46.6656 88.2439C45.6656 87.7439 47.0656 87.1439 47.4656 87.0439C48.7656 86.5439 50.1656 86.5439 51.5656 86.4439C50.5656 87.9439 48.4656 89.1439 46.6656 88.2439ZM56.5656 54.3439C52.7656 55.7439 48.4656 56.8439 45.3656 59.2439C45.7656 58.6439 46.0656 58.0439 46.4656 57.4439C50.6656 54.4439 55.8656 53.8439 60.6656 51.6439C62.1656 50.9439 63.5656 49.9439 64.8656 48.8439C62.7656 51.1439 59.9656 53.0439 56.5656 54.3439ZM61.1656 30.9439C61.1656 30.9439 61.2656 30.9439 61.2656 30.8439C57.3656 35.7439 54.6656 42.0439 52.5656 47.9439C51.4656 48.9439 50.4656 49.9439 49.4656 50.9439C51.1656 42.9439 54.2656 36.0439 61.1656 30.9439ZM50.2656 52.6439C56.3656 50.8439 64.8656 46.7439 69.3656 41.0439C69.2656 41.4439 69.0656 41.9439 68.9656 42.3439C65.2656 47.1439 61.8656 50.6439 55.5656 52.7439C52.5656 53.7439 49.9656 54.4439 47.6656 55.8439C48.3656 54.7439 49.2656 53.6439 50.2656 52.6439ZM70.2656 37.0439C66.4656 44.3439 58.8656 48.6439 51.1656 51.7439C51.6656 51.2439 52.0656 50.7439 52.5656 50.3439C59.1656 44.1439 67.9656 38.5439 70.2656 29.4439C70.5656 31.9439 70.5656 34.5439 70.2656 37.0439ZM69.6656 27.3439C66.9656 36.3439 59.9656 41.3439 53.5656 47.1439C56.2656 41.1439 59.2656 35.6439 62.8656 30.0439C64.9656 28.9439 67.2656 28.0439 69.6656 27.3439ZM51.7656 38.1439C52.5656 37.2439 53.4656 36.4439 54.3656 35.7439C51.0656 40.3439 49.2656 46.7439 48.5656 51.9439C47.8656 52.7439 47.0656 53.6439 46.4656 54.5439C45.2656 56.1439 44.2656 57.8439 43.2656 59.5439C44.0656 51.4439 45.6656 44.4439 51.7656 38.1439ZM15.4656 29.8439C14.4656 25.9439 15.1656 21.7439 16.1656 17.9439C16.7656 15.3439 18.3656 12.7439 18.8656 10.0439C18.0656 17.7439 19.0656 25.6439 21.3656 33.0439C23.4656 39.8439 28.8656 45.0439 30.4656 51.9439C29.5656 50.4439 28.5656 49.1439 27.2656 47.7439C22.0656 42.0439 17.3656 37.5439 15.4656 29.8439ZM30.9656 53.1439C30.8656 52.0439 30.6656 50.9439 30.3656 50.0439C30.6656 50.5439 30.9656 51.0439 31.2656 51.4439C31.3656 52.4439 31.3656 53.4439 31.4656 54.4439C31.3656 54.0439 31.1656 53.6439 30.9656 53.1439ZM32.5656 48.2439C32.4656 45.9439 32.4656 43.7439 32.4656 41.4439C33.8656 37.5439 37.0656 34.0439 38.5656 30.2439C39.8656 27.1439 41.0656 23.8439 41.1656 20.4439C41.4656 22.3439 41.6656 24.1439 41.6656 25.8439C41.4656 34.7439 35.2656 40.6439 32.5656 48.2439ZM38.3656 3.74389C38.2656 9.44389 35.9656 14.9439 34.5656 20.3439C34.5656 20.4439 34.4656 20.5439 34.4656 20.6439C34.4656 18.1439 34.5656 15.7439 34.8656 13.2439C35.2656 10.6439 36.0656 8.14389 37.0656 5.74389C37.5656 5.14389 38.0656 4.44389 38.3656 3.74389ZM36.3656 17.7439C37.1656 14.9439 38.2656 11.9439 38.8656 8.9439C38.9656 9.7439 39.0656 10.5439 39.2656 11.3439C39.9656 18.5439 36.1656 24.2439 33.6656 30.6439C34.3656 26.2439 35.1656 21.9439 36.3656 17.7439ZM33.2656 33.2439C35.1656 27.2439 39.5656 21.6439 40.1656 15.3439C40.2656 15.8439 40.3656 16.3439 40.4656 16.8439C40.3656 16.8439 40.2656 16.9439 40.2656 17.1439C40.3656 23.2439 38.9656 28.8439 35.9656 34.1439C34.7656 36.2439 33.4656 38.1439 32.5656 40.1439C32.5656 39.1439 32.6656 38.1439 32.6656 37.0439C32.6656 37.0439 32.6656 37.0439 32.6656 36.9439C32.8656 35.7439 33.0656 34.5439 33.2656 33.2439ZM34.1656 8.9439C34.5656 8.5439 34.9656 8.0439 35.4656 7.6439C33.8656 12.3439 33.7656 17.5439 34.0656 22.5439C32.5656 28.8439 31.9656 35.5439 31.3656 41.9439C30.9656 38.9439 30.0656 36.1439 29.2656 33.0439C27.0656 24.4439 30.1656 17.8439 33.4656 10.2439C33.5656 10.0439 33.4656 9.9439 33.2656 9.9439C33.5656 9.5439 33.8656 9.2439 34.1656 8.9439ZM32.6656 10.5439C29.1656 15.7439 27.4656 21.9439 27.5656 28.1439C27.6656 35.0439 31.6656 41.0439 30.9656 48.0439C30.9656 48.2439 31.0656 48.2439 31.1656 48.2439C31.1656 48.7439 31.1656 49.2439 31.1656 49.7439C26.4656 42.1439 24.6656 31.3439 26.2656 22.7439C27.2656 18.3439 29.6656 14.0439 32.6656 10.5439ZM24.9656 24.0439C24.9656 24.2439 24.8656 24.4439 24.8656 24.7439C24.3656 30.0439 24.8656 35.8439 26.4656 41.2439C25.7656 39.9439 25.0656 38.7439 24.3656 37.4439C20.3656 30.1439 19.3656 21.4439 19.5656 13.1439C20.7656 16.9439 23.4656 20.5439 24.9656 24.0439ZM18.8656 9.74389C18.7656 9.84389 18.7656 9.84389 18.7656 10.0439C18.8656 9.64389 18.8656 9.2439 18.8656 8.9439C18.8656 9.1439 18.8656 9.44389 18.8656 9.74389Z" fill="#35611A"/>
<path d="M2.96568 92.5439C2.66568 92.5439 2.46569 92.6439 2.16569 92.7439C2.16569 92.3439 1.76568 91.7439 1.56568 91.4439C1.36568 91.0439 0.76568 91.2439 0.76568 91.6439C0.76568 92.0439 0.265683 92.4439 0.0656831 92.7439C-0.0343169 92.9439 -0.0343107 93.1439 0.165689 93.2439C0.665689 93.6439 1.16569 93.9439 1.86569 93.8439C2.46569 93.7439 2.86568 93.2439 3.26568 92.8439C3.36568 92.7439 3.16568 92.5439 2.96568 92.5439ZM1.06568 92.8439C1.16568 92.7439 1.26569 92.5439 1.36569 92.4439C1.46569 92.5439 1.66568 92.7439 1.76568 92.8439C1.56568 93.0439 1.36568 93.0439 1.06568 92.8439Z" fill="#35611A"/>
<path d="M11.1657 81.4439C11.3657 81.4439 11.4657 81.2439 11.3657 81.1439C11.2657 80.8439 10.9657 80.7439 10.7657 80.6439C10.8657 80.1439 11.3657 79.7439 10.9657 79.2439C10.3657 78.6439 9.86574 78.8439 9.26574 79.2439C8.66574 79.6439 8.96574 80.6439 9.46574 80.9439C9.76574 81.3439 10.6657 81.4439 11.1657 81.4439ZM9.66575 79.9439C9.76575 79.8439 9.86574 79.8439 10.0657 79.7439C10.1657 79.7439 10.2657 79.6439 10.2657 79.6439C10.0657 79.7439 10.2657 79.8439 10.2657 79.7439C10.2657 79.8439 10.0657 80.0439 10.0657 80.2439C10.0657 80.3439 10.0657 80.3439 10.0657 80.4439C9.86574 80.3439 9.76575 80.1439 9.66575 79.9439Z" fill="#35611A"/>
<path d="M44.3657 85.3439C44.2657 85.1439 44.0657 85.1439 43.9657 85.1439C43.3657 85.3439 42.8657 85.6439 42.2657 86.0439C42.0657 86.1439 42.0657 86.3439 42.0657 86.6439C42.2657 87.1439 42.6657 87.5439 43.1657 87.6439C43.0657 88.0439 43.6657 88.1439 43.7657 87.8439C43.7657 87.7439 43.8657 87.6439 43.8657 87.5439C43.9657 87.4439 44.1657 87.3439 44.2657 87.3439C44.3657 87.2439 44.3657 87.1439 44.3657 87.0439C44.3657 86.9439 44.2657 86.9439 44.2657 86.9439C44.2657 86.8439 44.3657 86.7439 44.3657 86.7439C44.5657 86.1439 44.4657 85.7439 44.3657 85.3439ZM43.3657 86.7439C43.1657 86.7439 43.0657 86.6439 42.9657 86.4439C43.1657 86.2439 43.4657 86.1439 43.7657 86.0439C43.7657 86.2439 43.6657 86.4439 43.5657 86.7439C43.4657 86.7439 43.3657 86.7439 43.3657 86.7439Z" fill="#35611A"/>
<path d="M51.7656 97.3439C51.8656 97.2439 51.8656 97.1439 51.8656 96.9439C51.9656 96.6439 51.7656 96.4439 51.5656 96.2439C51.4656 96.1439 51.2656 96.0439 51.0656 96.1439C50.7656 96.3439 50.5656 96.6439 50.2656 96.8439C49.8656 97.1439 50.3656 98.2439 50.6656 98.5439C51.1656 99.2439 51.9656 98.2439 52.4656 97.9439C52.5656 97.8439 52.5656 97.6439 52.4656 97.5439C52.1656 97.3439 51.8656 97.5439 51.5656 97.6439C51.6656 97.5439 51.6656 97.4439 51.5656 97.3439C51.6656 97.5439 51.6656 97.4439 51.7656 97.3439ZM51.4656 97.8439C51.3656 97.9439 51.2656 97.9439 51.2656 97.9439C51.1656 97.9439 51.0656 97.5439 51.0656 97.2439L51.1656 97.1439C51.1656 97.3439 51.0656 97.6439 51.2656 97.7439C51.3656 97.8439 51.3656 97.8439 51.4656 97.8439Z" fill="#35611A"/>
</g>
</svg>
