<svg width="55" height="62" viewBox="0 0 55 62" fill="none" xmlns="http://www.w3.org/2000/svg">
<g opacity="0.5">
<path d="M35.9408 13.2067C40.362 7.36768 46.5005 1.09252 54.2727 1.98335C54.4726 1.99082 54.6612 2.29808 54.5538 2.4942C50.1991 9.2363 41.8209 16.5286 33.4968 17.0181C33.3969 17.0144 33.3969 17.0144 33.3969 17.0144C31.6309 18.7496 29.8649 20.4849 28.2912 22.4275L28.3874 22.5311C32.1081 19.3679 39.7206 21.8538 42.8213 24.5715C42.9175 24.6752 42.9063 24.975 42.7027 25.0674C38.1312 26.898 32.4314 26.7851 28.5499 23.5379C28.2427 23.7266 27.8355 23.9115 27.4283 24.0964C27.2247 24.1889 27.0323 23.9816 27.1397 23.7854C27.3508 23.4931 27.5618 23.2008 27.8728 22.9122L27.7766 22.8085C25.8957 24.9398 24.111 27.1747 22.4188 29.6132C25.9612 28.5447 30.5795 30.8188 32.2699 33.784C32.3624 33.9876 32.2587 34.0837 32.0551 34.1762C28.4203 35.0411 23.8347 34.5695 21.4448 31.5782C21.2561 31.271 21.5671 30.9824 21.8594 31.1934C23.11 32.541 24.7864 33.2041 26.4702 33.6673C27.4621 33.9045 28.5576 34.0455 29.6606 33.9867C30.9596 34.0352 31.9627 33.9726 30.8046 32.8286C28.2073 30.0296 24.7023 30.0988 21.4634 31.0786C21.4634 31.0786 21.4597 31.1785 21.3598 31.1747C21.2561 31.2709 21.1487 31.4671 21.045 31.5633C21.1375 31.7669 21.0338 31.8631 20.834 31.8556C20.7266 32.0517 20.6192 32.2479 20.5155 32.344C19.4565 33.9056 18.4936 35.5708 17.627 37.3397C17.6046 37.9393 17.4859 38.4352 17.2674 38.9274C23.1866 35.8462 30.5133 40.6231 34.7609 44.7846C34.9533 44.992 34.8459 45.1881 34.6386 45.3805C28.697 49.0612 21.0443 44.9726 16.2896 40.9923C16.0972 40.7849 16.412 40.3964 16.6044 40.6038C20.893 43.666 26.2772 46.8693 31.7145 45.9717C36.2487 45.1405 29.1806 41.474 27.7078 40.7185C23.6891 38.4668 19.9693 38.9282 15.9161 40.2778C15.0531 41.9468 14.194 43.5158 13.331 45.1847C13.516 45.5919 13.5972 46.0953 13.5785 46.595C13.5673 46.8948 13.1676 46.8798 13.0752 46.6762C12.9827 46.4726 12.8865 46.369 12.794 46.1654C9.68697 51.6532 6.09518 56.7226 0.283397 59.6076C0.0798014 59.7001 -0.10887 59.3928 0.0984595 59.2004C5.32559 55.8933 8.90991 51.0237 12.0058 45.8357C9.52994 45.1428 7.37629 43.8615 6.26674 41.4183C6.17801 41.1148 6.28913 40.8188 6.68886 40.8337C8.99472 40.7197 11.7442 42.1234 12.9649 44.2704C13.9278 42.6052 14.7907 40.9363 15.6536 39.2673C12.2419 36.8383 11.3219 32.0005 10.6644 28.1733C10.6718 27.9735 10.783 27.6774 10.9866 27.5849C15.306 27.1459 17.3401 31.625 17.4868 35.7333C18.2424 34.2605 19.0978 32.7914 19.9495 31.4223C19.8534 31.3186 19.7571 31.2149 19.8608 31.1187C15.532 26.4538 14.3131 18.9031 18.1122 13.6413C18.3233 13.3489 18.9228 13.3713 18.9079 13.7711C19.6243 18.7013 21.8359 23.7874 21.5456 28.8801C21.8603 28.4916 22.0788 27.9994 22.3936 27.6109C23.4526 26.0493 24.6041 24.6914 25.8593 23.2372C25.8705 22.9375 25.9816 22.6414 25.9928 22.3416C25.4613 17.8186 25.5817 11.919 30.3568 9.99592C30.6604 9.90719 30.9527 10.1183 30.8415 10.4143C29.9077 13.982 28.8478 18.2453 27.1182 21.6832C30.0357 18.5899 32.9421 15.7965 35.9408 13.2067ZM35.4853 25.3982C36.7807 25.5466 38.1834 25.499 39.4937 25.2477C40.197 25.174 42.5066 24.96 41.2374 24.1121C39.1874 22.7345 36.6078 22.1378 34.2132 21.9483C32.2184 21.7737 30.5971 22.3135 28.9683 23.0532C30.9146 24.5269 33.1944 25.1124 35.4853 25.3982ZM10.9112 42.9929C9.9455 42.0561 8.76127 41.6116 7.46218 41.5631C8.4942 43.4029 10.3555 44.4731 12.328 45.2473C12.328 45.2473 12.328 45.2473 12.3317 45.1474C12.0581 44.4367 11.6882 43.6223 10.9112 42.9929ZM11.8598 28.318C12.4286 31.8417 13.2711 36.0761 16.1794 38.5865C16.1794 38.5865 16.1831 38.4865 16.283 38.4903C15.0437 36.8429 13.923 34.6995 13.894 32.7971C13.9015 32.5973 14.205 32.5085 14.2974 32.7121C15.3369 34.3521 15.6694 36.1658 16.609 37.802C16.7127 37.7058 16.7164 37.6058 16.82 37.5097C16.5622 33.6974 16.168 28.1788 11.8598 28.318ZM18.4671 14.8554C15.5748 19.9509 17.1495 26.014 20.4828 30.5416C20.5865 30.4454 20.5864 30.4454 20.6901 30.3492C20.7975 30.153 20.9012 30.0569 21.0086 29.8607C20.5994 24.7419 19.4796 19.8967 18.4671 14.8554ZM42.2569 7.53856C41.3239 8.40433 40.3872 9.37002 39.5504 10.3394C42.849 7.76081 46.4362 5.49318 50.0196 3.32548C48.6057 3.67292 47.3953 3.92793 47.2916 4.02412C45.3594 4.85255 43.8081 6.19554 42.2569 7.53856ZM53.4397 2.85284C53.647 2.66045 52.7439 2.72678 51.6372 2.88557C51.6334 2.9855 51.626 3.18535 51.4224 3.27782C44.9812 6.93986 39.1096 11.4238 33.7191 16.426C41.6509 15.7216 49.2072 8.99909 53.4397 2.85284ZM26.7782 20.0693C27.6971 16.9014 29.112 13.8521 30.2271 10.7916C27.2581 12.582 26.6091 16.5606 26.7782 20.0693Z" fill="#35611A"/>
<path d="M25.035 42.6199C25.3273 42.831 25.0088 43.3195 24.7165 43.1084C23.5435 42.3641 22.4667 41.7234 21.0826 41.2714C19.6985 40.8194 18.2957 40.8671 16.9042 40.6149C16.7043 40.6075 16.7193 40.2078 16.9191 40.2152C19.6546 39.3167 22.8925 41.0388 25.035 42.6199Z" fill="#35611A"/>
</g>
</svg>
