<svg width="185" height="187" viewBox="0 0 185 187" fill="none" xmlns="http://www.w3.org/2000/svg">
<g opacity="0.5">
<path d="M120.999 105.295C116.474 107.337 111.472 110.92 109.894 115.82C109.816 116.029 110.094 116.18 110.24 116.043C113.189 112.463 115.633 109.219 119.597 107.017C116.2 111.29 110.028 113.914 110.39 120.01C110.381 120.293 110.805 120.307 110.815 120.025C110.822 113.445 119.027 111.384 121.473 105.947C121.696 105.601 121.359 105.095 120.999 105.295Z" fill="#35611A"/>
<path d="M95.9219 72.3371C96.0491 72.7659 96.2493 73.1263 96.3082 73.482C96.2399 73.409 96.1033 73.2629 96.108 73.1216C95.1305 70.6127 94.2213 68.1769 93.1025 65.6633C93.1755 65.5949 93.2486 65.5266 93.2533 65.3853C90.0876 58.4876 94.0103 49.0673 95.377 42.0379C96.5693 35.9932 97.7028 29.5928 95.3521 23.7128C95.2249 23.2841 94.6595 23.2652 94.504 23.6845C90.9534 34.6737 88.3402 47.2507 90.5752 58.7161C90.6341 59.0718 91.1311 59.0177 91.2819 58.7397C91.2441 59.8705 91.2794 60.9329 91.5291 61.9317C91.1334 61.0695 90.806 60.2803 90.4103 59.4181C90.4833 59.3498 90.488 59.2084 90.4927 59.0671C89.7743 57.2744 88.8368 55.6866 87.7533 54.2354C87.4895 53.6606 87.0843 53.0811 86.8205 52.5063C84.4395 41.1775 88.2258 27.3661 78.8882 18.8474C78.615 18.5553 78.0402 18.8191 78.0991 19.1748C79.4648 29.1254 81.5279 39.3823 85.4614 48.7111C85.4567 48.8525 85.6664 48.9302 85.7347 49.0033C85.8524 49.7147 85.9702 50.4261 86.088 51.1375C85.7558 50.4897 85.4237 49.8419 85.0186 49.2623C84.8867 48.9749 84.6864 48.6145 84.4132 48.3224C82.4303 35.6627 66.66 14.2649 52.3322 19.588C52.0448 19.7199 52.1037 20.0757 52.3864 20.0851C53.8775 19.9226 55.364 19.9015 56.7727 20.09C56.841 20.1631 56.841 20.1631 56.9093 20.2361C67.3802 26.5994 76.2182 37.3655 82.8726 47.8464C76.4229 41.8296 68.6776 36.477 66.0703 27.6877C66.0115 27.332 65.5097 27.5275 65.5002 27.8102C67.1629 37.3462 77.0919 42.984 83.6098 49.0738C83.7417 49.3612 83.9467 49.5803 84.0786 49.8677C77.8528 43.5046 69.0073 39.318 61.2054 35.6615C60.8591 35.4377 60.4892 35.9206 60.7624 36.2128C69.0471 44.4841 78.6273 52.0912 88.7519 58.2307C90.4078 61.6113 91.9906 65.0601 93.5005 68.5773C89.7222 63.0741 83.8802 60.0491 77.5364 57.2196C77.1171 57.0641 76.7472 57.547 77.0888 57.9121C82.0566 63.8087 89.5312 66.676 94.7229 72.2263C94.8595 72.3724 94.9231 72.5868 95.0597 72.7329C97.0736 78.1063 98.873 83.5434 100.458 89.0441C100.322 88.898 100.185 88.752 100.048 88.6059C96.2233 76.0262 77.8559 73.0782 67.5876 69.1272C66.8903 68.8209 66.2613 68.5876 65.6371 68.213C63.7102 66.5922 61.7103 65.0397 59.4913 63.6921C59.2133 63.5413 58.9165 63.9559 59.1214 64.175C60.351 65.4896 61.7997 66.5992 63.2531 67.5675C63.1071 67.7041 63.0293 67.9137 63.239 67.9915C65.7029 70.4792 68.4637 72.5524 71.4436 74.4206C73.0195 75.959 74.5271 77.4244 76.1077 78.8214C79.1323 81.4694 82.4537 83.7027 86.1403 85.5946C90.3098 87.8563 95.768 87.5433 99.7137 90.1512C99.782 90.2243 99.9186 90.3703 99.9917 90.302C100.338 90.5258 100.753 90.8227 101.094 91.1878C101.535 92.8298 102.043 94.5448 102.484 96.1867C103.614 100.469 104.603 104.748 105.593 109.026C105.588 109.167 105.583 109.308 105.578 109.45C105.574 109.591 105.71 109.737 105.779 109.81C105.906 110.239 105.965 110.594 106.092 111.023C102.429 104.18 96.4577 98.6741 89.4213 95.3969C84.1941 93.0291 74.901 89.5351 70.1398 94.3994C69.9208 94.6043 70.0479 95.0331 70.3259 95.1839C71.6474 95.8647 72.6132 96.6045 73.36 97.5492C73.3552 97.6905 73.4235 97.7635 73.5649 97.7682C75.2632 99.8767 76.0947 102.522 77.8519 104.986C79.3406 107.017 82.4029 108.534 84.6456 109.175C87.8681 110.132 90.8269 110.514 94.2285 110.344C96.9235 110.151 99.6915 109.89 102.075 110.535C95.5784 110.177 86.6969 117.663 80.6475 116.612C80.1552 116.525 79.9902 117.227 80.4779 117.455C80.6875 117.533 80.8289 117.538 81.0385 117.616C81.0385 117.616 81.1068 117.689 81.1799 117.62C85.7428 118.692 90.3766 117.644 94.9278 116.947C98.8407 116.3 101.896 115.906 105.135 114.246C105.814 115.117 106.492 115.989 106.956 116.924C107.024 116.997 107.093 117.07 107.234 117.075C107.142 117.709 107.05 118.342 107.027 119.049C107.013 119.473 107.437 119.487 107.724 119.355C108.979 126.26 110.02 133.228 110.778 140.187C107.695 132.938 102.312 126.745 96.7603 121.395C96.4871 121.103 95.8393 121.435 96.0395 121.795C97.7401 125.956 99.6645 129.77 102.305 133.325C104.472 136.227 107.004 138.788 109.03 141.685C103.933 137.553 93.5982 135.581 90.47 131.797C90.1968 131.505 89.695 131.701 89.8953 132.061C91.2637 135.574 93.4308 138.476 96.5426 140.632C100.415 143.308 107.796 144.757 110.7 148.887C110.691 149.17 110.613 149.379 110.603 149.662C110.521 150.013 111.145 150.387 111.301 149.968C111.496 150.47 111.692 150.972 111.814 151.542C111.984 154.943 112.153 158.345 112.108 161.81C111.844 169.726 111.292 177.773 110.599 185.815C110.594 185.956 110.663 186.029 110.736 185.961C110.726 186.244 110.717 186.526 110.639 186.736C110.634 186.877 110.844 186.955 110.922 186.746C111.009 186.253 111.028 185.688 111.115 185.195C112.404 178.376 113.205 171.328 113.583 164.265C113.583 164.265 113.656 164.197 113.587 164.124C113.616 163.276 113.712 162.501 113.877 161.799C114.339 160.682 114.732 159.492 115.194 158.376C116.021 156.918 116.985 155.606 118.158 154.371C118.231 154.303 118.304 154.235 118.377 154.166C121.166 151.147 124.648 148.574 127.35 146.047C131.44 142.221 135.44 136.836 137.389 131.454C138.171 129.216 138.967 126.554 138.551 124.205C138.379 122.997 137.988 121.993 137.455 120.985C137.392 120.77 137.25 120.766 137.109 120.761C137.187 120.551 137.196 120.269 136.987 120.191C136.918 120.118 136.85 120.045 136.782 119.972C136.299 119.602 135.573 120.144 135.91 120.65C136.047 120.796 136.11 121.011 136.247 121.157C134.435 122.44 131.462 126.728 131.238 127.074C125.749 134.673 120.714 143.49 118.078 152.529C117.849 153.017 117.553 153.431 117.324 153.919C117.032 154.192 116.808 154.539 116.516 154.812C119.247 147.191 121.763 139.634 124.143 131.931C126.037 126.051 129.423 115.764 124.29 110.57C124.017 110.277 123.515 110.473 123.432 110.824C120.193 120.974 115.005 132.263 113.214 143.523C112.536 134.161 111.215 124.991 109.178 116.079C109.114 115.864 108.685 115.992 108.749 116.206C110.635 125.396 111.532 134.552 111.937 143.622C111.81 143.193 111.683 142.764 111.555 142.336C110.698 134.1 109.486 125.923 107.99 117.737C108.077 117.245 108.233 116.825 108.32 116.333C108.461 116.338 108.539 116.128 108.544 115.987C108.476 115.914 108.549 115.845 108.549 115.845C109.701 113.125 112.233 111.44 113.951 108.739C115.444 106.383 116.66 103.877 117.807 101.297C119.791 96.9768 121.233 91.9309 119.332 87.4102C119.132 87.0498 118.498 86.9579 118.484 87.3819C117.115 96.6045 109.397 103.139 107.969 112.006C107.658 112.844 107.562 113.619 107.533 114.467C107.47 114.253 107.401 114.18 107.338 113.966C107.277 111.558 106.928 109.282 106.794 106.943C107.206 105.188 107.336 103.424 107.539 101.591C108.345 98.6464 109.779 95.9351 110.863 93.1412C113.41 86.788 116.444 80.6633 118.431 74.1499C118.513 73.7989 118.103 73.3607 117.743 73.5609C107.342 77.8124 106.258 89.0962 105.904 99.6969C105.466 95.8618 104.604 92.0125 103.386 88.2221C103.459 88.1538 103.459 88.1538 103.464 88.0124C101.926 81.0983 105.213 73.7793 110.798 69.65C111.159 69.4498 111.041 68.7384 110.544 68.7926C104.16 69.2869 100.662 74.4764 100.468 80.2714C100.273 79.7697 100.009 79.1948 99.8132 78.6931C99.8368 77.9863 99.8557 77.421 99.8793 76.7143C99.8887 76.4316 99.9665 76.2219 100.049 75.8709C100.108 76.2266 100.167 76.5824 100.367 76.9428C100.499 77.2302 100.928 77.103 100.796 76.8156C100.537 76.0995 100.419 75.388 100.374 74.6083C103.442 63.2492 114.25 53.139 110.006 40.4038C109.879 39.9751 109.245 39.8832 109.09 40.3025C106.524 47.2211 102.354 53.4494 100.066 60.5187C98.4924 65.2772 98.3861 70.5799 98.5672 75.7507C97.5803 73.5245 96.5887 71.4397 95.6017 69.2135C95.4298 68.005 95.3992 66.8012 95.5831 65.5338C95.7197 65.6799 95.9341 65.6163 95.8705 65.4019C95.9671 64.6269 95.9907 63.9202 95.946 63.1404C97.0181 58.5775 99.089 53.7648 98.0315 49.4138C97.9679 49.1994 97.6852 49.19 97.5392 49.3266C93.7227 53.4442 92.6034 59.4206 93.5501 64.9707C93.218 64.3228 92.9589 63.6067 92.6268 62.9589C92.5585 62.8858 92.4171 62.8811 92.4124 63.0224C93.0578 64.8835 93.7079 66.6032 94.4263 68.3959C94.4899 68.6103 94.5582 68.6834 94.6218 68.8977C94.6218 68.8977 94.6218 68.8977 94.6901 68.9708C94.9539 69.5456 95.0764 70.1157 95.3402 70.6905C95.5898 71.6893 95.79 72.0497 95.9219 72.3371ZM92.4893 35.291C92.9063 33.3947 95.6723 26.8365 95.0175 25.2581C96.4543 28.8436 95.8745 33.4938 95.3278 37.1545C94.5831 42.5067 93.4191 47.7033 92.1821 52.9683C91.7697 54.7232 91.3574 56.4782 91.2961 58.3157C90.9219 50.4499 91.099 43.0271 92.4893 35.291ZM81.0996 31.0195C80.6639 29.2362 80.0754 21.434 79.1826 20.626C81.5194 22.685 82.6193 25.764 83.4413 28.6922C84.9534 34.2611 84.8282 40.1292 85.2732 45.8748C83.8835 40.8759 82.3479 36.0137 81.0996 31.0195ZM136.501 122.014C140.901 130.085 131.4 141.3 125.85 146.492C123.951 148.268 121.623 150.171 119.359 152.289C119.51 152.011 119.593 151.66 119.743 151.382C122.498 147.3 125.803 143.66 128.069 139.349C128.22 139.072 127.805 138.775 127.586 138.98C125.454 141.385 123.527 144.009 121.737 146.779C125.777 138.07 130.852 130.174 136.501 122.014ZM98.5528 124.922C100.607 126.971 102.442 129.226 104.209 131.407C107.264 135.259 109.315 139.502 111.075 144.018C111.065 144.3 111.124 144.656 111.115 144.939C110.919 144.437 110.656 143.862 110.46 143.36C108.491 138.767 105.085 134.832 102.395 130.639C102.263 130.352 101.756 130.688 101.961 130.908C102.63 132.062 103.304 133.075 104.046 134.161C102.211 131.906 100.381 129.511 99.0522 126.919C96.9181 123.027 96.772 123.164 98.5528 124.922ZM106.705 145.64C104.408 144.503 102.024 143.857 99.8005 142.651C95.353 140.238 93.5699 136.429 90.3451 133.421C95.5604 138.264 108.331 139.327 110.352 146.611C107.916 143.275 103.24 141.351 99.4425 140.658C99.0915 140.575 99.0043 141.068 99.3553 141.15C103.499 142.067 106.966 144.163 109.48 147.29C108.724 146.628 107.821 146.102 106.705 145.64ZM122.805 116.887C122.878 116.819 124.097 112.12 124.775 112.991C125.922 114.657 125.842 117.06 125.849 118.97C125.846 125.408 123.363 131.976 121.254 137.919C118.912 144.492 116.994 151.078 114.862 157.728C114.414 158.421 114.108 159.118 113.797 159.956C113.807 159.674 113.748 159.318 113.83 158.967C116.549 149.577 119.565 139.773 121.231 130.136C121.24 129.853 120.89 129.771 120.739 130.049C118.18 138.878 115.47 147.985 113.823 157.057C113.769 156.56 113.856 156.067 113.802 155.57C114.665 146.684 115.718 138.442 118.555 129.764C119.832 125.42 121.319 121.154 122.805 116.887ZM112.154 145.61C112.175 147.097 112.196 148.583 112.217 150.069C112.055 148.578 112.033 147.092 111.871 145.601C112.012 145.605 112.012 145.605 112.154 145.61ZM96.963 75.0604C97.5448 76.7071 98.2679 78.3585 98.8497 80.0051C98.8355 80.4292 98.8944 80.7849 98.8803 81.2089C98.2443 79.0652 97.467 76.9167 96.7581 74.8413C96.8264 74.9143 96.8264 74.9143 96.8947 74.9874L96.963 75.0604ZM58.8057 20.6532C70.822 23.1061 80.1053 35.3728 83.5346 47.0903C77.3584 37.1206 68.7158 26.8563 58.8057 20.6532ZM76.1234 48.6824C73.7772 46.906 71.5723 45.1344 69.3722 43.2215C67.3087 41.4546 64.9367 38.3331 62.5669 37.2635C71.3488 41.2357 80.7313 46.2892 86.5542 54.1246C86.6178 54.339 86.8227 54.5581 86.8863 54.7725C86.9452 55.1282 87.0771 55.4156 87.2043 55.8443C87.1996 55.9857 87.3409 55.9904 87.414 55.9221C87.6778 56.4969 88.0829 57.0764 88.3467 57.6512C84.4152 54.6192 80.1963 51.7191 76.1234 48.6824ZM79.0298 59.1089C81.1216 60.0277 83.2087 61.0879 85.2228 62.2164C88.4854 64.0941 90.8763 66.6502 92.9704 69.6208C90.7797 67.4252 88.2238 65.5711 85.6633 63.8584C85.4536 63.7806 85.3806 63.849 85.3028 64.0586C84.059 63.1681 82.7422 62.3459 81.5715 61.387C81.9131 61.7522 77.9863 58.5788 79.0298 59.1089ZM77.7004 73.4976C85.3352 75.8042 93.6153 79.9719 98.0531 86.9121C94.8141 84.3277 90.9084 82.6408 86.998 81.0952C81.2738 78.7816 75.9052 76.4091 70.8477 73.198C69.6817 72.0978 68.5156 70.9976 67.4179 69.9705C70.5533 71.4194 74.1999 72.3902 77.7004 73.4976ZM65.0481 68.9009C65.1848 69.0469 65.3944 69.1247 65.531 69.2708C66.0822 69.7137 66.5604 70.2249 67.18 70.7408C66.2825 70.0741 65.5263 69.4121 64.7019 68.6771C64.7702 68.7501 64.9115 68.7548 65.0481 68.9009ZM83.1016 83.3706C79.7024 81.3469 76.7461 78.7719 73.7945 76.0556C75.8086 77.1841 78.0371 78.249 80.1289 79.1679C86.3996 82.0657 93.634 83.6515 98.854 88.3538C98.9859 88.6412 99.1178 88.9286 99.2497 89.216C98.6254 88.8414 97.9281 88.5351 97.0165 88.2925C92.112 86.8552 87.6079 86.1388 83.1016 83.3706ZM102.686 94.354C102.564 93.7839 102.373 93.1408 102.178 92.639C102.387 92.7168 102.679 92.4435 102.474 92.2244C102.27 92.0053 102.065 91.7862 101.933 91.4988C101.429 89.6425 100.925 87.7862 100.416 86.0712C100.489 86.0029 100.421 85.9299 100.494 85.8615C100.176 84.7897 99.9308 83.6495 99.8955 82.5871C102.359 89.3198 104.54 96.0431 105.854 103.304C105.744 104.503 105.774 105.706 105.946 106.915C105.941 107.056 105.937 107.198 105.937 107.198C104.806 102.915 103.817 98.6368 102.686 94.354ZM105.442 113.549C105.373 113.475 105.373 113.475 105.373 113.475C105.442 113.548 105.442 113.549 105.442 113.549ZM77.3861 93.5093C81.2753 93.5684 85.3954 95.1917 88.9548 96.6548C95.9323 99.5763 101.767 104.936 105.366 111.565C105.225 111.56 105.225 111.56 105.084 111.556C104.396 110.967 103.63 110.587 102.792 110.276C99.3029 106.693 95.0015 104.144 90.1253 101.859C85.6684 99.7288 79.5485 96.553 74.3493 97.5822C74.1444 97.3631 74.0125 97.0757 73.7392 96.7836C73.3294 96.3454 72.8512 95.8342 72.3636 95.6057C69.8571 94.39 76.465 93.5493 77.3861 93.5093ZM83.0555 108.061C78.1699 106.058 77.1029 101.99 74.8228 98.2348C83.8829 98.1127 93.6894 103.18 100.686 109.781C99.4182 109.598 98.1461 109.555 96.7963 109.722C91.9082 109.913 87.7315 109.986 83.0555 108.061ZM88.8218 117.592C87.6133 117.764 86.3365 117.863 85.1327 117.894C84.9914 117.889 84.85 117.884 84.7087 117.88C85.0644 117.821 85.3518 117.689 85.7075 117.63C90.8478 116.245 97.5925 111.305 102.93 112.474C102.643 112.606 102.356 112.738 102.141 112.802C100.056 113.793 98.1082 114.931 95.6959 115.133C95.3402 115.192 95.3943 115.689 95.677 115.699C97.5192 115.619 99.1659 115.037 100.817 114.314C101.821 113.923 102.824 113.532 103.896 113.214C104.169 113.506 104.511 113.871 104.711 114.232C99.7524 116.542 94.2258 116.782 88.8218 117.592ZM105.91 114.342C105.983 114.274 106.056 114.206 106.198 114.211C106.334 114.357 106.471 114.503 106.676 114.722L106.744 114.795C106.867 115.365 106.921 115.862 107.043 116.432C106.716 115.643 106.315 114.922 105.91 114.342ZM107.628 115.885C107.696 115.959 107.696 115.959 107.837 115.963C107.764 116.032 107.759 116.173 107.686 116.241C107.618 116.168 107.623 116.027 107.628 115.885ZM118.227 92.9626C118.616 91.9143 118.936 90.793 119.184 89.74C119.839 87.0734 119.219 95.0475 119.315 94.2724C118.717 99.4879 115.605 105.822 112.285 109.886C110.956 111.539 109.564 112.979 108.523 114.5C108.542 113.935 108.634 113.301 108.652 112.736C109.192 111.41 109.941 110.161 110.617 108.981C111.444 107.523 112.928 105.45 112.702 103.744C112.707 103.603 112.57 103.457 112.361 103.379C113.261 101.853 114.229 100.399 115.202 98.8046C116.321 97.0732 117.518 95.1322 118.227 92.9626ZM109.623 109.089C110.167 107.622 110.853 106.159 111.607 104.769C110.99 106.305 110.377 107.7 109.623 109.089ZM115.528 76.317C117.877 75.9001 117.976 77.1769 115.688 80.0013C114.989 81.8882 114.147 83.7704 113.306 85.6525C111.697 89.3486 110.156 93.1176 108.62 96.7454C108.314 97.4426 108.081 98.0716 107.848 98.7006C107.857 98.4179 107.871 97.9939 107.881 97.7112C109.353 93.8691 111.318 90.1142 111.737 86.0247C111.829 85.391 110.845 85.2166 110.753 85.8503C110.289 89.16 109.054 92.2318 107.961 95.3083C107.992 88.0221 108.656 80.8278 115.528 76.317ZM109.434 70.2413C104.994 73.9843 101.964 79.9676 102.619 85.791C102.291 85.0018 102.037 84.1443 101.778 83.4281C101.684 77.765 103.05 70.7356 109.434 70.2413ZM110.331 47.6312C110.333 49.683 109.838 51.789 109.28 53.6806C107.357 60.4084 102.836 66.5542 100.563 73.1996C100.909 69.1784 103.088 65.3599 104.483 61.7275C106.948 55.7252 108.929 49.3531 109.638 42.9385C109.916 43.0893 110.291 46.7101 110.331 47.6312ZM104.173 54.0761C105.539 51.2917 107.12 48.4437 108.418 45.5863C106.992 52.26 104.938 58.7004 102.25 65.0489C101.482 66.8628 100.782 68.7496 100.37 70.5046C100.622 65.0653 101.503 59.8592 104.173 54.0761ZM95.2467 56.5373C95.4305 55.27 95.9653 54.0851 96.5684 52.9732C96.87 52.4173 97.916 50.7542 97.9324 52.382C97.9441 54.1511 97.6001 55.9791 97.2608 57.6658C96.9309 59.0698 96.528 60.5421 96.1251 62.0144C96.0215 60.8789 95.9179 59.7435 95.6682 58.7446C95.6094 58.3889 95.0393 58.5114 95.0981 58.8671C95.3878 60.787 95.3217 62.7658 95.47 64.681C95.3828 65.1734 95.2957 65.6657 95.2085 66.1581C94.9613 62.9661 94.6411 59.8424 95.2467 56.5373Z" fill="#35611A"/>
</g>
</svg>
